<svg id="visual" viewBox="0 0 900 600" width="900" height="600" xmlns="http://www.w3.org/2000/svg" xmlns:xlink="http://www.w3.org/1999/xlink" version="1.1"><rect x="0" y="0" width="900" height="600" fill="#024e7a"></rect><path d="M0 424L21.5 422.7C43 421.3 86 418.7 128.8 409.5C171.7 400.3 214.3 384.7 257.2 380.8C300 377 343 385 385.8 386.5C428.7 388 471.3 383 514.2 388.8C557 394.7 600 411.3 642.8 420.7C685.7 430 728.3 432 771.2 426.7C814 421.3 857 408.7 878.5 402.3L900 396L900 601L878.5 601C857 601 814 601 771.2 601C728.3 601 685.7 601 642.8 601C600 601 557 601 514.2 601C471.3 601 428.7 601 385.8 601C343 601 300 601 257.2 601C214.3 601 171.7 601 128.8 601C86 601 43 601 21.5 601L0 601Z" fill="#f96b03"></path><path d="M0 414L21.5 421.5C43 429 86 444 128.8 445C171.7 446 214.3 433 257.2 423.8C300 414.7 343 409.3 385.8 410.5C428.7 411.7 471.3 419.3 514.2 431.7C557 444 600 461 642.8 464.3C685.7 467.7 728.3 457.3 771.2 452C814 446.7 857 446.3 878.5 446.2L900 446L900 601L878.5 601C857 601 814 601 771.2 601C728.3 601 685.7 601 642.8 601C600 601 557 601 514.2 601C471.3 601 428.7 601 385.8 601C343 601 300 601 257.2 601C214.3 601 171.7 601 128.8 601C86 601 43 601 21.5 601L0 601Z" fill="#d95d02"></path><path d="M0 438L21.5 446.2C43 454.3 86 470.7 128.8 474.7C171.7 478.7 214.3 470.3 257.2 472.3C300 474.3 343 486.7 385.8 489C428.7 491.3 471.3 483.7 514.2 476.3C557 469 600 462 642.8 463.7C685.7 465.3 728.3 475.7 771.2 481.8C814 488 857 490 878.5 491L900 492L900 601L878.5 601C857 601 814 601 771.2 601C728.3 601 685.7 601 642.8 601C600 601 557 601 514.2 601C471.3 601 428.7 601 385.8 601C343 601 300 601 257.2 601C214.3 601 171.7 601 128.8 601C86 601 43 601 21.5 601L0 601Z" fill="#ba4f01"></path><path d="M0 515L21.5 510.7C43 506.3 86 497.7 128.8 496.7C171.7 495.7 214.3 502.3 257.2 501.7C300 501 343 493 385.8 498.2C428.7 503.3 471.3 521.7 514.2 528.8C557 536 600 532 642.8 530.7C685.7 529.3 728.3 530.7 771.2 525C814 519.3 857 506.7 878.5 500.3L900 494L900 601L878.5 601C857 601 814 601 771.2 601C728.3 601 685.7 601 642.8 601C600 601 557 601 514.2 601C471.3 601 428.7 601 385.8 601C343 601 300 601 257.2 601C214.3 601 171.7 601 128.8 601C86 601 43 601 21.5 601L0 601Z" fill="#9c4200"></path><path d="M0 563L21.5 561.7C43 560.3 86 557.7 128.8 557.5C171.7 557.3 214.3 559.7 257.2 561.2C300 562.7 343 563.3 385.8 561C428.7 558.7 471.3 553.3 514.2 554.7C557 556 600 564 642.8 568C685.7 572 728.3 572 771.2 566.5C814 561 857 550 878.5 544.5L900 539L900 601L878.5 601C857 601 814 601 771.2 601C728.3 601 685.7 601 642.8 601C600 601 557 601 514.2 601C471.3 601 428.7 601 385.8 601C343 601 300 601 257.2 601C214.3 601 171.7 601 128.8 601C86 601 43 601 21.5 601L0 601Z" fill="#7f3500"></path></svg>