<svg id="visual" viewBox="0 0 900 600" width="900" height="600" xmlns="http://www.w3.org/2000/svg" xmlns:xlink="http://www.w3.org/1999/xlink" version="1.1"><rect x="0" y="0" width="900" height="600" fill="#04008f"></rect><path d="M480 0L520 0L520 86L465 86L465 171L422 171L422 257L366 257L366 343L517 343L517 429L422 429L422 514L418 514L418 600L0 600L0 514L0 514L0 429L0 429L0 343L0 343L0 257L0 257L0 171L0 171L0 86L0 86L0 0L0 0Z" fill="#0688d3"></path><path d="M209 0L377 0L377 86L333 86L333 171L315 171L315 257L310 257L310 343L329 343L329 429L292 429L292 514L350 514L350 600L0 600L0 514L0 514L0 429L0 429L0 343L0 343L0 257L0 257L0 171L0 171L0 86L0 86L0 0L0 0Z" fill="#005ee1"></path><path d="M165 0L212 0L212 86L231 86L231 171L168 171L168 257L209 257L209 343L164 343L164 429L195 429L195 514L101 514L101 600L0 600L0 514L0 514L0 429L0 429L0 343L0 343L0 257L0 257L0 171L0 171L0 86L0 86L0 0L0 0Z" fill="#0613d4"></path></svg>