<?xml version="1.0" encoding="utf-8"?>
<!-- Generator: Adobe Illustrator 24.0.0, SVG Export Plug-In . SVG Version: 6.00 Build 0)  -->
<svg version="1.1" xmlns="http://www.w3.org/2000/svg" xmlns:xlink="http://www.w3.org/1999/xlink" x="0px" y="0px"
	 viewBox="0 0 1000 1000" style="enable-background:new 0 0 1000 1000;" xml:space="preserve">
<style type="text/css">
	.st0{display:none;}
	.st1{display:inline;}
</style>
<g id="Layer_1" class="st0">
	<g class="st1">
		<g>
			<path d="M528.18,601.41c-0.07,0.69-0.16,1.37-0.2,2.06c-0.22,3.17-0.92,6.24-1.97,9.24c-1.07,3.05-2.47,5.96-4.32,8.61
				c-1.06,1.53-2.27,2.96-3.47,4.38c-2.5,2.94-5.52,5.25-8.84,7.18c-3.98,2.32-8.27,3.78-12.81,4.52c-1.58,0.26-3.17,0.43-4.77,0.54
				c-5.04,0.36-9.9-0.43-14.62-2.22c-4.34-1.64-8.21-4.04-11.72-7.05c-1.12-0.96-2.14-2.03-3.24-3.08c1.22-0.96,2.31-1.85,3.42-2.71
				c4.12-3.14,8.24-6.29,12.38-9.41c1.98-1.49,3.98-2.95,5.99-4.4c0.45-0.32,0.94-0.58,1.45-0.81c0.84-0.38,1.66-0.18,2.07,0.63
				c0.51,0.99,0.92,2.04,1.32,3.08c0.67,1.76,1.51,3.42,2.84,4.77c1.52,1.53,3.43,2.26,5.57,2.51c1.9,0.22,3.69-0.07,5.39-0.9
				c1.71-0.82,2.92-2.18,3.9-3.77c0.81-1.32,1.26-2.76,1.3-4.29c0.06-2.4-0.76-4.53-2.46-6.2c-1.36-1.34-2.9-2.49-4.36-3.73
				c-0.26-0.22-0.52-0.44-0.74-0.7c-0.98-1.17-0.98-2.17,0.14-3.2c1.11-1.03,2.3-1.99,3.49-2.94c5-4,10.02-7.98,15.04-11.96
				c0.54-0.43,1.12-0.83,1.72-1.19c0.84-0.5,1.56-0.39,2.02,0.46c1.06,1.98,2.12,3.98,2.97,6.06c1.52,3.72,2.28,7.62,2.42,11.64
				c0,0.1,0.05,0.2,0.07,0.3C528.18,599.69,528.18,600.55,528.18,601.41z"/>
			<path d="M491.22,561.34c0.5,0.07,1,0.15,1.51,0.2c5.31,0.48,10.28,2.09,14.91,4.7c1.49,0.84,1.54,1.34,0.2,2.42
				c-3.91,3.16-7.86,6.28-11.78,9.43c-1.97,1.58-3.91,3.19-5.86,4.8c-0.3,0.25-0.57,0.55-0.81,0.85c-0.59,0.76-0.6,1.42,0.08,2.11
				c0.62,0.64,1.33,1.19,2.02,1.76c0.86,0.73,1.79,1.38,2.59,2.17c2.65,2.62,3.77,5.86,2.67,9.41c-1.55,5.02-5.31,7.32-10.26,6.97
				c-4.18-0.3-6.75-2.78-8.37-6.44c-0.4-0.91-0.69-1.88-1.08-2.8c-0.19-0.46-0.45-0.9-0.74-1.3c-0.47-0.64-1.07-0.78-1.8-0.46
				c-0.36,0.16-0.7,0.36-1.02,0.59c-6.36,4.78-12.72,9.58-19.08,14.37c-0.41,0.31-0.82,0.63-1.28,0.99
				c-0.09-0.27-0.16-0.5-0.23-0.72c-1.66-4.98-1.86-10.1-1.42-15.27c0.58-6.92,2.87-13.23,7.18-18.7c4.72-6,10.57-10.53,17.83-13.1
				c3.1-1.1,6.32-1.68,9.6-1.89c0.11-0.01,0.22-0.07,0.33-0.1c0.36,0,0.72,0,1.07,0c0.61,0.04,1.21,0.09,1.82,0.1
				c0.32,0.01,0.65-0.06,0.97-0.1C490.58,561.34,490.9,561.34,491.22,561.34z"/>
		</g>
		<path d="M464.94,534.05c0-8.79,0.48-16.64,1.45-23.55c0.97-6.91,2.62-13.28,4.94-19.09c2.33-5.81,5.36-11.21,9.11-16.19
			c3.75-4.97,8.4-9.98,13.96-15.02c4.39-3.88,8.46-7.66,12.21-11.34c3.75-3.68,6.98-7.37,9.69-11.05c2.71-3.68,4.81-7.56,6.3-11.63
			c1.48-4.07,2.23-8.43,2.23-13.08c0-10.98-2.55-19.19-7.66-24.62c-5.11-5.43-12.63-8.14-22.58-8.14c-4.01,0-7.92,0.61-11.73,1.84
			c-3.81,1.23-7.21,3.2-10.18,5.91c-2.97,2.71-5.36,6.17-7.17,10.37c-1.81,4.2-2.78,9.21-2.91,15.02H406.4
			c0.13-13.57,2.52-25.3,7.17-35.18c4.65-9.89,10.92-18.06,18.8-24.52c7.88-6.46,17.15-11.27,27.82-14.44
			c10.66-3.17,22.13-4.75,34.4-4.75c13.57,0,25.71,1.68,36.44,5.04c10.72,3.36,19.77,8.24,27.14,14.63
			c7.37,6.4,13.02,14.34,16.96,23.84c3.94,9.5,5.91,20.32,5.91,32.47c0,8.53-1.29,16.22-3.88,23.07
			c-2.59,6.85-6.08,13.31-10.47,19.38c-4.39,6.08-9.43,11.92-15.12,17.54c-5.69,5.62-11.7,11.34-18.03,17.15
			c-3.62,3.36-6.62,6.72-9.01,10.08c-2.39,3.36-4.33,6.88-5.81,10.56c-1.49,3.68-2.52,7.63-3.1,11.82
			c-0.58,4.2-0.94,8.82-1.07,13.86H464.94z"/>
	</g>
</g>
<g id="Layer_2">
	<g>
		<path d="M711.4,494.56c-0.34,3.42-0.78,6.83-1.01,10.26c-1.07,15.79-4.56,31.08-9.79,45.97c-5.34,15.19-12.29,29.64-21.5,42.85
			c-5.3,7.6-11.28,14.74-17.28,21.81c-12.42,14.62-27.49,26.11-43.98,35.73c-19.79,11.55-41.18,18.82-63.75,22.49
			c-7.84,1.28-15.78,2.13-23.71,2.7c-25.06,1.81-49.29-2.16-72.77-11.04c-21.58-8.16-40.88-20.12-58.33-35.1
			c-5.56-4.77-10.66-10.09-16.12-15.31c6.05-4.79,11.48-9.22,17.04-13.46c20.51-15.65,41.02-31.28,61.61-46.82
			c9.84-7.43,19.8-14.68,29.79-21.9c2.22-1.6,4.7-2.91,7.2-4.04c4.19-1.9,8.25-0.88,10.32,3.13c2.55,4.92,4.57,10.14,6.56,15.33
			c3.34,8.75,7.51,17.04,14.15,23.72c7.58,7.62,17.07,11.26,27.71,12.5c9.45,1.1,18.34-0.37,26.84-4.46
			c8.53-4.1,14.55-10.84,19.4-18.77c4.01-6.56,6.28-13.72,6.48-21.37c0.31-11.96-3.79-22.54-12.23-30.88
			c-6.75-6.67-14.43-12.39-21.68-18.56c-1.28-1.09-2.58-2.21-3.66-3.5c-4.89-5.8-4.86-10.78,0.72-15.95
			c5.54-5.14,11.44-9.91,17.35-14.63c24.9-19.9,49.86-39.73,74.84-59.54c2.71-2.15,5.59-4.13,8.57-5.9c4.2-2.49,7.77-1.96,10.04,2.3
			c5.25,9.88,10.57,19.8,14.78,30.14c7.55,18.51,11.36,37.94,12.06,57.95c0.02,0.51,0.24,1.01,0.36,1.51
			C711.4,486.01,711.4,490.29,711.4,494.56z"/>
		<path d="M527.47,295.13c2.5,0.33,4.98,0.76,7.49,0.99c26.44,2.41,51.14,10.38,74.22,23.41c7.4,4.18,7.66,6.69,1,12.06
			c-19.48,15.7-39.1,31.25-58.6,46.93c-9.79,7.87-19.47,15.86-29.15,23.86c-1.5,1.24-2.83,2.71-4.03,4.25
			c-2.95,3.76-3,7.07,0.37,10.52c3.1,3.17,6.64,5.91,10.04,8.77c4.29,3.61,8.93,6.86,12.9,10.79
			c13.19,13.05,18.74,29.14,13.28,46.82c-7.71,24.97-26.44,36.45-51.08,34.71c-20.8-1.47-33.58-13.84-41.64-32.03
			c-2.01-4.54-3.44-9.34-5.36-13.93c-0.95-2.27-2.24-4.47-3.7-6.45c-2.34-3.18-5.33-3.89-8.97-2.27c-1.77,0.79-3.5,1.78-5.05,2.95
			c-31.67,23.81-63.32,47.65-94.96,71.5c-2.06,1.55-4.08,3.14-6.39,4.92c-0.43-1.35-0.79-2.48-1.16-3.61
			c-8.28-24.79-9.23-50.28-7.07-76.01c2.9-34.45,14.26-65.82,35.71-93.09c23.49-29.87,52.59-52.41,88.72-65.18
			c15.45-5.46,31.43-8.36,47.77-9.4c0.55-0.04,1.08-0.34,1.62-0.52c1.78,0,3.56,0,5.35,0c3.02,0.18,6.05,0.44,9.07,0.5
			c1.61,0.03,3.22-0.32,4.83-0.5C524.26,295.13,525.86,295.13,527.47,295.13z"/>
	</g>
</g>
</svg>
