<?xml version="1.0" encoding="utf-8"?>
<!-- Generator: Adobe Illustrator 24.0.0, SVG Export Plug-In . SVG Version: 6.00 Build 0)  -->
<svg version="1.1" id="Layer_1" xmlns="http://www.w3.org/2000/svg" xmlns:xlink="http://www.w3.org/1999/xlink" x="0px" y="0px"
	 viewBox="0 0 1000 1000" style="enable-background:new 0 0 1000 1000;" xml:space="preserve">
<style type="text/css">
	.st0{fill:#666666;}
</style>
<g>
	<path class="st0" d="M883.1,618.4c0,17.2-0.2,34.5,0.1,51.7c0.2,10.8-3.1,15.5-14.2,16.4c-85.1,7-169.5,21-254.3,30.3
		c-27.7,3-55.2,7-82.9,10.5c-2.9,0.4-5.3,0.9-7.6,3.4c-24.1,25.3-66.7,24.9-92-0.7c-2.1-2.1-4.3-2.4-6.8-2.7
		c-84.7-10.7-169.3-21.7-254.1-31.9c-28-3.4-55.9-8.1-84.2-8.8c-10.9-0.3-14.7-5.8-14.4-16.2c1.4-55.8,4.3-111.4,8.1-167.1
		c3.1-46.1,5.2-92.3,7.8-138.4c1.2-21.2,2.7-42.4,4-63.6c0.6-9.1,6.8-10.8,13.9-9.7c12.3,1.9,24.6,4.3,36.6,7.3
		c6,1.5,8.1,0.1,8.4-5.7c0.9-17.2,1.8-34.4,3.1-51.6c1.1-14.6,8.1-20.5,22.9-21.1c40.6-1.7,80.1,5.1,119.8,13.1
		c32.7,6.6,64.1,16.2,92.8,32.6c28.2,16.2,56.9,32,80.1,55.4c5.4,5.4,8.9,6.3,15.3,0.6c41-36.3,86.7-65.7,139.7-80.5
		c50.8-14.2,102.8-24.2,156.2-21.2c12.6,0.7,20.1,8.7,21,22.3c1,16.5,2,32.9,2.5,49.4c0.2,6.3,1.4,8.6,8.3,6.8
		c11.3-2.9,22.9-4.8,34.4-7.1c11.6-2.4,16.3,1.3,17,13.4c1.7,29.6,3.4,59.3,5,88.9c3.9,71,7.9,142,11.8,213c0.2,3.7,0,7.3,0,11
		C881.9,618.4,882.5,618.4,883.1,618.4z M498.1,681.5c2.4-0.9,3.5-1.1,4.2-1.7c34.3-31.1,74.6-51.4,118.4-65
		c49.3-15.3,99.8-24,151.5-23.9c8.8,0,11.2-2.4,10.6-11.2c-3.2-45-6.9-90-8.4-135c-2.1-60.2-4.8-120.3-8.3-180.4
		c-0.5-8.3-3.6-9.9-10.7-9.1c-16,1.7-32.2,2.6-48.1,4.9c-47.1,6.9-92.3,20.7-134.5,42.8c-24.3,12.7-45.2,31.2-66.6,48.4
		c-5.9,4.7-8.5,10.9-8.4,19.2c0.6,34.2,0.2,68.3,0.2,102.5C498.1,542,498.1,611.1,498.1,681.5z M457.7,682.8c0.4-4,0.6-5.4,0.6-6.8
		c0-102.5-0.1-205,0.2-307.5c0-8.7-4.6-14.1-10.2-18.3c-32-24.3-63-49.8-102-63.8c-48.1-17.3-96.9-28.9-147.9-30.9
		c-5-0.2-7.3,1.1-7.5,6.5c-0.3,10.3-1,20.5-1.8,30.8c-7.4,94.8-7.6,190-15.2,284.9c-0.7,9.4,1,13.2,11.9,13.3
		c63,0.5,123.9,11.8,182.3,36.1c9.8,4.1,20.2,6.3,29.2,12.5C417.2,653,438.9,663.9,457.7,682.8z M349.2,661.6
		c-2.9-5.8-6.6-7.1-9.8-8.2c-32.4-10.9-65.2-20-99.4-23c-28.2-2.4-56.5-2.4-84.8-2c-15.1,0.2-23.2-8.3-22.8-23.2
		c0.1-3.3,0.3-6.6,0.5-9.9c5.5-90.2,11.1-180.4,16.5-270.5c0.9-15.7,0.8-15.5-14.4-12.1c-5.3,1.2-7.4,3.5-7.2,9
		c0.2,7-0.2,14-0.6,20.9c-6.5,104.8-12.9,209.6-19.8,314.4c-0.7,10,3.3,10.1,10.5,8.3c24.6-6.2,49.8-9.6,75-12
		C244.6,648.4,296.6,646.6,349.2,661.6z M613.3,657.3c23.3-5.5,46-8.9,69-9.5c52.7-1.4,104.9,3.9,156.3,15.2
		c9.3,2,11.2-0.5,10.5-9.6c-2.5-31.1-4.3-62.3-6.3-93.4c-4.2-67.4-8.2-134.9-12.4-202.3c-0.8-13.2-1.7-26.4-2.8-39.6
		c-0.9-11.5-10.9-7.3-17.1-8.9c-5.1-1.4-4.3,3.3-4.1,6.6c2.7,47.7,5.4,95.3,8.2,143c2.9,49.5,6,99,8.8,148.4
		c0.7,12.5-7.5,20.6-20.1,21.2c-3.3,0.2-6.6,0-9.9-0.1c-58-1.8-115.1,3.4-170.3,22.8C619.9,652.3,615.7,652,613.3,657.3z"/>
	<path class="st0" d="M723.2,302.5c3.9,0,9.5,2.6,10,9.5c0.7,9.2-6.6,11.5-13.9,12c-27.2,1.9-53.7,6.9-79.6,15.3
		c-25.1,8.2-50.3,16.4-71.8,32.3c-9.7,7.2-18.6,15.5-27.5,23.5c-5.9,5.3-12.2,8-18.3,1.6c-6.6-7-1.6-12.6,3.8-17.6
		c36.6-34.2,81.3-52.6,128.5-65.9C675.9,307.1,698.1,304.4,723.2,302.5z"/>
	<path class="st0" d="M712.8,517c6.2,0,12.5,0,18.7,0c6.6,0.1,13.3,1,13.4,9.4c0.1,7.9-6.3,10.2-12.9,10.7c-11,0.8-22,0.7-33,1.8
		c-38.3,3.9-74.3,15.5-109.4,31.3c-15.2,6.8-29.4,14.5-42.2,25.1c-6.2,5.2-13.2,8.2-19.1,0.4c-6.5-8.6,0.8-13.7,6.8-17.7
		c37.4-24.4,77.1-43.6,121-53.3C674.9,520.6,693.6,517.6,712.8,517z"/>
	<path class="st0" d="M716.9,372.5c2,0,5.7-0.1,9.4,0c6,0.2,9.8,3.3,10.2,9.3c0.4,6.6-3.3,10.3-9.7,11c-16.7,1.9-33.5,3.2-50.2,6.1
		c-38.8,6.7-74.7,20.8-107.9,41.8c-8,5.1-15,11.7-22.7,17.4c-2.6,1.9-5.5,4-8.5,4.7c-5.3,1.3-11.5,2.2-15-3.4
		c-3.9-6.3,1.1-10.3,5.4-13.7c22.8-18.4,46.7-34.5,74.9-44.8c31.8-11.7,63.4-22.5,97.1-26.7C705,373.5,710.1,373.1,716.9,372.5z"/>
	<path class="st0" d="M721.3,443.2c1.8,0,3.7,0,5.5,0c7.1,0.2,13.9,1.7,14.2,10.3c0.3,9.7-7.5,9.4-14.2,9.3
		c-55.9-1.1-106.6,16.9-154.9,43.1c-10.2,5.5-19.8,12.4-29.3,19.2c-6.5,4.6-12.3,4.9-17.3-1.4c-5.6-7,0.9-10.7,5.3-14.2
		c32.5-26.1,69-43.4,109.6-53.2C666.9,449.8,693.6,443.6,721.3,443.2z"/>
	<path class="st0" d="M240.1,299.8c50.9,3.9,97.9,20.1,142.5,44.5c16.6,9.1,30.9,20.6,44.8,33.1c6.2,5.6,11.8,11.9,4.1,19.3
		c-7.3,7.1-14.1,2.1-19.8-3.9c-16.1-16.9-34.5-30.9-56-39.9c-35.5-15-71.8-27.4-110.6-31c-4.4-0.4-8.7-1.2-13-1.9
		c-6.7-1-11.2-4.6-10.3-11.7c0.9-7,6.1-9.5,12.8-9.1C236.5,299.5,238.3,299.7,240.1,299.8z"/>
	<path class="st0" d="M235.9,368.2c39.1,3.4,74.9,13.8,110.2,28.1c27.6,11.2,52.9,24.9,75.2,44.3c5.9,5.2,15.8,9.6,9.5,20.2
		c-3.5,5.8-15,4.4-23.5-3.7c-21.2-20-46.5-33.4-72.9-44.3c-29.8-12.3-61.5-18.9-93.7-22.4c-3.6-0.4-7.3-0.5-10.9-1.1
		c-6.5-1.1-11.5-4.5-10.8-11.5c0.7-6.7,5.7-9.9,12.5-9.7C233.4,368.3,235.2,368.2,235.9,368.2z"/>
	<path class="st0" d="M229.5,513.7c55-0.5,105.9,14.6,153.8,40.6c13.5,7.3,26.1,16.2,38.9,24.7c6.1,4.1,11.4,9.6,5.4,17.3
		c-5.9,7.6-12.6,4.9-19.2-0.1c-50.8-38.7-109-57.3-172.1-62.4c-4.8-0.4-9.6-0.2-14.3-1c-5.4-1-9.8-4.2-9.9-10.2
		c-0.1-6.7,5.6-7.8,10.7-8.8C225,513.4,227.3,513.7,229.5,513.7z"/>
	<path class="st0" d="M233.6,436.9c34.6,1.2,67,11.8,99.6,22.3c33.9,10.9,63.3,28.8,90,51.6c4.5,3.9,12.8,7.4,5.8,15.6
		c-6.3,7.3-12.6,5-19.1-0.4c-37.3-30.5-80.4-49.8-126.6-61.9c-15.8-4.1-32.8-3.7-49.2-5.3c-3.3-0.3-6.7-0.3-9.8-1.2
		c-5-1.4-8.4-4.8-8.1-10.4c0.3-6,4.3-9.1,9.8-10.3C228.3,436.4,231,436.9,233.6,436.9z"/>
</g>
</svg>
