<?xml version="1.0" encoding="utf-8"?>
<!-- Generator: Adobe Illustrator 21.0.0, SVG Export Plug-In . SVG Version: 6.00 Build 0)  -->
<svg version="1.1" id="Layer_1" xmlns="http://www.w3.org/2000/svg" xmlns:xlink="http://www.w3.org/1999/xlink" x="0px" y="0px"
	 viewBox="0 0 1197.1 1280" style="enable-background:new 0 0 1197.1 1280;" xml:space="preserve">
<style type="text/css">
	.st0{fill:#FFFFFF;}
</style>
<g>
	<path d="M688.7,0c36.2,36.9,72.6,73.6,108.8,110.5c46.8,47.5,93.6,95,140.4,142.5c1.9,1.9,4.1,4.9,4.1,7.4
		c0.4,26.5,0.2,53,0.2,80.3c-3,0.2-5.7,0.5-8.1,0.5c-107.9,0-215.8,0-323.7,0.2c-6,0-7.9-1.4-7.9-7.9c0.7-79.1,0.9-158.4,1.4-237.5
		c0-3.2,0-6.4,0-10.2c-3.4-0.2-6-0.4-8.7-0.4c-165.6,0-331.3,0-496.7-0.2c-7.4,0-9,2.3-9,9.4c0.2,363.6,0.2,727.4,0,1091
		c0,7.9,2.3,9.4,9.7,9.4c249.5-0.2,499-0.2,748.6-0.2c9.5,0,9.5,0,9.5-9.9c0-78.9,0.2-157.9-0.2-236.8c0-7.8,2.1-9.5,9.7-9.5
		c22.3,0.5,44.5,0.2,66.8,0.2c2.6,0,5.5,0,9.2,0c0,114.3,0,227.8,0,341.3c-312.7,0-625.3,0-938.2,0c0-426.6,0-853.5,0-1280.1
		C232.3,0,460.4,0,688.7,0z M689.4,122.2c0,45.4,0,89.4,0,133.3c43.4,0,86.4,0,130.5,0C776.2,210.7,733.2,166.9,689.4,122.2z"/>
	<path d="M1196.8,512.6c-5.7,18.5-18.4,32.5-31.3,45.9c-51.2,53-102.8,105.6-154.7,157.9c-99.2,99.9-199,199.5-298.8,299
		c-3.7,3.7-8.7,6.7-13.6,8.5c-86.4,28.8-172.9,57.4-259.4,86c-3.7,1.2-7.6,2.3-12.5,3.7c0.7-3.2,1.1-5.3,1.6-7.2
		c29.5-89.5,59.2-179.2,88.8-268.8c0.9-3,3-5.8,5.3-7.9C640.9,711.3,759.6,593,878.6,474.9c38.3-38,77-75.6,115.7-113.2
		c24.7-24.2,65.9-27,92.4-4.8c36.4,30.6,69.4,64.6,99.8,101.4c5.1,6.2,6.4,15.9,9.2,24c1.1,3,1.1,6.4,1.6,9.4
		C1196.8,498.7,1196.8,505.6,1196.8,512.6z M630.5,845.3c20.5,20.5,41.1,41.1,62,61.5c1.1,1.1,5.7,0.2,7.2-1.2
		c11.5-10.6,23-21.5,34.1-32.7c88.5-88.1,176.9-176.2,265.4-264.5c1.8-1.8,3.4-3.5,4.1-4.4c-21.9-22.4-43.4-44.5-65.7-67.5
		C835.1,639.4,732.9,742.2,630.5,845.3z M999,477.9c21.7,20.7,44.1,41.9,66.2,62.5c14.7-14.7,29.1-29.1,41.5-41.3
		c-21-22.1-42.2-44.3-64.1-67.3C1028.1,447.1,1014,462.1,999,477.9z M561.6,976.2c0.7,0.7,1.4,1.6,2.3,2.3
		c19.2-6,38.5-12.2,58.5-18.5c-14.5-14.3-28.1-27.5-42.6-41.9C573.4,937.7,567.6,956.9,561.6,976.2z"/>
	<path d="M174.9,596.7c0-28.1,0-55.8,0-84.1c170.2,0,340.1,0,510.7,0c0,27.9,0,55.6,0,84.1C515.5,596.7,345.6,596.7,174.9,596.7z"/>
	<path d="M515.2,683.4c0,28.1,0,55.8,0,84.2c-113.4,0-226.4,0-339.9,0c0-27.9,0-55.8,0-84.2C288.2,683.4,401.3,683.4,515.2,683.4z"
		/>
	<path d="M430,938.4c-85.3,0-169.9,0-254.8,0c0-28.3,0-56.2,0-84.4c84.8,0,169.5,0,254.8,0C430,881.9,430,909.6,430,938.4z"/>
	<path d="M174.9,1108.8c0-28.3,0-56,0-84.2c56.5,0,113,0,169.9,0c0,28.1,0,55.8,0,84.2C288.1,1108.8,231.7,1108.8,174.9,1108.8z"/>
	<path class="st0" d="M689.4,122.2c43.8,44.7,86.7,88.5,130.5,133.3c-44.3,0-87.1,0-130.5,0C689.4,211.6,689.4,167.6,689.4,122.2z"
		/>
	<path class="st0" d="M630.5,845.3C733.1,742,835.1,639.4,937.4,536.7c22.3,22.8,43.8,44.9,65.7,67.5c-0.7,0.7-2.3,2.6-4.1,4.4
		c-88.5,88.1-176.9,176.4-265.4,264.5c-11.1,11.1-22.4,22.1-34.1,32.7c-1.6,1.4-6.2,2.3-7.2,1.2
		C671.4,886.5,650.8,865.8,630.5,845.3z"/>
	<path class="st0" d="M999,477.9c14.8-15.7,29-30.7,43.4-46.1c21.9,23,43.1,45.4,64.1,67.3c-12.2,12.2-26.7,26.7-41.5,41.3
		C1043.2,519.7,1020.7,498.5,999,477.9z"/>
	<path class="st0" d="M561.6,976.2c6-19.2,12-38.5,18-58.1c14.5,14.3,28.1,27.5,42.6,41.9c-20,6.4-39.2,12.4-58.5,18.5
		C562.8,977.8,562.3,976.9,561.6,976.2z"/>
</g>
</svg>
