<svg xmlns="http://www.w3.org/2000/svg" viewBox="0 0 810.52 529.47"><defs><style>.cls-1{fill:#fff;}</style></defs><title>Asset 1</title><g id="Layer_2" data-name="Layer 2"><g id="Layer_1-2" data-name="Layer 1"><path class="cls-1" d="M810.42,398.43c0,17.2-.2,34.5.1,51.7.2,10.8-3.1,15.5-14.2,16.4-85.1,7-169.5,21-254.3,30.3-27.7,3-55.2,7-82.9,10.5-2.9.4-5.3.9-7.6,3.4-24.1,25.3-66.7,24.9-92-.7-2.1-2.1-4.3-2.4-6.8-2.7-84.7-10.7-169.3-21.7-254.1-31.9-28-3.4-55.9-8.1-84.2-8.8-10.9-.3-14.7-5.8-14.4-16.2,1.4-55.8,4.3-111.4,8.1-167.1,3.1-46.1,5.2-92.3,7.8-138.4,1.2-21.2,2.7-42.4,4-63.6.6-9.1,6.8-10.8,13.9-9.7,12.3,1.9,24.6,4.3,36.6,7.3,6,1.5,8.1.1,8.4-5.7.9-17.2,1.8-34.4,3.1-51.6C83,7,90,1.13,104.82.53c40.6-1.7,80.1,5.1,119.8,13.1,32.7,6.6,64.1,16.2,92.8,32.6,28.2,16.2,56.9,32,80.1,55.4,5.4,5.4,8.9,6.3,15.3.6,41-36.3,86.7-65.7,139.7-80.5,50.8-14.2,102.8-24.2,156.2-21.2,12.6.7,20.1,8.7,21,22.3,1,16.5,2,32.9,2.5,49.4.2,6.3,1.4,8.6,8.3,6.8,11.3-2.9,22.9-4.8,34.4-7.1s16.3,1.3,17,13.4c1.7,29.6,3.4,59.3,5,88.9q5.85,106.5,11.8,213c.2,3.7,0,7.3,0,11A4.68,4.68,0,0,0,810.42,398.43Zm-385,63.1c2.4-.9,3.5-1.1,4.2-1.7,34.3-31.1,74.6-51.4,118.4-65,49.3-15.3,99.8-24,151.5-23.9,8.8,0,11.2-2.4,10.6-11.2-3.2-45-6.9-90-8.4-135q-3.15-90.3-8.3-180.4c-.5-8.3-3.6-9.9-10.7-9.1-16,1.7-32.2,2.6-48.1,4.9-47.1,6.9-92.3,20.7-134.5,42.8-24.3,12.7-45.2,31.2-66.6,48.4-5.9,4.7-8.5,10.9-8.4,19.2.6,34.2.2,68.3.2,102.5C425.42,322,425.42,391.13,425.42,461.53Zm-40.4,1.3c.4-4,.6-5.4.6-6.8q0-153.75.2-307.5c0-8.7-4.6-14.1-10.2-18.3-32-24.3-63-49.8-102-63.8-48.1-17.3-96.9-28.9-147.9-30.9-5-.2-7.3,1.1-7.5,6.5-.3,10.3-1,20.5-1.8,30.8-7.4,94.8-7.6,190-15.2,284.9-.7,9.4,1,13.2,11.9,13.3,63,.5,123.9,11.8,182.3,36.1,9.8,4.1,20.2,6.3,29.2,12.5C344.52,433,366.22,443.93,385,462.83Zm-108.5-21.2c-2.9-5.8-6.6-7.1-9.8-8.2-32.4-10.9-65.2-20-99.4-23-28.2-2.4-56.5-2.4-84.8-2-15.1.2-23.2-8.3-22.8-23.2.1-3.3.3-6.6.5-9.9q8.25-135.3,16.5-270.5c.9-15.7.8-15.5-14.4-12.1-5.3,1.2-7.4,3.5-7.2,9,.2,7-.2,14-.6,20.9C48,227.43,41.62,332.23,34.72,437c-.7,10,3.3,10.1,10.5,8.3,24.6-6.2,49.8-9.6,75-12C171.92,428.43,223.92,426.63,276.52,441.63Zm264.1-4.3c23.3-5.5,46-8.9,69-9.5A646.3,646.3,0,0,1,765.92,443c9.3,2,11.2-.5,10.5-9.6-2.5-31.1-4.3-62.3-6.3-93.4-4.2-67.4-8.2-134.9-12.4-202.3-.8-13.2-1.7-26.4-2.8-39.6-.9-11.5-10.9-7.3-17.1-8.9-5.1-1.4-4.3,3.3-4.1,6.6q4.05,71.55,8.2,143c2.9,49.5,6,99,8.8,148.4.7,12.5-7.5,20.6-20.1,21.2-3.3.2-6.6,0-9.9-.1-58-1.8-115.1,3.4-170.3,22.8C547.22,432.33,543,432,540.62,437.33Z"/><path class="cls-1" d="M650.52,82.53a9.92,9.92,0,0,1,10,9.5c.7,9.2-6.6,11.5-13.9,12a331.64,331.64,0,0,0-79.6,15.3c-25.1,8.2-50.3,16.4-71.8,32.3-9.7,7.2-18.6,15.5-27.5,23.5-5.9,5.3-12.2,8-18.3,1.6-6.6-7-1.6-12.6,3.8-17.6,36.6-34.2,81.3-52.6,128.5-65.9C603.22,87.13,625.42,84.43,650.52,82.53Z"/><path class="cls-1" d="M640.12,297h18.7c6.6.1,13.3,1,13.4,9.4.1,7.9-6.3,10.2-12.9,10.7-11,.8-22,.7-33,1.8-38.3,3.9-74.3,15.5-109.4,31.3-15.2,6.8-29.4,14.5-42.2,25.1-6.2,5.2-13.2,8.2-19.1.4-6.5-8.6.8-13.7,6.8-17.7,37.4-24.4,77.1-43.6,121-53.3C602.22,300.63,620.92,297.63,640.12,297Z"/><path class="cls-1" d="M644.22,152.53c2,0,5.7-.1,9.4,0,6,.2,9.8,3.3,10.2,9.3.4,6.6-3.3,10.3-9.7,11-16.7,1.9-33.5,3.2-50.2,6.1A293.5,293.5,0,0,0,496,220.73c-8,5.1-15,11.7-22.7,17.4-2.6,1.9-5.5,4-8.5,4.7-5.3,1.3-11.5,2.2-15-3.4-3.9-6.3,1.1-10.3,5.4-13.7,22.8-18.4,46.7-34.5,74.9-44.8,31.8-11.7,63.4-22.5,97.1-26.7C632.32,153.53,637.42,153.13,644.22,152.53Z"/><path class="cls-1" d="M648.62,223.23h5.5c7.1.2,13.9,1.7,14.2,10.3.3,9.7-7.5,9.4-14.2,9.3-55.9-1.1-106.6,16.9-154.9,43.1-10.2,5.5-19.8,12.4-29.3,19.2-6.5,4.6-12.3,4.9-17.3-1.4-5.6-7,.9-10.7,5.3-14.2,32.5-26.1,69-43.4,109.6-53.2C594.22,229.83,620.92,223.63,648.62,223.23Z"/><path class="cls-1" d="M167.42,79.83c50.9,3.9,97.9,20.1,142.5,44.5,16.6,9.1,30.9,20.6,44.8,33.1,6.2,5.6,11.8,11.9,4.1,19.3-7.3,7.1-14.1,2.1-19.8-3.9-16.1-16.9-34.5-30.9-56-39.9-35.5-15-71.8-27.4-110.6-31-4.4-.4-8.7-1.2-13-1.9-6.7-1-11.2-4.6-10.3-11.7s6.1-9.5,12.8-9.1A54.29,54.29,0,0,0,167.42,79.83Z"/><path class="cls-1" d="M163.22,148.23c39.1,3.4,74.9,13.8,110.2,28.1,27.6,11.2,52.9,24.9,75.2,44.3,5.9,5.2,15.8,9.6,9.5,20.2-3.5,5.8-15,4.4-23.5-3.7-21.2-20-46.5-33.4-72.9-44.3-29.8-12.3-61.5-18.9-93.7-22.4-3.6-.4-7.3-.5-10.9-1.1-6.5-1.1-11.5-4.5-10.8-11.5.7-6.7,5.7-9.9,12.5-9.7A35.85,35.85,0,0,0,163.22,148.23Z"/><path class="cls-1" d="M156.82,293.73c55-.5,105.9,14.6,153.8,40.6,13.5,7.3,26.1,16.2,38.9,24.7,6.1,4.1,11.4,9.6,5.4,17.3s-12.6,4.9-19.2-.1c-50.8-38.7-109-57.3-172.1-62.4-4.8-.4-9.6-.2-14.3-1-5.4-1-9.8-4.2-9.9-10.2-.1-6.7,5.6-7.8,10.7-8.8A37.5,37.5,0,0,1,156.82,293.73Z"/><path class="cls-1" d="M160.92,216.93c34.6,1.2,67,11.8,99.6,22.3,33.9,10.9,63.3,28.8,90,51.6,4.5,3.9,12.8,7.4,5.8,15.6-6.3,7.3-12.6,5-19.1-.4-37.3-30.5-80.4-49.8-126.6-61.9-15.8-4.1-32.8-3.7-49.2-5.3-3.3-.3-6.7-.3-9.8-1.2-5-1.4-8.4-4.8-8.1-10.4.3-6,4.3-9.1,9.8-10.3C155.62,216.43,158.32,216.93,160.92,216.93Z"/></g></g></svg>