<svg xmlns="http://www.w3.org/2000/svg" viewBox="0 0 382.81 381.71"><defs><style>.cls-1{fill:#6786ff;}</style></defs><title>Asset 1</title><g id="Layer_2" data-name="Layer 2"><g id="Layer_1-2" data-name="Layer 1"><g id="Layer_2-2" data-name="Layer 2"><g id="Layer_1-2-2" data-name="Layer 1-2"><g id="Layer_2-2-2" data-name="Layer 2-2"><path class="cls-1" d="M382.81,199.44c-.34,3.42-.78,6.83-1,10.26a173.81,173.81,0,0,1-9.79,46,177.06,177.06,0,0,1-21.5,42.85c-5.3,7.6-11.28,14.74-17.28,21.81-12.42,14.62-27.49,26.11-44,35.73a183.86,183.86,0,0,1-63.75,22.49c-7.84,1.28-15.78,2.13-23.71,2.7-25.06,1.81-49.29-2.16-72.77-11a195.25,195.25,0,0,1-58.33-35.1C65.13,330.34,60,325,54.57,319.8c6-4.79,11.48-9.22,17-13.46q30.77-23.48,61.61-46.82c9.84-7.43,19.8-14.68,29.79-21.9a41.65,41.65,0,0,1,7.2-4c4.19-1.9,8.25-.88,10.32,3.13a149.36,149.36,0,0,1,6.6,15.25c3.34,8.75,7.51,17,14.15,23.72,7.58,7.62,17.07,11.26,27.71,12.5a47.76,47.76,0,0,0,26.84-4.46c8.53-4.1,14.55-10.84,19.4-18.77a42.69,42.69,0,0,0,6.48-21.37,40.61,40.61,0,0,0-12.23-30.88c-6.75-6.67-14.43-12.39-21.68-18.56a30.28,30.28,0,0,1-3.66-3.5c-4.89-5.8-4.86-10.78.72-16s11.44-9.91,17.35-14.63Q299.52,130.29,337,100.6a77.51,77.51,0,0,1,8.57-5.9c4.2-2.49,7.77-2,10,2.3,5.25,9.88,10.57,19.8,14.78,30.14a167.87,167.87,0,0,1,12.06,58,8.09,8.09,0,0,0,.36,1.51Q382.81,193,382.81,199.44Z"/><path class="cls-1" d="M198.88,0c2.5.33,5,.76,7.49,1a183.33,183.33,0,0,1,74.22,23.41c7.4,4.18,7.66,6.69,1,12.06-19.48,15.7-39.1,31.25-58.6,46.93-9.79,7.87-19.47,15.86-29.15,23.86a27,27,0,0,0-4,4.25c-3,3.76-3,7.07.37,10.52,3.1,3.17,6.64,5.91,10,8.77,4.29,3.61,8.93,6.86,12.9,10.79,13.19,13,18.74,29.14,13.28,46.82-7.71,25-26.44,36.45-51.08,34.71-20.8-1.47-33.58-13.84-41.64-32-2-4.54-3.44-9.34-5.36-13.93a31.53,31.53,0,0,0-3.7-6.45c-2.34-3.18-5.33-3.89-9-2.27a26,26,0,0,0-5,3q-47.51,35.71-95,71.5c-2.06,1.55-4.08,3.14-6.39,4.92-.43-1.35-.79-2.48-1.16-3.61C-.22,219.49-1.17,194,1,168.28c2.9-34.45,14.26-65.82,35.71-93.09,23.52-30,52.62-52.5,88.75-65.27A176.09,176.09,0,0,1,173.22.52,7.1,7.1,0,0,0,174.84,0h5.35c3,.18,6.05.44,9.07.5a37.67,37.67,0,0,0,4.83-.5Z"/></g></g></g></g></g></svg>