<?xml version="1.0" encoding="utf-8"?>
<!-- Generator: Adobe Illustrator 21.0.0, SVG Export Plug-In . SVG Version: 6.00 Build 0)  -->
<svg version="1.1" id="Layer_1" xmlns="http://www.w3.org/2000/svg" xmlns:xlink="http://www.w3.org/1999/xlink" x="0px" y="0px"
	 viewBox="0 0 919 282.3" style="enable-background:new 0 0 919 282.3;" xml:space="preserve">
<style type="text/css">
	.st0{fill:#FFFFFF;}
</style>
<title>Asset 1</title>
<g>
	<path class="st0" d="M919,265.9c-0.6,1-1.2,2-1.7,3c-3.5,9.2-10.4,13.5-19.5,12c-8.1-1.3-13.8-8.2-13.8-17.7
		c-0.1-17.2,0.2-34.4-0.1-51.6c-0.2-17.6-0.1-35.3-1.7-52.8c-0.7-9-3.4-17.6-7.8-25.5c-12.8-21.7-42.4-22.9-60.8-3.2
		c-8.1,8.4-12.7,19.6-12.8,31.3c-0.4,33.4-0.2,66.8-0.3,100.1c0,10.5-4.1,16.7-12.2,18.9c-11.3,3.1-21.6-4.6-21.7-16.8
		c-0.2-21,0.1-42-0.1-63c-0.1-14.5-0.2-29-1-43.4c-0.4-10.2-4.1-19.9-10.6-27.8c-12.1-14.5-32.2-17.6-48.1-7
		c-15,10-23.6,24.1-23.7,42.6c-0.2,30-0.3,60-0.4,90c-0.1,19.1-0.9,20.4-17.8,27h-2.5c-11-6.2-14.1-15.9-14-28.2
		c0.4-47.4,0-94.8,0-142.3c-0.1-2.1,0-4.2,0.2-6.3c0.8-7.7,6-13,13.3-13.5s13.8,3.5,15.5,10.9c1.3,5.8,1.6,11.8,2.5,19
		c14.3-21.8,32.7-34,58.3-34c26.2,0,43.6,12.9,54.6,36.3c4.7-5.6,8.7-10.9,13.2-15.8c25.7-27.7,71.1-27.6,94.9,0
		c11,12.7,13.4,28.5,15.8,44.3c0.9,5.8,1.7,11.6,2.5,17.5V184c-0.4,1.1-1.2,2.1-1.2,3.2c-0.1,18.9-0.1,37.8,0,56.7
		c0,1.1,0.8,2.1,1.2,3.2L919,265.9z"/>
	<path class="st0" d="M165.1,0c9.9,3.1,12,10.7,12,20c-0.1,70.8-0.1,141.5,0,212.3c0,9.6,0.3,19.3,0.4,28.9
		c0.1,13.3-1.9,16.3-13.6,21.1h-6.3c-14.6-7.5-10.9-21.5-11.4-35.4c-4.4,4.6-7.8,8-11.2,11.6c-11.4,12.2-25.5,19.2-41.8,22.1
		c-2.9,0.5-5.8,1.1-8.7,1.7h-8.8c-1.2-0.6-2.4-1-3.7-1.4c-17.5-2.6-32.8-9.8-45.2-22.6C11,242,3.3,221.9,0.9,199.7
		c-3.3-30.6,2.2-59.3,20.6-84.7c26.7-36.8,85.6-43.7,116.7-9c1.3,1.2,2.6,2.3,4.1,3.3c0-30.5,0.1-60.1-0.1-89.7
		c-0.1-9.2,2.3-16.3,11.6-19.6L165.1,0z M142.7,180.9c-0.5-9.1-0.3-18.1-1.5-27c-2.8-20.6-19.3-37.8-39.2-41.7
		c-22.8-4.4-42.2,3.9-53.7,23.2c-10.9,18.2-15.8,37.8-12.5,59c2.7,17.2,7.4,34,20.8,46c15.5,14,34.2,15.6,52.9,8.6
		c18.3-6.8,28.6-21.5,31.7-40.6C142.6,199.5,142.2,190.1,142.7,180.9z"/>
	<path class="st0" d="M528.9,282.3c-12-4.2-14.7-13.5-14.6-25.2c0.3-34.6,0.2-69.3,0.1-103.9c0-14.7-0.6-29.4-0.7-44
		c-0.1-11.8,8.2-18.7,19.2-16.1c6.7,1.6,10.9,7.3,11.1,15.6c0.2,6.2,0,12.4,1.4,19c0.8-1.5,1.7-2.9,2.4-4.4
		c6.9-13.8,17.1-24.2,31.5-30.3c7.2-3,14.1-1.5,18.9,3.9c4,4.5,5.7,12.6,1.9,17.5c-3.4,4.1-7.8,7.2-12.9,9
		c-19.2,6.7-31.6,19.4-35.8,39.3c-1.6,7.6-2.4,15.3-2.4,23c-0.3,23.7-0.1,47.4-0.1,71.2c0,16.2-2.1,19.5-16.2,25.3L528.9,282.3z"/>
	<path class="st0" d="M258.3,240.2c24-18,47-35.4,70.3-52.6c5.9-4.4,9.1-3,12,3.9c2,4.6,3.5,9.4,5.9,13.9c6.4,12,17,16.4,30,15.2
		c12.4-1.1,20.2-8.6,24.5-19.8c4.5-11.9,0.5-21.8-8.2-30.1c-3.6-3.5-7.8-6.4-11.6-9.6c-5.9-5-6.3-9.2-0.4-14
		c19.7-16,39.5-31.8,59.4-47.6c6-4.7,8.2-4,11.8,2.4c40.9,72.5-3.7,163.8-86,176.8c-39.3,6.2-72.7-5.5-101.8-31.6
		C262.4,245.4,260.9,243.2,258.3,240.2z"/>
	<path class="st0" d="M229.1,195.6c-10.8-42.8-6.8-81.9,22.1-115.7c38-44.3,97-55.5,148.1-29.1c8.5,4.4,8.7,5.8,1,11.9
		c-16.3,13.1-32.7,26.3-49,39.4c-2,1.6-3.9,3.2-5.6,5c-3,2.9-2.8,6,0.3,8.7c4,3.4,8.2,6.5,12.1,10c9,8,13,18.2,10.3,30
		c-2.6,11-9.4,19.1-20.8,22.4c-16.1,4.8-31-2.3-38.3-18c-1.5-3.2-2.5-6.7-4-9.9c-3.1-7.2-5.5-8-11.8-3.3c-18.7,13.9-37.2,28-55.8,42
		C235.2,190.9,232.7,192.8,229.1,195.6z"/>
</g>
</svg>
