<?xml version="1.0" encoding="utf-8"?>
<!-- Generator: Adobe Illustrator 24.0.0, SVG Export Plug-In . SVG Version: 6.00 Build 0)  -->
<svg version="1.1" id="Layer_1" xmlns="http://www.w3.org/2000/svg" xmlns:xlink="http://www.w3.org/1999/xlink" x="0px" y="0px"
	 viewBox="0 0 1000 1000" style="enable-background:new 0 0 1000 1000;" xml:space="preserve">
<style type="text/css">
	.st0{fill:#FFFFFF;}
	.st1{fill:#01A3FE;}
</style>
<g>
	<path class="st0" d="M798.08,473.63c0,94.43-50.66,177.02-126.28,222.07c-38.64,23.03-83.8,36.26-132.05,36.26
		c-48.22,0-93.36-13.21-131.99-36.22c-75.65-45.05-126.34-127.66-126.34-222.11c0-142.67,115.66-258.33,258.33-258.33
		S798.08,330.96,798.08,473.63z"/>
	<g>
		<path class="st1" d="M675.89,674.23c-0.02,7.59-1.45,14.83-4.09,21.47c-38.64,23.03-83.8,36.26-132.05,36.26
			c-48.22,0-93.36-13.21-131.99-36.22c-1.32-3.23-2.36-6.59-3.14-10.06c-0.88-3.89-0.96-8.02-0.97-12.04
			c-0.07-28.17-0.04-56.35-0.04-84.52c0.01,0,0.01,0,0.01,0c0-29.81-0.3-59.62,0.16-89.41c0.17-10.54,4.42-20.24,10.68-28.83
			c8.92-12.25,20.84-19.98,35.7-22.99c3.58-0.72,7.29-1.08,10.94-1.09c52.43-0.07,104.86-0.16,157.29,0
			c24.97,0.08,46.75,15.53,54.66,40c1.77,5.5,2.74,11.5,2.76,17.27C676.01,560.79,676.02,617.51,675.89,674.23z"/>
		<path class="st1" d="M457.03,359.74c-0.14-54.38,35.92-88.47,75.09-91.41c25.81-1.94,48.16,5.89,66.51,24.2
			c14.04,14.01,21.96,31.15,23.48,50.92c1.96,25.47-5.85,47.68-23.98,65.86c-14.78,14.82-32.9,22.87-53.74,24.02
			c-23.63,1.31-44.32-6.36-61.5-22.63C465.75,394.47,457.34,374.25,457.03,359.74z"/>
	</g>
</g>
</svg>
