<?xml version="1.0" encoding="utf-8"?>
<!-- Generator: Adobe Illustrator 24.0.0, SVG Export Plug-In . SVG Version: 6.00 Build 0)  -->
<svg version="1.1" id="Layer_1" xmlns="http://www.w3.org/2000/svg" xmlns:xlink="http://www.w3.org/1999/xlink" x="0px" y="0px"
	 viewBox="0 0 1000 1000" style="enable-background:new 0 0 1000 1000;" xml:space="preserve">
<style type="text/css">
	.st0{fill:#D0D0D0;}
</style>
<g>
	<path class="st0" d="M780.1,698.6c0,57.4,0,114.9,0.1,172.3c0,4.5-1.2,7-5.3,9.5c-33.6,19.9-69.1,35.8-106.1,48
		c-29,9.6-58.7,16.6-89,20.9c-16.9,2.4-33.8,3.8-50.8,5.1c-17.8,1.4-35.6,1.4-53.2,0.5c-24.7-1.3-49.3-3.9-73.7-8.5
		c-25.3-4.8-50.2-10.8-74.5-19c-36-12.1-70.5-27.6-103.2-47.1c-3.5-2.1-4.5-4.2-4.5-8c0.1-68.3,0.1-136.5,0.1-204.8
		c0-45.1-0.1-90.1,0-135.2c0.1-35.6,13.2-65.7,39.4-89.5c18.6-16.9,40.6-27,65.9-29.6c6.3-0.7,12.5-0.8,18.7-0.8
		c105.1,0,210.1,0,315.2-0.1c35.8,0,66,12.9,90.2,39.1c17.2,18.7,27.1,40.9,30,66.3c0.7,6.3,0.8,12.5,0.8,18.7
		C780.1,590.5,780.1,644.5,780.1,698.6z"/>
	<path class="st0" d="M329.7,215.4c-0.2-95,76.4-170.4,169.1-170.9c95.1-0.6,171.6,76.5,171.4,170.1
		c-0.1,94.7-76.1,170.2-170.1,170.4C405.8,385,330.2,308.8,329.7,215.4z"/>
</g>
</svg>
