<?xml version="1.0" encoding="utf-8"?>
<!-- Generator: Adobe Illustrator 21.0.0, SVG Export Plug-In . SVG Version: 6.00 Build 0)  -->
<svg version="1.1" id="Layer_1" xmlns="http://www.w3.org/2000/svg" xmlns:xlink="http://www.w3.org/1999/xlink" x="0px" y="0px"
	 viewBox="0 0 842 821" style="enable-background:new 0 0 842 821;" xml:space="preserve">
<style type="text/css">
	.st0{fill:#FFFFFF;}
	.st1{fill:#1A1A1A;}
</style>
<title>Asset 2</title>
<g>
	<path class="st0" d="M665.3,379c0,101.5-51.1,191.1-129,244.4C488.8,656,431.3,675,369.3,675c-61.9,0-119.4-19-167-51.5
		c-77.9-53.3-129-142.9-129-244.5c0-163.5,132.5-296,296-296C532.8,83,665.3,215.5,665.3,379z"/>
	<g id="Layer_2">
		<g id="Layer_1-2">
			<path class="st1" d="M536.4,623.4C488.8,656,431.3,675,369.3,675c-61.9,0-119.4-19-167-51.5c0-26.3,0-52.6,0-78.9l0,0
				c0-36.7-0.4-73.3,0.2-109.9c0.2-12.9,5.4-24.8,13.1-35.4c11-15,25.6-24.5,43.8-28.2c4.3-0.9,8.8-1.3,13.2-1.3
				c64.5-0.1,128.9-0.2,193.4,0c38.5,0.4,69.7,31.5,70.2,70C536.4,501,536.4,562.2,536.4,623.4z"/>
			<path class="st1" d="M267.9,251.6c-0.1-55,43.6-97.1,92-100.8c31.4-2.5,58.7,7,81.2,29.2c17.5,17.2,27.4,38.4,29.3,62.8
				c2.4,31.1-7,58.3-29.1,80.6c-18.1,18.3-40.4,28.4-66.1,29.7C311.7,356.4,267,304.5,267.9,251.6z"/>
		</g>
	</g>
</g>
</svg>
