<svg xmlns="http://www.w3.org/2000/svg" viewBox="0 0 651.66 626.13"><defs><style>.cls-1{fill:#fff;}</style></defs><title>Asset 1</title><g id="Layer_2" data-name="Layer 2"><g id="Layer_1-2" data-name="Layer 1"><path class="cls-1" d="M275.9,567.8C105.65,493.5,39.61,378.85,12.23,299c-7.78-20.29-10.78-44.58-12-63.46C-7.06,118.2,135.54,13.82,337.27,1.21s306.65,74.89,314,192.2S565.55,413.41,363.83,426q-10.18.63-20.25.94c-43.26,1.33-65,51.09-39.68,83.66a54.4,54.4,0,0,0,8.72,8.64c17,13.89,88.11,71.23,137.29,101.39a3,3,0,0,1-2.45,5.32C394.82,608.86,294.92,576.1,275.9,567.8Z"/></g></g></svg>