<?xml version="1.0" encoding="utf-8"?>
<!-- Generator: Adobe Illustrator 21.0.0, SVG Export Plug-In . SVG Version: 6.00 Build 0)  -->
<svg version="1.1" id="Layer_1" xmlns="http://www.w3.org/2000/svg" xmlns:xlink="http://www.w3.org/1999/xlink" x="0px" y="0px"
	 viewBox="0 0 1065 1280" style="enable-background:new 0 0 1065 1280;" xml:space="preserve">
<path d="M-2.5-5.4v1290.8h1070V-5.4H-2.5z M62.8,1220.1V59.9h939.3l0.1,1160.3H62.8z"/>
<path d="M129.7,130.5v346.8h798.4l0.2-346.8H129.7z M863,411.8H195.2V195.7H863V411.8z"/>
<g>
	<polygon points="317.3,576.6 252.1,576.6 252.1,662 166.7,662 166.7,727.1 252.1,727.1 252.1,812.5 317.3,812.5 317.3,727.1 
		402.7,727.1 402.7,662 317.3,662 	"/>
	<rect x="166.7" y="1051.5" width="235.9" height="65.3"/>
	<rect x="655.3" y="1051.5" width="235.9" height="65.3"/>
	<rect x="655.3" y="930.2" width="235.9" height="65.3"/>
	<polygon points="716,810.4 883.5,581.6 828.6,581.6 661,810.4 	"/>
	<path d="M699.8,679.2c29.2,0,52.9-25.1,52.9-55.9s-23.7-55.9-52.9-55.9s-52.9,25.1-52.9,55.9S670.6,679.2,699.8,679.2z M688,623.6
		c0-8.6,5.4-15.9,11.8-15.9s11.8,7.3,11.8,15.9c0,8.6-5.4,15.9-11.8,15.9C693.5,639.5,688,632,688,623.6z"/>
	<path d="M795.5,760.3c0,30.8,23.7,55.9,52.9,55.9c29.2,0,52.9-25.1,52.9-55.9s-23.7-55.9-53-55.9
		C819.2,704.6,795.5,729.7,795.5,760.3z M836.7,760.3c0-8.6,5.4-15.9,11.8-15.9c6.5,0,11.8,7.1,11.8,15.9c0,7.4-3.6,13.5-8.5,15.3
		c-0.8-0.7-1.8-1.4-2.7-2C845.3,771,836.7,764.8,836.7,760.3z M848.4,776.2v4.5c-0.8-0.7-2.1-1.6-3.6-2.7
		C846,776.8,847.5,776.2,848.4,776.2z M848.4,782.2L848.4,782.2C848.4,782.2,848.4,782.2,848.4,782.2
		C848.4,782.2,848.4,782.2,848.4,782.2z"/>
</g>
</svg>
