<?xml version="1.0" encoding="utf-8"?>
<!-- Generator: Adobe Illustrator 24.0.0, SVG Export Plug-In . SVG Version: 6.00 Build 0)  -->
<svg version="1.1" id="Layer_1" xmlns="http://www.w3.org/2000/svg" xmlns:xlink="http://www.w3.org/1999/xlink" x="0px" y="0px"
	 viewBox="0 0 1000 1000" style="enable-background:new 0 0 1000 1000;" xml:space="preserve">
<style type="text/css">
	.st0{fill:#FFFFFF;stroke:#000000;stroke-miterlimit:10;}
</style>
<path class="st0" d="M635.82,385H308.55c-14.56,0-26.36-11.8-26.36-26.36v-30.91c0-14.56,11.8-26.36,26.36-26.36h327.27
	c14.56,0,26.36,11.8,26.36,26.36v30.91C662.18,373.2,650.38,385,635.82,385z"/>
<path class="st0" d="M635.82,508.64H308.55c-14.56,0-26.36-11.8-26.36-26.36v-30.91c0-14.56,11.8-26.36,26.36-26.36h327.27
	c14.56,0,26.36,11.8,26.36,26.36v30.91C662.18,496.83,650.38,508.64,635.82,508.64z"/>
<path class="st0" d="M635.82,632.27H308.55c-14.56,0-26.36-11.8-26.36-26.36V575c0-14.56,11.8-26.36,26.36-26.36h327.27
	c14.56,0,26.36,11.8,26.36,26.36v30.91C662.18,620.47,650.38,632.27,635.82,632.27z"/>
</svg>
