<?xml version="1.0" encoding="utf-8"?>
<!-- Generator: Adobe Illustrator 21.0.0, SVG Export Plug-In . SVG Version: 6.00 Build 0)  -->
<svg version="1.1" id="Layer_1" xmlns="http://www.w3.org/2000/svg" xmlns:xlink="http://www.w3.org/1999/xlink" x="0px" y="0px"
	 viewBox="0 0 1000 1000" style="enable-background:new 0 0 1000 1000;" xml:space="preserve">
<path d="M505,861.9c-97.6-1.4-180-30.6-249.9-91.4c-77.1-67-120.7-152.1-128.5-254.1c-8.3-107.6,24.1-202.4,96.6-282.3
	c65.5-72.2,148-112.6,245.1-120.6c102.4-8.5,194.1,20.4,272.9,86.4c71.6,60,115.4,137,129,229.4c16.6,112.7-11.5,214.3-85.8,301.2
	C709.9,817.4,613.7,859.2,505,861.9z M500,609.1c0,0,0-0.1,0-0.1c4.3,0,8.7,0,13,0c9.8,0,19.5,0,29.3-0.1c0.6,0,1.8-1.1,1.8-1.7
	c0.2-3.3,0.1-6.6,0.1-9.9c0.1-12.7,3.2-24.6,9.4-35.7c7.1-12.7,16.6-23.3,28.4-31.8c7.8-5.7,15.9-11,23.3-17.2
	c18.1-15.3,32.2-33.9,41.9-55.6c2.6-5.8,4.5-11.8,6.6-17.8c1.3-3.7,2.2-7.6,3.2-11.4c0.9-3.5,2.1-7,2.5-10.6
	c0.8-7.1,1.4-14.3,1.7-21.5c0.2-7.8,0.2-15.6-0.2-23.4c-0.2-4.5-1-8.9-2-13.3c-1.1-4.9-2.7-9.7-3.8-14.7
	c-2.5-11.2-7.4-21.4-12.7-31.4c-5.3-10-11.5-19.6-19.4-27.9c-6.2-6.6-12.5-13.2-19.2-19.2c-9.2-8.2-19.4-15.1-30.5-20.3
	c-8.4-3.9-16.9-7.5-25.6-10.7c-5-1.8-10.4-2.8-15.7-3.8c-6.5-1.2-13-2.1-19.6-2.7c-5.2-0.5-10.5-0.7-15.8-0.6
	c-6.2,0.2-12.4,0.5-18.5,1.4c-6.3,0.9-12.5,2.3-18.6,3.8c-5.6,1.4-11.3,3-16.7,5.1c-6.4,2.5-12.6,5.6-18.8,8.6
	c-9.9,4.9-19.4,10.6-27.7,17.8c-21.3,18.5-37.2,40.9-47.6,67.1c-3.8,9.5-6.4,19.2-8.2,29.2c-1.4,8.3-1.8,16.8-2.6,25.3
	c-0.3,3,0,3.1,3.1,3.1c10.5,0,21.1,0,31.6,0c17.2,0.1,34.3,0.1,51.5,0.3c1.8,0,2.5-0.6,2.4-2.4c-0.3-6.6,1.1-12.9,2.9-19.2
	c1.8-6.4,4.2-12.6,7.9-18c14.7-21.2,34.4-34,60.6-35.2c5.2-0.2,10.6-0.1,15.7,0.9c7.1,1.3,14.2,3.1,20.5,7
	c5.1,3.1,10.4,5.9,14.9,9.6c6.3,5.3,12.2,11.1,15.9,18.6c2.5,5.1,4.8,10.4,6.9,15.7c0.9,2.4,1,5.1,1.6,7.7
	c2.2,10.2,1.8,20.5-0.8,30.5c-1.7,6.6-4.2,13-7,19.2c-5,10.6-12.5,19.3-22.2,26c-8.6,5.9-17.3,11.6-25.4,18.1
	c-15.8,12.6-28.8,27.9-38.8,45.4c-5.1,8.8-9.2,18.2-13.3,27.6c-2.3,5.3-3.5,11.1-5,16.7c-0.9,3.2-1.6,6.4-2.2,9.6
	c-0.8,4.4-1.8,8.8-2.1,13.3c-0.6,8.5-0.7,17-1.1,25.4c-0.1,3.2-0.2,3.3,3.1,3.3C472.5,609.1,486.2,609.1,500,609.1z M555.1,691
	c0.3-30.3-24.9-55.7-55.3-55.6c-30.2,0.1-55,23.5-55.1,55c-0.1,31.4,24,55.4,55.1,55.7C530.4,746.3,555.4,720.7,555.1,691z"/>
</svg>
