<?xml version="1.0" encoding="utf-8"?>
<!-- Generator: Adobe Illustrator 21.0.0, SVG Export Plug-In . SVG Version: 6.00 Build 0)  -->
<svg version="1.1" id="Layer_1" xmlns="http://www.w3.org/2000/svg" xmlns:xlink="http://www.w3.org/1999/xlink" x="0px" y="0px"
	 viewBox="0 0 679.3 557.9" style="enable-background:new 0 0 679.3 557.9;" xml:space="preserve">
<style type="text/css">
	.st0{fill:#01A3FE;}
</style>
<title>Asset 1</title>
<g id="Layer_2">
	<g id="Layer_1-2">
		<path class="st0" d="M595.3,0H84.1C37.7,0,0,37.7,0,84.1l0,0v381.3c0,0,124.3-24.1,212.2-112.1s203.5-6.9,250,131
			S679.3,524,679.3,524V84.1C679.4,37.7,641.8,0.1,595.3,0C595.4,0,595.3,0,595.3,0z M530.4,215.5c-40,0-72.4-32.4-72.4-72.4
			s32.4-72.4,72.4-72.4s72.4,32.4,72.4,72.4C602.8,183.1,570.4,215.5,530.4,215.5L530.4,215.5z"/>
	</g>
</g>
</svg>
