<?xml version="1.0" encoding="utf-8"?>
<!-- Generator: Adobe Illustrator 21.0.0, SVG Export Plug-In . SVG Version: 6.00 Build 0)  -->
<svg version="1.1" id="Layer_1" xmlns="http://www.w3.org/2000/svg" xmlns:xlink="http://www.w3.org/1999/xlink" x="0px" y="0px"
	 viewBox="0 0 561 1000" style="enable-background:new 0 0 561 1000;" xml:space="preserve">
<style type="text/css">
	.st0{fill:#191919;}
</style>
<g>
	<path class="st0" d="M559.4,317c0-4.7,0-9.2-0.1-13.9c0-1.5-1.3-3.2-2.3-4.4c-27.8-28.4-55.8-56.7-83.6-84.9
		c-4.8-4.8-9.5-9.7-14.4-14.6c-16.7-17-33.4-34-50.1-50.8c-0.1-0.1-0.3-0.3-0.4-0.4H0.3v762.8h52.4v-7.9c0-14.5,0-29.1,0-43.6
		c-1.2-0.7-1.6-2.2-1.6-4.8c0-14.8,0-29.7,0-44.5c0-18.3,0-36.8,0-55.1l0,0c0-96.1,0-192.3,0-288.3c0-75.1,0-150.2,0-225.4
		c0-12.3,0-24.5,0-36.8c0-0.4,0-0.9,0-1.3c0.1-3.2,1.3-4.2,5.3-4.2c98.7,0.1,197.4,0.1,296.1,0.1c1.5,0,25.3,0.1,28.6,0.3v-0.3
		l24.9,24l34.3,33.1c15.7,14.5,31.3,29,46.3,44.2h-0.4l0.1,0.1l14.1,32.5l8.1,18.6h0.1v0.3c0,11.4,0,28.7,0,50.1v42.8h1.6
		c0,11.4,0,28.7,0,50.4v227.4c0,70.7,0,138.2,0,180.9v7.9h49.2V351l0,0C559.4,339.4,559.4,328.1,559.4,317z"/>
	<path class="st0" d="M559.4,236.2c0-4.7,0-9.2-0.1-13.9c0-1.5-1.3-3.2-2.3-4.4c-27.8-28.4-55.8-56.7-83.6-84.9
		c-4.8-4.8-9.5-9.7-14.4-14.6c-16.7-17-33.4-34-50.1-50.8c-0.1-0.1-0.3-0.3-0.4-0.4H0.3v762.8h52.4v-7.9c0-14.5,0-29.1,0-43.6
		c-1.2-0.7-1.6-2.2-1.6-4.8c0-14.8,0-29.7,0-44.5c0-18.3,0-36.8,0-55.1l0,0c0-96.1,0-192.3,0-288.3c0-75.1,0-150.2,0-225.4
		c0-12.3,0-24.5,0-36.8c0-0.4,0-0.9,0-1.3c0.1-3.2,1.3-4.2,5.3-4.2c98.7,0.1,197.4,0.1,296.1,0.1c1.5,0,25.3,0.1,28.6,0.3V118
		l24.9,24l34.3,33.1c15.7,14.5,31.3,29,46.3,44.2h-0.4l0.1,0.1l14.1,32.5l8.1,18.6h0.1v0.3c0,11.4,0,28.7,0,50.1v42.8h1.6
		c0,11.4,0,28.7,0,50.4v227.4c0,70.7,0,138.2,0,180.9v7.9h49.2V270.1l0,0C559.4,258.6,559.4,247.3,559.4,236.2z"/>
	<path class="st0" d="M559.4,158.3c0-4.7,0-9.2-0.1-13.9c0-1.5-1.3-3.2-2.3-4.4c-27.8-28.4-55.8-56.7-83.6-84.9
		c-4.8-4.8-9.5-9.7-14.4-14.6c-16.7-17-33.4-34-50.1-50.8c-0.1-0.1-0.3-0.3-0.4-0.4H0.3v762.8h52.4V744c0-14.5,0-29.1,0-43.6
		c-1.2-0.7-1.6-2.2-1.6-4.8c0-14.8,0-29.7,0-44.5c0-18.3,0-36.8,0-55.1l0,0c0-96.1,0-192.3,0-288.3c0-75.1,0-150.2,0-225.4
		c0-12.3,0-24.5,0-36.8c0-0.4,0-0.9,0-1.3c0.1-3.2,1.3-4.2,5.3-4.2c98.7,0.1,197.4,0.1,296.1,0.1c1.5,0,25.3,0.1,28.6,0.3v-0.3
		l24.9,24l34.3,33.1c15.7,14.5,31.3,29,46.3,44.2h-0.4l0.1,0.1l14.1,32.5l8.1,18.6h0.1v0.3c0,11.4,0,28.7,0,50.1v42.8h1.6
		c0,11.4,0,28.7,0,50.4v227.4c0,70.7,0,138.2,0,180.9v7.9h49.2V192.2l0,0C559.4,180.8,559.4,169.5,559.4,158.3z"/>
	<g>
		<path d="M93.8,547.9c0-16.8,0-33.2,0-50.1c125.1,0,250,0,375.3,0c0,16.5,0,33.1,0,50.1C344.2,547.9,219.3,547.9,93.8,547.9z"/>
		<path d="M93.8,665.4c0-16.8,0-33.2,0-50.1c125.1,0,250,0,375.3,0c0,16.5,0,33.1,0,50.1C344.2,665.4,219.3,665.4,93.8,665.4z"/>
		<path d="M92.1,783c0-16.8,0-33.2,0-50.1c125.1,0,250,0,375.3,0c0,16.5,0,33.1,0,50.1C342.6,783,217.6,783,92.1,783z"/>
		<path d="M92.1,900.4c0-16.8,0-33.2,0-50.1c125.1,0,250,0,375.3,0c0,16.5,0,33.1,0,50.1C342.6,900.4,217.6,900.4,92.1,900.4z"/>
		<path d="M561,411.5c0-4.7,0-9.2-0.1-13.9c0-1-0.7-2.3-1.5-3.4c-0.3-0.4-0.6-0.7-0.9-1c-19.3-19.6-38.7-39.4-58-59
			c-8.5-8.6-17.1-17.3-25.6-25.9c-4.8-4.8-9.5-9.7-14.4-14.6c-16.7-17-33.4-34-50.1-50.8c-0.1-0.1-0.3-0.3-0.4-0.4H1.8v762.8h559.1
			V445.4l0,0C561,434,561,422.7,561,411.5z M410.4,315.1c26.1,26.7,51.5,52.7,77.8,79.4h-77.8V315.1z M510.1,948.4
			c0,5.9,0,5.9-5.7,5.9c-148.6,0-297.4,0-446.1,0.1c-4.4,0-5.7-0.9-5.7-5.6c0-12.3,0-24.5,0-36.6v-7.9c0-14.5,0-29.1,0-43.6v-11.4
			l0,0c0-96.1,0-192.3,0-288.3c0-87.4,0-174.7,0-262.1c0-0.4,0-0.9,0-1.3c0.1-3.2,1.3-4.2,5.3-4.2c98.7,0.1,197.4,0.1,296.1,0.1
			c1.6,0,3.2,0.1,5.1,0.3c0,2.3,0,4.2,0,6.2c-0.3,47.2-0.4,94.3-0.7,141.6c0,3.8,1.2,4.7,4.7,4.7c48.5-0.1,96.9-0.1,145.4-0.1h1.6
			c0,11.4,0,28.7,0,50.4v227.4c0,70.7,0,138.2,0,180.9L510.1,948.4L510.1,948.4z"/>
	</g>
</g>
</svg>
