<?xml version="1.0" encoding="utf-8"?>
<!-- Generator: Adobe Illustrator 24.0.0, SVG Export Plug-In . SVG Version: 6.00 Build 0)  -->
<svg version="1.1" id="Layer_1" xmlns="http://www.w3.org/2000/svg" xmlns:xlink="http://www.w3.org/1999/xlink" x="0px" y="0px"
	 viewBox="0 0 1000 1000" style="enable-background:new 0 0 1000 1000;" xml:space="preserve">
<style type="text/css">
	.st0{fill:#01A3FE;}
</style>
<path class="st0" d="M500,76.4L500,76.4c-97.9,0-177.3,79.4-177.3,177.3v137.5c0,97.9,79.4,177.3,177.3,177.3l0,0
	c97.9,0,177.3-79.4,177.3-177.3V253.7C677.3,155.7,597.9,76.4,500,76.4z M619.1,387.8c-1.3,71.8-53.5,119.9-119.1,119.1l0,0
	c-65.8,0-119.1-53.3-119.1-119.1V257c0-65.8,53.3-119.1,119.1-119.1l0,0c65.8,0,119.1,53.3,119.1,119.1V387.8z"/>
<g>
	<path class="st0" d="M723,628.3c-48.4,48.4-109.7,79.1-176.2,88.9c0,0.2,0,0.5,0,0.7v108.5h66.6c26,0,47.9,21.2,47.7,47.2
		c-0.1,12.8-5.3,24.4-13.7,32.8c-8.5,8.5-20.2,13.7-33.1,13.7H386.5c-25.7,0-47.2-20.4-47.6-46.1c-0.4-26.3,20.7-47.7,46.9-47.7
		h67.4V718c0-0.2,0-0.5,0-0.7c-66.5-9.8-127.8-40.6-176.1-88.9c-37.3-37.3-64.1-82.2-78.9-131.3c-6.3-20.9,9.4-41.9,31.2-41.9l0,0
		c14.3,0,26.9,9.4,31.1,23C291.7,580.9,387.3,655.7,500,655.7s208.3-74.9,239.6-177.5c4.2-13.7,16.8-23,31.1-23l0,0
		c21.8,0,37.5,21,31.2,41.9C787.1,546.1,760.3,591.1,723,628.3z"/>
</g>
</svg>
