<?xml version="1.0" encoding="utf-8"?>
<!-- Generator: Adobe Illustrator 21.0.0, SVG Export Plug-In . SVG Version: 6.00 Build 0)  -->
<svg version="1.1" id="Layer_1" xmlns="http://www.w3.org/2000/svg" xmlns:xlink="http://www.w3.org/1999/xlink" x="0px" y="0px"
	 viewBox="0 0 1280 1280" style="enable-background:new 0 0 1280 1280;" xml:space="preserve">
<g>
	<g transform="translate(0.000000,1280.000000) scale(0.100000,-0.100000)">
		<path d="M12766.3,3920.7c-225.9,1507.1-1474.1,2697-3053.9,2911.7c-137,18.4-233.3,26.8-368.8,30c-30.5,0.8-63,1.3-98.4,1.6
			c-100.9,1.1-198.3,1.1-216.8,0c-174.9-9.8-341.4-28.7-502.3-57.3c-332.4-59.1-640.4-159.5-947.6-307
			C6585.4,6022,5879.4,5135.8,5664.9,4097.8c-47.8-230.7-64.7-406.2-64.7-665.4c0-215.8,6.3-305.9,33.9-488.5
			c56.1-375.3,176.3-735,353.2-1066.7c150.7-282.7,342.7-545.3,571.9-780.4c102.5-105.1,212.4-204.7,329.2-298.2
			C7423.3,370.8,8080.3,99.8,8772.3,22c158.2-17.6,234.2-22,427.9-22c202,0,273,3.7,447.6,24.7c1193,140.1,2238,845.9,2777.3,1875.3
			c172.2,329,286,676.7,341.2,1043.8c27.4,181.9,33.7,272.7,33.7,485.7C12800,3643.2,12793.2,3742.4,12766.3,3920.7z M7748.1,2375
			c-79.4,265.1-132.3,556.6-150.4,833.5l-3.9,57.5h1431.8v-922.1l-54.7-3.2c-170.2-10.5-310.7-23.2-445-41.2
			c-132.9-17.8-259.6-40.8-402.9-72c-79.3-17.8-289.4-70.9-297.2-75.7C7821.9,2149.6,7778.6,2274.1,7748.1,2375z M7595.5,3598.6
			v23.7c0,39.1,16.3,214.7,28.8,303.7c23,168,61.3,352.1,106.9,513.2c26.6,94.4,55.2,184.7,58.6,184.7c1.2,0,41.1-10.8,88.4-23.7
			c209.3-58.1,428.1-102.7,647.9-132.7c129.9-17.9,259.9-30.7,388.6-37.9l110.9-6.5v-824.4L7595.5,3598.6L7595.5,3598.6z
			 M8782.9,6264.5c81.6,89.1,232,243.3,238.1,243.3c2.4,0,4.6-394.1,4.6-875v-875.4l-40.5,3.2c-22.5,1.6-77.7,5.5-122.8,8.1
			c-108,7.6-221.3,20.2-336.3,37.3c-65,9.5-130.6,20.7-195.8,33.1c-148.7,28.4-419.5,96.1-419.5,104.6c0,1.6,19.1,44.1,42.8,95.1
			c148.7,319.3,340.2,628.1,572.5,923.1C8606.8,6064.5,8692.5,6165.4,8782.9,6264.5z M7102.9,5801.3
			c360.4,284.4,734.8,477.7,1164.9,601.7c38.8,10.8,212.9,55.4,221.8,56.3c1,0,0-3.2-2.4-6.5c-2.7-3.7-23.5-28.4-47.2-55.2
			c-334.4-376.8-627.2-822.8-819.1-1248.3c-22.5-50.5-42.8-93-44.5-94.6c-8-7.4-329.4,133.7-466.2,205
			c-157,82.2-359.2,201.3-359.2,212.1C6751,5482.5,7030.3,5744.5,7102.9,5801.3z M5956,3633.5c13,258.8,77.7,561,179.7,837.3
			c86.7,234.6,237.6,519,371,698.8l24.7,33.3l73.3-45c40-25.3,110.2-67.2,155.8-93.5c187.6-107.4,371.7-196.5,576.6-279.6
			c60.3-24.7,111.4-46.2,113.8-48.3c2.2-2.1-1.7-22.6-9.7-46.2c-57.9-178.2-113.1-397.8-143.6-576.5
			c-24.2-139.5-51.1-378.4-51.1-449.7c0-17.8-1.7-39.7-3.4-48.9l-4.1-16.6l-642.3,1.1l-642.5,1.6L5956,3633.5z M6453.7,1772.2
			c-23,34.7-45.2,69.7-66.6,104.9c-188.5,310.1-317,641.8-384.4,991.7c-18.5,94.4-37.1,230.7-42.7,305.9
			c-1.7,25.2-4.6,55.9-6.3,68.6l-2.9,22.6h1288.8l3.4-11.8c1.7-6.9,3.4-26.8,3.4-44.6c0-45,14.6-198.1,28.1-300.6
			c34.9-257.6,101.3-538.4,185.8-782.5c15.2-44.6,25.9-83.3,23.7-84.9c-2.4-2.1-35.6-16-74.3-30.5c-99.7-37.9-204.9-83.3-311.6-134
			c-141.4-67.3-285.3-144-422-225.7c-52.3-30.5-96.9-54.2-99.1-51.5C6564.6,1612.9,6488.7,1719.1,6453.7,1772.2z M8300.5,453
			c-460.9,127.5-874.1,342.4-1236.2,643.8c-61.6,51.2-121.8,104.9-180.3,161.3l-78.4,74.6l47.4,29.5
			c184.1,113.8,484.1,260.4,714.4,348.9l47.8,18.2l13.5-27.3c8-15,44.5-87.5,82.3-161.6c77.6-152.2,162.4-299.6,256-443.6
			c134.8-207.9,287.5-408.9,461.8-608.4c38.9-44.4,69.8-81.2,69.8-83.1C8489.6,405.2,8365.2,435.2,8300.5,453z M9025.1,359.7
			l-62.5,61.7C8753,628.6,8557.4,858.6,8387,1096.8c-150.7,210.2-281.8,426.5-386.1,638.9c-24.7,51.5-44.5,96.1-43.4,99.3
			c2.5,5.5,63,22.6,144.4,42.1c85.2,20.5,193.4,43.9,281.8,59.9c45.9,8.2,93.8,16,142.1,23.1c165.1,24.4,336,41,453.5,43.4l46.2,1.1
			v-907.9L9025.1,359.7z M11854.7,5194.4c6.1,4.8,12.9,6.9,15.2,5.8c2.7-1.6,23-29.4,45.6-62.8c185.3-268.8,320.9-551.1,414.9-863.5
			c52.3-175,97.4-414.4,109.9-583.9c1.5-25.3,4.4-55.9,6.1-68.3l2.9-23.1h-1243.1l-4.1,68.8c-18.5,315.6-84.3,664.9-184.1,975.2
			c-15.7,50.5-29.3,95.6-29.8,100.9c-0.5,7.6,22.5,18.7,103,52.1c219.1,90.6,449.9,207.6,654.3,331.6
			C11799.5,5160,11848.5,5190,11854.7,5194.4z M9952.9,6448.7c2.2,0,33.7-7.6,69.3-16.6c510.6-129.5,956.4-358.5,1347.8-691.4
			c74.8-64.4,263.5-245.7,274.2-263.9c4.6-8.7-2.7-15-59.1-50c-138.5-85.9-314.6-180.3-467.9-250.5
			c-103-47.3-243.2-106.9-252.7-106.9c-3.4,0-22.5,35.5-42.8,79.4c-185.3,403.6-450.4,809.9-773.5,1184.1
			c-40.6,46.7-79.4,92.2-86.7,100.2C9953.9,6441.7,9950,6448.7,9952.9,6448.7z M9374.6,5643.6c0,699.8,1.7,885.4,6.8,885.4
			c3.9,0,28.1-20.8,54-46.7c181.4-181.9,262.5-268.8,371-396.6c240.5-284.4,451.6-594.7,605.2-893
			c46.2-89.1,117.2-237.8,114.3-240.5c-5.1-4.8-145.8-43.4-250.5-68.1c-164.9-39.7-288.9-62.8-473-88.5
			c-84.5-11.9-201.5-22.6-381.2-35l-46.7-2.6L9374.6,5643.6L9374.6,5643.6z M9374.6,4423l111.6,6.5
			c357.5,20.3,758.3,88.6,1079.2,183.1c40.5,11.8,76.5,20.8,81.1,20.3c3.9-0.5,12.4-15.5,17.9-33.3
			c92.5-277.5,149.2-544.8,176.3-826.5c4.6-47.3,9-105.3,10.2-128.8l1.7-42.9l-738.7-1.6l-739.3-1.1V4423z M9374.6,3265.9H10856
			l-3.4-38.6c-12.4-155.1-16.4-196-28.8-288.8c-24.7-181.4-64.7-368.7-115.3-542.1c-29.3-97.7-83.3-257.6-87.4-257.6
			c-1,0-31,8.1-65.9,18.2c-199.3,57.5-445.9,109.4-662.6,139.6c-157.7,22-256.2,31-462.8,43.9l-55.2,3.2L9374.6,3265.9
			L9374.6,3265.9z M9634.7,578.1c-116-125.1-236.9-242.6-249.4-242.6c-10.7,0-10.7,20.3-10.7,835.1v835.7l80.6-3.7
			c43.9-2.3,118.2-7.6,164.4-11.9c270.8-25.2,565.8-78.3,799.5-144.8c28.1-7.6,55.2-15.7,60.8-16.6c5.1-1.6,9.5-5.5,9.5-9.2
			c0-12.3-153.6-299.9-212.7-397.6C10097.5,1125,9893.1,856.1,9634.7,578.1z M11513.5,1254.8c-358.2-343.5-779.1-596.8-1251.6-752.4
			c-110.9-36.5-301.8-89.1-301.8-82.7c0,1.1,29.8,36.5,66.4,78.3c302.4,345.1,561.4,729.5,744.4,1103.5
			c29.3,59.6,56.2,107.8,59.6,107.8c3.9,0,47.2-16,96.4-36c177.3-71.8,466-216.2,620.3-311.2l47.4-29.5L11513.5,1254.8z
			 M12446.4,3246c-1.7-11.3-4.6-41.8-6.1-68.8c-30.5-423.9-182.5-893-415.1-1280c-57.9-95.6-176.1-269.9-202-297.4
			c-2.4-2.7-46.7,20.3-99.2,51.5c-231.3,138-515.6,278-717.8,353.7c-27.6,10.2-49.4,21-49.4,24.7s5.1,18.7,11.2,34.4
			c19.8,47.8,84.5,256,110.4,356.4c65.4,251.7,105.8,499.1,121.6,742.3l6.8,103h1243.1L12446.4,3246z"/>
	</g>
	<g>
		<path d="M198.8,545.6c163.8,0,326.7,0,489.7,0c0-26,0-51.3,0-76.8c-163.6,0-326.5,0-489.7,0C198.8,494.6,198.8,520,198.8,545.6z"
			/>
		<path d="M199,701.7c108.9,0,217.3,0,326,0c0-25.8,0-51.3,0-77c-109.1,0-217.6,0-326,0C199,650.7,199,676.2,199,701.7z"/>
		<path d="M199,857.8c81.6,0,162.7,0,244.4,0c0-26.3,0-51.7,0-77.2c-81.8,0-163.1,0-244.4,0C199,806.7,199,832.2,199,857.8z"/>
		<path d="M198.6,1013.8c54.7,0,108.5,0,162.9,0c0-26,0-51.3,0-77c-54.5,0-108.7,0-162.9,0C198.6,962.6,198.6,988,198.6,1013.8z"/>
		<path d="M934.2,238.3c0-2.3-2-5-3.9-6.8c-44.9-43.6-89.8-86.8-134.6-130.4C761,67.5,726.1,33.7,691.4,0H34.7v1170.2h671.8
			c-6.1-5.2-12.2-10.5-18.1-16.1l-7.8-7.4l4.7-2.9c18.5-11.5,48.4-26,71.5-34.9l4.7-1.8l1.4,2.7c0.8,1.5,4.4,8.7,8.3,16.1
			c7.8,15.2,16.3,30,25.6,44.4h42c-15.1-21-28.1-42.6-38.6-63.9c-2.5-5.2-4.4-9.7-4.4-10c0.3-0.5,6.3-2.3,14.4-4.2H709.7
			c-14.1,6.8-28.4,14.4-42.2,22.6c-5.2,3.1-9.7,5.5-10,5.2c-1.2-1.3-8.8-11.9-12.4-17.3c-2.4-3.6-4.6-6.9-6.6-10.5h-40
			c-157.7,0-315.3,0-473.1,0.2c-6.9,0-9.3-1.3-9.3-8.6c0.2-332.4,0.2-664.9,0-997.3c0-6.5,1.5-8.6,8.6-8.6
			c158.8,0.2,317.7,0.2,476.4,0.2c2.5,0,5.1,0.2,8.3,0.3c0,3.6,0,6.5,0,9.4c-0.3,72.3-0.7,144.8-1.4,217.1c0,6,1.9,7.3,7.6,7.3
			c78.7-0.2,157.7-0.2,236.4-0.2c0,41.8,0,157.6,0,287.2c0,27.8,0,56,0,84.4c8.1-10.3,16.6-20.3,25.7-30.3
			c8.1-8.9,23.2-24.4,23.9-24.4c0.2,0,0.5,39.4,0.5,87.5v87.8l-4.1-0.3c-2.2-0.2-7.8-0.5-12.4-0.8c-10.8-0.8-22.2-2.1-33.7-3.7v33.9
			c13,1.8,25.9,3.1,38.9,3.9l11,0.6v82.5h-50v33.3h50v92.2l-5.4,0.3c-16.9,1.1-31,2.3-44.5,4v33.9c16.6-2.4,33.5-4,45.4-4.4l4.6-0.2
			v90.7h31.8V311.7l0,0C934.4,286.7,934.6,262.5,934.2,238.3z M692.1,233.6V111.9c42,40.8,83,80.9,125.1,121.7H692.1z"/>
	</g>
</g>
</svg>
