<?xml version="1.0" encoding="utf-8"?>
<!-- Generator: Adobe Illustrator 21.0.0, SVG Export Plug-In . SVG Version: 6.00 Build 0)  -->
<svg version="1.1" id="Layer_1" xmlns="http://www.w3.org/2000/svg" xmlns:xlink="http://www.w3.org/1999/xlink" x="0px" y="0px"
	 viewBox="0 0 1280 1280" style="enable-background:new 0 0 1280 1280;" xml:space="preserve">
<g>
	<path d="M325.4,512.7c210.5,0,420,0,629.8,0c0-28.4,0-56.1,0-84c-210.3,0-419.9,0-629.8,0C325.4,456.9,325.4,484.7,325.4,512.7z"/>
	<path d="M325.4,710c210.5,0,420,0,629.8,0c0-28.4,0-56.1,0-84c-210.3,0-419.9,0-629.8,0C325.4,654.2,325.4,681.9,325.4,710z"/>
	<path d="M322.7,907.2c210.5,0,420,0,629.8,0c0-28.4,0-56.1,0-84c-210.3,0-419.9,0-629.8,0C322.7,851.6,322.7,879.1,322.7,907.2z"/>
	<path d="M322.7,1104.2c210.5,0,420,0,629.8,0c0-28.4,0-56.1,0-84c-210.3,0-419.9,0-629.8,0C322.7,1048.4,322.7,1076.1,322.7,1104.2
		z"/>
	<path d="M1108.8,260.4c0-2.5-2.1-5.5-4.1-7.4c-46.6-47.7-93.6-95-140.4-142.5C928.2,73.6,891.8,36.9,855.6,0
		C627.3,0,399.2,0,170.9,0c0,426.6,0,853.3,0,1279.9c312.7,0,625.4,0,938.1,0c0-75.4,0-787.6,0-939.3
		C1109,313.4,1109.2,286.9,1108.8,260.4z M856.7,122.4c43.8,44.7,86.7,88.5,130.5,133.3c-44.3,0-87,0-130.5,0
		C856.7,211.7,856.7,167.7,856.7,122.4z M1014.5,1194.6c-249.5,0-499,0-748.4,0.2c-7.2,0-9.7-1.4-9.7-9.4
		c0.2-363.5,0.2-727.3,0-1090.8c0-7.1,1.6-9.4,9-9.4C431,85.5,596.6,85.5,762,85.5c2.6,0,5.3,0.2,8.7,0.4c0,3.9,0,7.1,0,10.2
		c-0.4,79.1-0.7,158.4-1.4,237.5c0,6.5,1.9,7.9,7.9,7.9c82.3-0.2,164.6-0.2,246.8-0.2c0,136.8,0,798.6,0,843.4
		C1024.1,1194.6,1024.1,1194.6,1014.5,1194.6z"/>
</g>
</svg>
