<?xml version="1.0" encoding="utf-8"?>
<!-- Generator: Adobe Illustrator 21.0.0, SVG Export Plug-In . SVG Version: 6.00 Build 0)  -->
<svg version="1.1" id="Layer_1" xmlns="http://www.w3.org/2000/svg" xmlns:xlink="http://www.w3.org/1999/xlink" x="0px" y="0px"
	 viewBox="0 0 1280 1280" style="enable-background:new 0 0 1280 1280;" xml:space="preserve">
<g>
	<path d="M540.2,52.3c10.1,1.1,20.3,2.1,30.4,3.4c89.3,11.2,168.4,46,237,103.9c79.9,67.4,132,152.2,154.6,254.6
		c19.3,87.1,10.7,172-22.2,254.6c-13.4,33.6-30.2,65.4-50.4,96c1.6,1.7,3.2,3.4,4.8,5.1c99.6,99.6,199.2,199.2,298.9,298.7
		c16.9,16.9,27.5,36.4,27.7,60.7c0.2,36.5-25.4,69.4-61.8,79.7c-31.1,8.9-57.5-0.8-79.6-22.2c-38.5-37.4-76-75.7-114-113.7
		c-63.1-63.1-126.1-126.1-189.2-189.2c-0.8-0.8-1.7-1.6-3-2.9c-2.7,1.7-5.5,3.5-8.2,5.3c-53.4,34.4-110.5,59.7-173.3,70.9
		c-50.6,9-101.2,8.8-151.8-0.1C283.5,929.5,149.7,819.9,91.9,671.9c-17-43.4-27.3-88.4-30.2-135c-0.1-1.7-0.7-3.4-1-5.1
		c0-15.8,0-31.6,0-47.4c0.3-1.7,0.8-3.4,1-5.1c3.4-23.6,5-47.6,10.6-70.6c31.6-131.1,106.9-230,223.1-297.6
		c52-30.3,108.3-48.5,168.2-55.5c9.7-1.1,19.5-2.2,29.2-3.3C508.6,52.3,524.4,52.3,540.2,52.3z M226.4,507.7
		c-0.2,157.2,132.1,290,289.3,290.5c157.4,0.4,290.6-132.2,290.8-289.6c0.2-157.5-132.5-290.4-289.9-290.5
		C359.4,218,226.6,350.6,226.4,507.7z"/>
</g>
</svg>
