<svg xmlns="http://www.w3.org/2000/svg" viewBox="0 0 904.48 874.35"><defs><style>.cls-1{fill:#fff;}</style></defs><title>Asset 1</title><g id="Layer_2" data-name="Layer 2"><g id="Layer_1-2" data-name="Layer 1"><path class="cls-1" d="M560.06,0c1.45.53,3.23,1.31,5.09,1.84,11,3.15,22.16,6,33.1,9.43,9.47,3,18.9,6.25,28,10.11C640.16,27.24,653.86,33.5,667.45,40c8.18,3.91,16,8.56,24,12.88,1.46.79,2,1.68,1.22,3.49a96.9,96.9,0,0,0-7.32,30.58c-.26,4.37-1.39,8.74-1.18,13.07,1.05,21.67,6.13,42.33,18.37,60.5a113.21,113.21,0,0,0,18.13,21.06c15,13.45,32.4,23,52.3,27.59,14.77,3.41,29.7,4.55,44.59,2.25,9.33-1.44,18.36-4.8,27.52-7.3.84-.23,1.69-.43,2.77-.71,3.65,6,7.48,11.76,10.83,17.82,3.91,7.07,7.69,14.23,11,21.58,6.3,13.88,12.5,27.81,18.23,41.93,4.1,10.12,7.45,20.54,10.95,30.89,1.56,4.61,2.65,9.38,4,14.07.48,1.73.16,2.94-1.74,3.67-11.79,4.53-22.32,11.28-32,19.26-4.92,4.06-9.12,9-13.41,13.83-10.31,11.52-16.53,25.19-21.4,39.74-5,14.87-5.59,29.9-3.68,45.21a109.58,109.58,0,0,0,19.82,50.4,118.56,118.56,0,0,0,18.94,20.4,109.66,109.66,0,0,0,32.55,19.5c2.54,1,3,2.25,2.21,4.82-3.25,10.7-5.83,21.62-9.52,32.16-4.05,11.55-9,22.8-13.7,34.1-2.69,6.44-5.43,12.88-8.68,19-6,11.45-12.41,22.7-18.69,34a18.71,18.71,0,0,1-3.41,4.83,4.25,4.25,0,0,1-3.65.39,120.24,120.24,0,0,0-52.86-7.9c-18.07,1.41-35.2,6.19-51,15.6a125,125,0,0,0-30.3,25c-11.68,13.31-19.91,28.5-23.77,45.75-5.41,24.24-3.58,48,6.12,71,0,.08,0,.21-.11.73-4.67,2.61-9.49,5.49-14.49,8-9.75,5-19.39,10.32-29.46,14.57-15.78,6.65-31.75,12.94-47.91,18.61C590,867,576.89,870.22,564,874.1c-2.32.7-3.58-.09-4.47-2.09a111.17,111.17,0,0,0-19.73-30.14,109.87,109.87,0,0,0-23.68-19.59,133.18,133.18,0,0,0-30.18-13.61c-11.35-3.53-23-4.62-34.79-4.68a114.84,114.84,0,0,0-57.82,15.29c-7.53,4.25-14.22,10.06-21.09,15.42-9,7.07-15.57,16.28-21.28,26.1-2,3.5-3.89,7.11-5.69,10.74-1.13,2.27-2.34,3.29-5.17,2.44-11-3.31-22.23-6.08-33.19-9.57-9.69-3.08-19.29-6.54-28.69-10.42-14-5.78-27.92-11.81-41.62-18.26-8.7-4.09-17-9.11-25.35-13.83a2.74,2.74,0,0,1-.92-2.47c7.21-18.93,9.89-38.45,7.1-58.51C215.22,745.31,210.7,730.3,202,717a118.63,118.63,0,0,0-15.77-19.6c-11.69-11.45-25.07-20.8-40.5-26.61a119.41,119.41,0,0,0-61.49-6.61c-8.68,1.37-17.12,4.33-25.59,6.84-2.34.7-3.66,1-5.05-1.54-6-11.06-12.16-22.09-18.54-33-7.83-13.33-12.75-27.92-18.89-42C9.23,578.78,4.8,562.25.22,545.74c-.52-1.87-.15-3,1.64-3.67a114.84,114.84,0,0,0,32.67-20c5.67-4.87,10.38-10.89,15.3-16.59C60.58,493,66,478.1,70.35,462.47c3.9-14.15,3.94-28.38,1.29-42.45a116.22,116.22,0,0,0-12.8-35.76,112.44,112.44,0,0,0-22.07-27.6A109.18,109.18,0,0,0,3,335.25C.16,334.13-.4,332.89.5,330c4.57-14.35,8.34-29,13.59-43.08C19.4,272.7,25.7,258.76,32.32,245c5.56-11.53,12.16-22.55,18.38-33.76a26.94,26.94,0,0,1,4.08-5.59c.52-.54,2.15-.28,3.18,0,9.65,2.39,19.15,5.77,28.94,7.07a117.26,117.26,0,0,0,41.93-2.06A118.37,118.37,0,0,0,176.32,188c8.37-6.61,15.37-14.52,22-22.93,8.09-10.31,13.3-21.86,17-34.22a101.93,101.93,0,0,0,2.61-47.12c-1.54-8.86-4.82-17.45-7.61-26.06-.68-2.1.33-2.64,1.57-3.31,8.66-4.72,17.18-9.72,26.05-14,11.25-5.45,22.67-10.6,34.24-15.33,10.42-4.26,21-8.09,31.75-11.53,12.07-3.88,24.36-7,36.51-10.67C342.82,2,344,2.61,345,4.85a112,112,0,0,0,21.36,31.7,116.56,116.56,0,0,0,49.91,31.13,117,117,0,0,0,47,4.78A110.45,110.45,0,0,0,497.36,64,122.73,122.73,0,0,0,534.88,38.9c7.78-7.68,13.63-16.51,18.71-26C555.79,8.76,557.79,4.53,560.06,0ZM451.75,253.34A190.86,190.86,0,0,0,404,259.53a193.7,193.7,0,0,0-57.56,25.36,176,176,0,0,0-34.82,29.67c-6.84,7.5-13.44,15.49-18.57,24.19a332,332,0,0,0-18,36.22c-5.26,12-7.72,25-9.08,38-3.09,29.63-.3,58.54,10.95,86.52a190.07,190.07,0,0,0,27.26,47.29,182.77,182.77,0,0,0,30.92,30.39A176.64,176.64,0,0,0,366.21,597c13.63,6.7,27.61,12.71,42.71,15.29,11.79,2,23.6,4.5,35.49,5.21,26.77,1.61,52.81-2.7,78-12a194.63,194.63,0,0,0,52.26-29.25c14.27-11.06,26.35-24.35,36.84-39,8.42-11.75,14.68-24.79,20.07-38.12,5-12.45,7.71-25.6,9.57-39,2.37-17,1.72-33.91-.81-50.74-2.27-15.13-6.07-29.87-12.89-43.79-5.66-11.54-10.72-23.36-19.08-33.32-6.46-7.7-12.72-15.61-19.55-23-10.54-11.34-22.75-20.58-36.11-28.55A198.77,198.77,0,0,0,515.2,263.4,192.74,192.74,0,0,0,451.75,253.34Z"/></g></g></svg>