<?xml version="1.0" encoding="iso-8859-1"?>
<!-- Generator: Adobe Illustrator 19.0.0, SVG Export Plug-In . SVG Version: 6.00 Build 0)  -->
<svg version="1.1" id="Capa_1" xmlns="http://www.w3.org/2000/svg" xmlns:xlink="http://www.w3.org/1999/xlink" x="0px" y="0px"
	 viewBox="0 0 60 60" style="enable-background:new 0 0 60 60;" xml:space="preserve">
<path d="M30,0C13.458,0,0,13.458,0,30s13.458,30,30,30s30-13.458,30-30S46.542,0,30,0z M22,29c0,1.488-0.548,2.848-1.448,3.898
	l12.716,9.325C34.028,39.78,36.31,38,39,38c3.309,0,6,2.691,6,6s-2.691,6-6,6c-3.131,0-5.705-2.411-5.973-5.474L18.961,34.212
	C18.086,34.711,17.077,35,16,35c-3.309,0-6-2.691-6-6s2.691-6,6-6c1.077,0,2.086,0.289,2.961,0.788l14.065-10.314
	C33.295,10.411,35.869,8,39,8c3.309,0,6,2.691,6,6s-2.691,6-6,6c-2.69,0-4.972-1.78-5.731-4.223l-12.716,9.325
	C21.452,26.152,22,27.512,22,29z"/>
<g>
</g>
<g>
</g>
<g>
</g>
<g>
</g>
<g>
</g>
<g>
</g>
<g>
</g>
<g>
</g>
<g>
</g>
<g>
</g>
<g>
</g>
<g>
</g>
<g>
</g>
<g>
</g>
<g>
</g>
</svg>
