<?xml version="1.0" encoding="utf-8"?>
<!-- Generator: Adobe Illustrator 24.0.0, SVG Export Plug-In . SVG Version: 6.00 Build 0)  -->
<svg version="1.1" id="Layer_1" xmlns="http://www.w3.org/2000/svg" xmlns:xlink="http://www.w3.org/1999/xlink" x="0px" y="0px"
	 viewBox="0 0 1000 1000" style="enable-background:new 0 0 1000 1000;" xml:space="preserve">
<style type="text/css">
	.st0{fill:#FC7E29;}
</style>
<path class="st0" d="M449.3,784.2C279,709.8,213,595.2,185.6,515.3c-7.8-20.3-10.8-44.6-12-63.5c-7.3-117.3,135.3-221.7,337-234.3
	s306.7,74.9,314,192.2s-85.7,220-287.4,232.6c-6.8,0.4-13.5,0.7-20.3,0.9c-43.3,1.3-65,51.1-39.7,83.7c2.5,3.3,5.5,6,8.7,8.6
	c17,13.9,88.1,71.2,137.3,101.4c3,1.8,0.9,6.4-2.5,5.3C568.2,825.2,468.3,792.5,449.3,784.2z"/>
</svg>
