<?xml version="1.0" encoding="utf-8"?>
<!-- Generator: Adobe Illustrator 24.0.0, SVG Export Plug-In . SVG Version: 6.00 Build 0)  -->
<svg version="1.1" id="Layer_1" xmlns="http://www.w3.org/2000/svg" xmlns:xlink="http://www.w3.org/1999/xlink" x="0px" y="0px"
	 viewBox="0 0 1000 1000" style="enable-background:new 0 0 1000 1000;" xml:space="preserve">
<style type="text/css">
	.st0{fill:#666666;}
</style>
<g>
	<path class="st0" d="M517.9,809c-104.8,0-209.6-0.1-314.5,0.1c-19.3,0.1-36.4-19-36.4-36.4c0.3-129.7,0.4-259.3-0.2-389
		c-0.1-16,18.1-35.3,32.5-36.4c9.6-0.7,19.2-1.2,28.8-1.2c198.4,0,396.8,0,595.2,0c17.7,0,32.7,5.3,42.3,21.5
		c2.9,4.8,4.6,9.8,4.6,15.5c0,129.7,0,259.3,0,389c0,19.5-17.6,36.9-37,36.9C728.1,809,623,809,517.9,809z M818.4,578.3
		c0-56.7-0.1-113.4,0.2-170.1c0-6.8-1.6-8.9-8.7-8.8c-54.9,0.3-109.8,0.1-164.7,0.3c-6.7,0-11.8-1.9-17.1-5.8
		c-19.9-14.5-41.9-24-66.5-27.4c-20.7-2.8-41.3-3.5-62.2-1.7c-30.9,2.6-59.1,11.5-83.9,30.4c-3.8,2.9-7.8,4.5-12.9,4.4
		c-58.3-0.2-116.6,0-174.8-0.3c-6.7,0-8.9,1.4-8.9,8.6c0.2,113.7,0.2,227.4,0,341.1c0,6.7,2.1,8.2,8.4,8.2
		c57.2-0.2,114.5-0.1,171.7-0.2c5.2,0,9.5,1.2,13.8,4.3c25.6,17.8,55,26.3,85.1,30.6c21.8,3.1,44.3,2.4,66.5-1.5
		c27.6-4.8,53.6-12.9,76.2-30c3.6-2.7,7.3-3.4,11.6-3.4c52.5,0.1,105.1-0.1,157.6,0.2c7,0,8.7-2,8.6-8.8
		C818.3,691.8,818.4,635,818.4,578.3z"/>
	<path class="st0" d="M396.1,321.2c-11.5,0-23-0.2-34.5,0.1c-4.9,0.1-6.4-1.7-6.2-6.4c1.3-23,8.6-43.7,22.3-62.3
		c24.5-33,57.9-50.3,97.7-57.3c17.5-3.1,35.1-4.8,52.8-4.3c45.5,1.5,86.9,14.4,119.8,47.2c20.2,20.2,33.6,44.9,38.2,73.7
		c1,6.1,0.4,9.6-7.6,9.4c-22.2-0.5-44.4-0.3-66.6-0.1c-4.6,0-6.4-1-7.6-6.1c-8.5-36.7-32.5-52.4-66.7-56.9
		c-21.4-2.8-41.8-0.2-62.3,6c-18.9,5.7-33.8,24.7-36.7,42c-2.5,14.8-2.1,14.9-16.9,14.9C413.3,321.2,404.7,321.2,396.1,321.2z"/>
	<path class="st0" d="M412.3,648.9c8.9,0,17.8,0.1,26.7-0.1c4.1-0.1,5.8,0.9,6.3,5.5c1.7,17,6.8,32.7,21.3,43.5
		c9.1,6.8,19.7,10.5,30.8,12.7c21.2,4.2,42.2,4,63.3-2.3c28.6-8.5,37.6-38.9,27.7-63.2c-3.9-9-11-14.6-18.9-19
		c-18.2-10.4-37.8-17.2-58-22.9c-32.7-9.3-64.6-21.2-90.4-44.4c-19.4-17.4-31.2-39.2-30.9-65.8c0.3-30.4,14.1-54.5,37.8-73
		c21.9-17,47.4-23.8,74.6-26.9c24.5-2.8,48.5-0.9,71.8,6c35.6,10.5,62.3,32.3,76.7,67.2c4,9.7,6.1,20.4,5.7,31.3
		c-0.2,4.4-1.6,5.9-5.9,5.8c-17.8-0.2-35.5-0.1-53.3,0c-3.4,0-5.2-0.8-5.4-4.7c-0.3-4.4-1.3-8.7-2.3-13
		c-5.4-23.5-22.2-35.3-44.1-40.1c-17.4-3.8-35.4-3.9-52.6,1.5c-21.3,6.7-34.5,18.3-36.9,41.4c-1.6,15.8,5.8,28,18.5,36.5
		c19.9,13.4,42.9,19.7,65.5,26.9c27.8,8.8,55.5,18.1,79.2,36.2c24.9,19,38.7,43.7,38.6,75c-0.1,41-17.1,68.4-57,87
		c-27.4,12.8-56.4,16.4-86.1,15c-32.9-1.6-64.1-10.6-90.9-29.7c-24.2-17.3-41.1-40.4-43.6-71.7c-1.1-14.5-1.4-14.5,13-14.5
		C399.8,648.9,406,648.9,412.3,648.9z"/>
</g>
</svg>
