<?xml version="1.0" encoding="utf-8"?>
<!-- Generator: Adobe Illustrator 21.0.0, SVG Export Plug-In . SVG Version: 6.00 Build 0)  -->
<svg version="1.1" id="Layer_1" xmlns="http://www.w3.org/2000/svg" xmlns:xlink="http://www.w3.org/1999/xlink" x="0px" y="0px"
	 viewBox="0 0 16 16" style="enable-background:new 0 0 16 16;" xml:space="preserve">
<style type="text/css">
	.st0{fill:#606060;}
</style>
<path class="st0" d="M1,0L0,1l2.2,3.1C2.4,4.3,2.7,4.5,3,4.5h0.1c0.3,0,0.5,0.1,0.7,0.3l2.7,2.7l-2.6,2.7c-1.6-0.5-3.3,0.4-3.7,2
	C0,12.4,0,12.7,0,13c0,1.7,1.3,3,3,3s3-1.3,3-3c0-0.3,0-0.6-0.1-0.8l2.7-2.6l1,1l-0.3,0.9c-0.1,0.4,0,0.8,0.2,1l3.4,3.4
	c0.4,0.4,1,0.4,1.4,0l1.6-1.6c0.4-0.4,0.4-1,0-1.4l-3.4-3.4c-0.3-0.3-0.7-0.4-1-0.2l-0.9,0.3l-1-1l2.7-2.6c1.6,0.4,3.3-0.5,3.7-2.1
	C16,3.5,16,3.3,16,3c0-0.3,0-0.5-0.1-0.8l-2.1,2.1L12,4l-0.4-1.8l2.1-2.1c-1.6-0.4-3.2,0.5-3.7,2.1c-0.1,0.5-0.1,1.1,0,1.6L7.5,6.5
	L4.8,3.8C4.6,3.6,4.5,3.4,4.5,3.1V3c0-0.3-0.2-0.6-0.4-0.8L1,0z M10.6,10.6c0.2-0.2,0.5-0.2,0.7,0c0,0,0,0,0,0l3,3
	c0.2,0.2,0.2,0.5,0,0.7s-0.5,0.2-0.7,0l-3-3C10.5,11.2,10.5,10.8,10.6,10.6C10.6,10.6,10.6,10.6,10.6,10.6z M3,11l0.5,0.2l0.5,0
	l0.3,0.4L4.7,12l0,0.5L5,13l-0.2,0.5l0,0.5l-0.4,0.3L4,14.7l-0.5,0L3,15l-0.5-0.2l-0.5,0l-0.3-0.4L1.3,14l0-0.5L1,13l0.2-0.5l0-0.5
	l0.4-0.3L2,11.3l0.5,0L3,11z"/>
</svg>
