<?xml version="1.0" encoding="utf-8"?>
<!-- Generator: Adobe Illustrator 24.0.0, SVG Export Plug-In . SVG Version: 6.00 Build 0)  -->
<svg version="1.1" id="Layer_1" xmlns="http://www.w3.org/2000/svg" xmlns:xlink="http://www.w3.org/1999/xlink" x="0px" y="0px"
	 viewBox="0 0 1000 1000" style="enable-background:new 0 0 1000 1000;" xml:space="preserve">
<style type="text/css">
	.st0{fill:#666666;}
</style>
<path class="st0" d="M449.27,784.15C279.02,709.85,212.98,595.2,185.6,515.32c-7.78-20.29-10.78-44.58-11.96-63.46
	c-7.33-117.31,135.27-221.69,337-234.3s306.65,74.89,313.99,192.2s-85.71,220-287.43,232.61c-6.79,0.42-13.54,0.74-20.25,0.94
	c-43.26,1.33-64.95,51.09-39.68,83.66c2.52,3.25,5.54,6.04,8.72,8.64C503.02,749.5,574.1,806.84,623.28,837
	c2.99,1.83,0.88,6.4-2.45,5.32C568.19,825.21,468.29,792.45,449.27,784.15z"/>
</svg>
