<?xml version="1.0" encoding="utf-8"?>
<!-- Generator: Adobe Illustrator 21.0.0, SVG Export Plug-In . SVG Version: 6.00 Build 0)  -->
<svg version="1.1" xmlns="http://www.w3.org/2000/svg" xmlns:xlink="http://www.w3.org/1999/xlink" x="0px" y="0px"
	 viewBox="0 0 500 372.6" style="enable-background:new 0 0 500 372.6;" xml:space="preserve">
<style type="text/css">
	.st0{fill:#E6E6E6;}
	.st1{fill:#E0E0E0;}
	.st2{fill:#FAFAFA;}
	.st3{fill:#F5F5F5;}
	.st4{fill:#F0F0F0;}
	.st5{fill:#FFFFFF;}
	.st6{display:none;}
	.st7{display:inline;}
	.st8{fill:#E58A7B;}
	.st9{fill:#407BFF;}
	.st10{opacity:0.2;}
	.st11{fill:#E8ECF1;}
	.st12{fill:#263238;}
	.st13{fill:#CF6F64;}
	.st14{fill:#DF5753;}
	.st15{opacity:0.56;fill:#FAFAFA;}
	.st16{opacity:7.000000e-02;fill:#407BFF;}
	.st17{opacity:0.47;fill:#407BFF;}
	.st18{opacity:0.1;fill:#FFFFFF;}
	.st19{opacity:0.6;}
	.st20{opacity:0.4;}
	.st21{opacity:0.4;fill:#FFFFFF;}
	.st22{opacity:0.3;fill:#FFFFFF;}
</style>
<g id="Background_complete">
	<g>
		<g>
			<rect y="327.4" class="st0" width="500" height="0.3"/>
			<rect x="91.7" y="342.6" class="st0" width="33.1" height="0.3"/>
			<rect x="62" y="342.6" class="st0" width="19.2" height="0.3"/>
			<rect x="191.4" y="346.3" class="st0" width="19.2" height="0.3"/>
			<rect x="267.4" y="351.8" class="st0" width="43.2" height="0.3"/>
			<rect x="252.2" y="351.8" class="st0" width="6.3" height="0.3"/>
			<rect x="359.7" y="346.3" class="st0" width="93.7" height="0.3"/>
			<g>
				<path class="st0" d="M237,282.8H43.9c-3.1,0-5.7-2.6-5.7-5.7V5.7c0-3.1,2.6-5.7,5.7-5.7H237c3.1,0,5.7,2.6,5.7,5.7v271.4
					C242.7,280.3,240.2,282.8,237,282.8z M43.9,0.3c-3,0-5.5,2.4-5.5,5.5v271.4c0,3,2.4,5.5,5.5,5.5H237c3,0,5.5-2.4,5.5-5.5V5.7
					c0-3-2.4-5.5-5.5-5.5H43.9z"/>
				<path class="st0" d="M453.3,282.8H260.2c-3.1,0-5.7-2.6-5.7-5.7V5.7c0-3.1,2.6-5.7,5.7-5.7h193.1c3.1,0,5.7,2.6,5.7,5.7v271.4
					C459,280.3,456.5,282.8,453.3,282.8z M260.2,0.3c-3,0-5.5,2.4-5.5,5.5v271.4c0,3,2.4,5.5,5.5,5.5h193.1c3,0,5.5-2.4,5.5-5.5V5.7
					c0-3-2.4-5.5-5.5-5.5H260.2z"/>
			</g>
		</g>
		<g>
			<rect x="245.4" y="242" class="st1" width="22" height="87.2"/>
			<polygon class="st2" points="263.2,329.3 267.4,329.3 267.4,317.4 258.8,317.4 			"/>
			<rect x="149.1" y="242" class="st1" width="22" height="87.2"/>
			<rect x="167.4" y="242" class="st2" width="100" height="79.9"/>
			<path class="st1" d="M263.8,246v21.2H171V246H263.8 M264.2,245.6h-93.5v21.9h93.5V245.6L264.2,245.6z"/>
			<polygon class="st2" points="171.6,329.3 167.4,329.3 167.4,317.4 176,317.4 			"/>
			<circle class="st0" cx="217.4" cy="256.5" r="2.2"/>
			<path class="st1" d="M263.8,271.4v21.2H171v-21.2H263.8 M264.2,271h-93.5V293h93.5V271L264.2,271z"/>
			<circle class="st0" cx="217.4" cy="282" r="2.2"/>
			<path class="st1" d="M263.8,296.9V318H171v-21.2H263.8 M264.2,296.5h-93.5v21.9h93.5V296.5L264.2,296.5z"/>
			<circle class="st0" cx="217.4" cy="307.5" r="2.2"/>
		</g>
		<g>
			<rect x="135.6" y="191.4" class="st1" width="22" height="137.9"/>
			<polygon class="st2" points="153.4,329.3 157.6,329.3 157.6,317.4 149.1,317.4 			"/>
			<rect x="53.4" y="191.4" class="st1" width="22" height="137.9"/>
			<rect x="71.8" y="191.4" class="st2" width="85.8" height="130.6"/>
			<path class="st1" d="M153.9,195.1v29.6H75.5v-29.6H153.9 M154.4,194.6H75v30.5h79.3V194.6L154.4,194.6z"/>
			<path class="st1" d="M153.9,228.2v78.4h-37.4v-78.4H153.9 M154.4,227.8h-38.3v79.3h38.3V227.8L154.4,227.8z"/>
			<path class="st1" d="M112.8,228.2v78.4H75.5v-78.4H112.8 M113.3,227.8H75v79.3h38.3V227.8L113.3,227.8z"/>
			<polygon class="st2" points="76,329.3 71.8,329.3 71.8,317.4 80.3,317.4 			"/>
			<circle class="st0" cx="114.7" cy="209.8" r="2.2"/>
			<circle class="st0" cx="122.6" cy="265.6" r="2.2"/>
			<circle class="st0" cx="106.8" cy="265.6" r="2.2"/>
		</g>
		<path class="st1" d="M102.1,152.9h-9.3c0,0,1.6,8.6,1.6,13.6c0,5-7.1,24.8,3,24.8c10.1,0,3-19.8,3-24.8
			C100.5,161.5,102.1,152.9,102.1,152.9z"/>
		<path class="st3" d="M66.8,173.2v6c0,6.7,5.5,12.1,12.1,12.1h6c6.7,0,12.1-5.5,12.1-12.1v-6H66.8z"/>
		<path class="st1" d="M195.7,229.3c0,7,7.8,12.7,17.4,12.7h8.6c9.6,0,17.4-5.7,17.4-12.7H195.7z"/>
		<g>
			<path class="st1" d="M424.6,219.1c-5.2,4.3-12.5,12.1-19.1,23.1c-4.4,7.3-7.1,15-8.2,25.2c0-11.5,0.1-23.9,0.1-35.5
				c1.3-3,4.4-9.9,6.6-15.4c7.3-18.2,10-22.7,16.5-38.4c8.7-21,17.7-45.9,15.1-43.9c-5.2,4.1-25.2,41.5-27.4,46.9
				c-7.4,18.4-9.5,31.9-10.8,44.9c0-11,0.1-21,0.1-28.8c0.1-25.3,0.6-33.5,0.8-36c0.8-1.3,1.8-2.8,2.3-3.6
				c4.7-6.8,6.5-12.6,10.9-22.7c6.3-14.4,11.7-39.8,10.1-38.6c-6.6,5.4-11.8,16.9-18.6,31.5c-6.8,14.7-4.9,23.1-6.2,35.6
				c-0.3,2.5-0.5,11.7-0.7,24.6c-1.8-13.7-5.1-22.7-11.1-30.9c-7.4-10.1-14.6-16.9-19.9-20.5c-5.3-3.6,9.1,21.2,16,32
				c6.1,9.6,11.8,18.1,15,26.5c-0.2,17.4-0.2,39.5-0.2,60c-1.6-9.3-4.2-19.4-7.6-27.2c-4.1-9.4-10.5-23.7-15.6-28.6
				c-1.2-1.2,5.3,26.8,9.5,34.2c4.2,7.4,7.2,14.4,9.9,18.6c0.6,1,2.6,4.8,3.8,6.9c0,25.1,0.1,47.2,0.4,54.7h1.1
				c-0.1-1.9-0.1-14.7-0.1-31.6c2.6-9.2,8.6-19.6,13.5-29.2C416.1,242.7,429.8,214.8,424.6,219.1z"/>
			<g>
				<polygon class="st4" points="412.4,329.3 381.1,329.3 378.7,298.5 414.8,298.5 				"/>
				<polygon class="st3" points="417.1,302.1 376.4,302.1 375.2,291.7 418.3,291.7 				"/>
			</g>
		</g>
		<g>
			<rect x="68.2" y="20.5" class="st1" width="56.1" height="61.5"/>
			<rect x="72.4" y="20.5" class="st3" width="57.9" height="61.5"/>
			
				<rect x="75.5" y="27.2" transform="matrix(-1.836970e-16 1 -1 -1.836970e-16 152.7011 -50.0623)" class="st5" width="51.8" height="48.2"/>
			
				<rect x="88" y="38.9" transform="matrix(-1.836970e-16 1 -1 -1.836970e-16 152.7011 -50.0623)" class="st3" width="26.7" height="24.8"/>
		</g>
		<g>
			<g>
				<rect x="358" y="27.7" class="st1" width="52.1" height="57.2"/>
				<rect x="361.9" y="27.7" class="st3" width="53.8" height="57.2"/>
				
					<rect x="364.7" y="33.9" transform="matrix(-1.836970e-16 1 -1 -1.836970e-16 445.1063 -332.4901)" class="st5" width="48.2" height="44.8"/>
			</g>
			<circle class="st3" cx="388.8" cy="56.3" r="14"/>
		</g>
		<g>
			<g>
				<rect x="140.9" y="57.2" class="st1" width="41.6" height="45.7"/>
				<rect x="144" y="57.2" class="st3" width="42.9" height="45.7"/>
				
					<rect x="146.3" y="62.2" transform="matrix(-1.836970e-16 1 -1 -1.836970e-16 245.592 -85.4451)" class="st5" width="38.5" height="35.8"/>
				<polygon class="st3" points="165.5,70.4 155.7,87.3 175.3,87.3 				"/>
			</g>
		</g>
	</g>
</g>
<g id="Background_simple" class="st6">
	<g class="st7">
		<path class="st3" d="M134.5,182.8C193,243.1,269.9,285,341.2,217.4c36.8-34.8,85.3-128.9,37.4-172c-66.1-59.3-104,37.8-153.4,50.9
			c-33.9,9-62.3-43-102.9-8.3C90.4,115.5,110.1,157.7,134.5,182.8z"/>
	</g>
</g>
<g id="Shadow">
	<ellipse class="st3" cx="250" cy="361.3" rx="193.9" ry="11.3"/>
</g>
<g id="Character_2">
	<g>
		<path class="st8" d="M349.2,108.5l-9.9-4c0,0-13.1,23.9-16.8,25.1c-5.1,1.6-15.7,6.2-21.9,7.1c-0.8,1-2.2,4.1-2.1,5.2
			c8.4,2.8,26.9-0.9,30.8-3.9C338.3,131.3,349.2,108.5,349.2,108.5z"/>
		<g>
			<path class="st9" d="M352.3,103.1c1.8,6.8-8.2,20.6-8.2,20.6l-13.2-7.4c0,0,2.5-5.6,5.5-11.4C341.3,95.6,350.2,95.3,352.3,103.1z
				"/>
			<path class="st10" d="M352.3,103.1c1.8,6.8-8.2,20.6-8.2,20.6l-13.2-7.4c0,0,2.5-5.6,5.5-11.4C341.3,95.6,350.2,95.3,352.3,103.1
				z"/>
		</g>
		<path class="st10" d="M336.2,119.2l5.2,2.9l0.9-15.9C339.3,108.5,337.2,115.5,336.2,119.2z"/>
		<g>
			<path class="st9" d="M343.7,97.9c0,0-10.2,22.7-4.3,65.1c12.1,0,34.4,0,40.3,0c0.6-6.2-1.5-36.3,6.2-65.5c0,0-6.8-1.4-13.4-1.7
				c-5.1-0.2-12.6-0.4-17.1,0C349.4,96.4,343.7,97.9,343.7,97.9z"/>
			<path class="st10" d="M343.7,97.9c0,0-10.2,22.7-4.3,65.1c12.1,0,34.4,0,40.3,0c0.6-6.2-1.5-36.3,6.2-65.5c0,0-6.8-1.4-13.4-1.7
				c-5.1-0.2-12.6-0.4-17.1,0C349.4,96.4,343.7,97.9,343.7,97.9z"/>
		</g>
		<path class="st11" d="M334.3,362.2c-0.1,1.1,15.2,1.9,34.1,1.9s34.3-0.9,34.3-1.9c0.1-1.1-15.2-1.9-34.1-1.9
			C349.8,360.2,334.4,361.1,334.3,362.2z"/>
		
			<rect x="357.8" y="336" transform="matrix(0.9331 -0.3595 0.3595 0.9331 -99.6984 153.0763)" class="st8" width="7.7" height="17.1"/>
		<polygon class="st8" points="393.1,354.5 385.5,354.5 382.8,337.1 390.3,337.1 		"/>
		<path class="st12" d="M385,353.6l8.5,0c0.3,0,0.6,0.2,0.6,0.5l1.1,6.7c0.1,0.7-0.5,1.4-1.2,1.3c-3-0.1-4.4-0.2-8.1-0.2
			c-2.3,0-7,0.2-10.2,0.2c-3.1,0-3.4-3.1-2.1-3.4c5.9-1.3,8.2-3,10.1-4.7C384.1,353.8,384.6,353.6,385,353.6z"/>
		<path class="st12" d="M360,351l8-2.3c0.3-0.1,0.6,0,0.7,0.3l3,6c0.3,0.6-0.1,1.4-0.8,1.6c-2.9,0.8-4.9,1.3-8.5,2.3
			c-2.5,0.7-5.1,1.9-7.6,2.7c-1.7,0.5-5.8,0.6-7.8,0.6c-3.1,0-3.8-3.3-2.5-3.4c3.4-0.4,3.8-0.2,5.7-1.1c3.1-1.5,5.4-2.8,8.1-5.6
			C358.8,351.6,359.3,351.2,360,351z"/>
		<path class="st8" d="M301.8,136.5l-8.3-3.5l-3.4,9.2c0,0,4.8,0.9,10.2,0L301.8,136.5z"/>
		<polygon class="st8" points="287.4,132.8 287.2,138.9 290.1,142.2 293.5,133 		"/>
		<g>
			
				<rect x="356.3" y="336.3" transform="matrix(0.9329 -0.3601 0.3601 0.9329 -98.5179 152.5458)" class="st13" width="7.7" height="8.8"/>
			<polygon class="st13" points="390.3,337.1 382.8,337.1 384.2,346.1 391.7,346.1 			"/>
		</g>
		<path class="st10" d="M338.1,151.5c0.1,1.8,0.3,3.7,0.5,5.6l29.9-9.7c4.7-1.4,8.7-4.3,11.5-8.4c0.1-2.7,0.3-5.5,0.5-8.4
			c0.1-1.4,0.2-2.9,0.4-4.4c0.1-1.5,0.3-3.1,0.5-4.7L338.1,151.5z"/>
		<path class="st5" d="M347.9,118.7l-1-0.1c0.6-5,4.3-8.9,8.3-8.8l0,1C351.7,110.7,348.4,114.3,347.9,118.7z"/>
		<path class="st5" d="M353.2,128c-0.1,0-0.1,0-0.2,0l0-1c3.4,0.1,6.7-3.5,7.2-7.9l1,0.1C360.7,124,357.1,128,353.2,128z"/>
		<path class="st8" d="M371.9,76.5c-1.4,5.5-3.1,15.6,0.6,19.3c0,0-2.5,5.6-12.8,5.6c-9.4,0-4.3-5.6-4.3-5.6c6.2-1.5,6.3-6,5.5-10.3
			L371.9,76.5z"/>
		<path class="st13" d="M367.4,80.2l-6.5,5.3c0.2,1,0.3,2,0.3,3c1.9,1.9,5.7-2.9,6.1-5.4C367.6,82,367.6,80.8,367.4,80.2z"/>
		<path class="st13" d="M349.7,76.5c1,1.7,2.6,2.8,4.2,3.1c2.4,0.5,3.6-1.7,2.9-3.9c-0.6-2-2.6-4.7-5-4.2
			C349.5,71.9,348.6,74.5,349.7,76.5z"/>
		<path class="st12" d="M353.6,58.8c-3.7,1.7-5.1,16.6-0.4,18.8C358,79.8,360.7,55.6,353.6,58.8z"/>
		<path class="st8" d="M373.1,68.3c-0.9,7.5-1,11.8-5,15.7c-6,5.8-15,2.3-16.4-5.1c-1.2-6.7,0.5-17.8,7.9-20.7
			C367,55.2,374,60.8,373.1,68.3z"/>
		<path class="st12" d="M360.8,62.7c5.5-1.4,9.6-2.4,8.2,2.2c-1.9,6.2-4.3,12.1-1.1,12.4c1.9,0.2,10.3-3.4,9.2-7
			c-0.9-3.1,3-4,3.7-5.6c2.6-5.8-4.8-5-3.5-8.5c1.3-3.4-6-9.1-10-6.3c-6.5,4.5-17.7,4.5-11.8-3c4.2-5.3-3.3-4.2-3.3-4.2
			s4.5,2.7-3.1,6.9C340.9,54,348.3,65.9,360.8,62.7z"/>
		<path class="st8" d="M375.9,76.5c-1.2,1.7-3,2.8-4.6,3.1c-2.5,0.5-3.4-1.7-2.5-3.9c0.8-2,3.1-4.7,5.5-4.2
			C376.6,71.9,377.3,74.5,375.9,76.5z"/>
		<path class="st9" d="M339.4,163c0,0-6.8,60.5-7.3,83.5c-0.5,23.9,22.9,98.4,22.9,98.4l12-5c0,0-14-68.1-12-91.5
			c2.1-25.6,10.9-85.3,10.9-85.3H339.4z"/>
		<path class="st10" d="M356.2,179.6c-5.4,11.2-1.8,33.3,1.2,46.4c1.1-9.2,2.4-19.3,3.7-28.6C360.9,183.1,359.8,172.1,356.2,179.6z"
			/>
		<path class="st9" d="M366.5,335.9c0.1,0,1.4,3.8,1.4,3.8l-13.8,5.8l-2.2-4.1L366.5,335.9z"/>
		<path class="st9" d="M353.7,163c0,0,5.2,57.5,8.6,79.1c3.8,23.6,18.5,102.2,18.5,102.2h13.8c0,0-8.3-76.7-9.8-100.1
			c-1.7-25.4-5.1-81.2-5.1-81.2H353.7z"/>
		<path class="st9" d="M394.8,340.7c0.1,0,0.5,3.9,0.5,3.9h-15.2l-1.1-4.4L394.8,340.7z"/>
		<path class="st10" d="M389.5,336.2c-0.1,0-0.1,0-0.1-0.1c-0.1-0.7-7.5-70-8.9-91c-1.5-22.8-4.6-73.3-4.6-73.8
			c0-0.1,0.1-0.1,0.1-0.1c0,0,0,0,0,0c0.1,0,0.1,0.1,0.1,0.1c0,0.5,3.1,51,4.6,73.8c1.4,21,8.9,90.3,8.9,91
			C389.6,336.1,389.6,336.2,389.5,336.2C389.5,336.2,389.5,336.2,389.5,336.2z"/>
		<path class="st12" d="M361.6,70.3c0,0.6-0.4,1.1-0.8,1.1c-0.4,0-0.7-0.5-0.7-1.1c0-0.6,0.4-1.1,0.8-1.1
			C361.4,69.2,361.7,69.7,361.6,70.3z"/>
		<path class="st12" d="M354.8,70.3c0,0.6-0.4,1.1-0.8,1.1s-0.7-0.5-0.7-1.1c0-0.6,0.4-1.1,0.8-1.1
			C354.5,69.2,354.8,69.7,354.8,70.3z"/>
		<path class="st14" d="M356.9,70.6c0,0-1.6,3.5-3.2,5.2c1,1,2.9,0.5,2.9,0.5L356.9,70.6z"/>
		<path class="st12" d="M357.1,78.9c-0.1,0-0.2-0.1-0.2-0.2c0-0.1,0.1-0.2,0.2-0.2c2.7,0,4-1.9,4-1.9c0.1-0.1,0.2-0.1,0.2-0.1
			c0.1,0.1,0.1,0.2,0,0.2C361.4,77,360,78.9,357.1,78.9z"/>
		<path class="st12" d="M362.8,68.5c-0.1,0-0.2,0-0.3,0c-1.3-0.8-2.5-0.3-2.5-0.3c-0.2,0.1-0.4,0-0.5-0.2c-0.1-0.2,0-0.4,0.2-0.5
			c0.1,0,1.6-0.7,3.2,0.3c0.2,0.1,0.2,0.3,0.1,0.5C363,68.4,362.9,68.5,362.8,68.5z"/>
		<path class="st12" d="M352.1,66.5c0,0-0.1,0-0.1-0.1c-0.1-0.1-0.1-0.4,0-0.5c1.4-1.5,3-1.3,3.1-1.2c0.2,0,0.3,0.2,0.3,0.4
			c0,0.2-0.2,0.3-0.4,0.3l0,0c-0.1,0-1.3-0.2-2.4,1C352.4,66.5,352.2,66.5,352.1,66.5z"/>
		<path class="st8" d="M389.7,107.4l-10.4-2.8c0,0-10.2,25.1-13.8,26.7c-4.9,2.2-17.3,9.9-22.6,13.7c-0.3,1.2-0.1,4.6,0.6,5.5
			c9-1.6,26.2-8.3,29.8-11.6C381.6,131.1,389.7,107.4,389.7,107.4z"/>
		<path class="st9" d="M382.5,354.9c-0.6,0-1.1-0.1-1.4-0.4c-0.3-0.2-0.4-0.5-0.3-0.9c0-0.3,0.2-0.4,0.3-0.5
			c0.8-0.4,3.2,1.1,3.5,1.2c0.1,0,0.1,0.1,0.1,0.2c0,0.1-0.1,0.1-0.1,0.1C383.9,354.8,383.2,354.9,382.5,354.9z M381.4,353.4
			c-0.1,0-0.2,0-0.2,0c0,0-0.1,0.1-0.1,0.2c0,0.3,0,0.5,0.2,0.6c0.4,0.3,1.4,0.4,2.7,0.1C383.1,353.9,382,353.4,381.4,353.4z"/>
		<path class="st9" d="M384.4,354.7C384.4,354.7,384.4,354.7,384.4,354.7c-0.8-0.4-2.2-2.1-2-2.9c0-0.2,0.2-0.4,0.6-0.5
			c0.3,0,0.5,0,0.7,0.2c0.8,0.7,0.9,2.9,0.9,3C384.6,354.6,384.6,354.6,384.4,354.7C384.5,354.7,384.4,354.7,384.4,354.7z
			 M383.1,351.6C383,351.6,383,351.6,383.1,351.6c-0.3,0-0.3,0.1-0.4,0.2c-0.1,0.5,0.8,1.7,1.5,2.3c-0.1-0.6-0.2-1.9-0.8-2.4
			C383.4,351.7,383.2,351.6,383.1,351.6z"/>
		<path class="st9" d="M355.9,353.7c-0.7,0.2-1.4,0.2-1.9,0c-0.3-0.2-0.4-0.4-0.5-0.8c0-0.2,0-0.4,0.2-0.5c0.8-0.7,4.1,0.1,4.4,0.1
			c0.1,0,0.1,0.1,0.1,0.2c0,0.1,0,0.1-0.1,0.2C357.6,353.1,356.7,353.5,355.9,353.7z M354.3,352.5c-0.1,0-0.2,0.1-0.3,0.1
			c-0.1,0.1-0.1,0.1-0.1,0.2c0,0.2,0.1,0.4,0.3,0.5c0.5,0.3,1.8,0.1,3.4-0.6C356.5,352.5,355,352.3,354.3,352.5z"/>
		<path class="st9" d="M358.2,352.9C358.1,352.9,358.1,352.9,358.2,352.9c-1-0.2-3.1-1.3-3.1-2.2c0-0.2,0.1-0.5,0.6-0.6
			c0.3-0.1,0.7-0.1,1,0.1c1.1,0.5,1.7,2.5,1.7,2.5C358.3,352.7,358.3,352.8,358.2,352.9C358.2,352.9,358.2,352.9,358.2,352.9z
			 M355.8,350.4c0,0-0.1,0-0.1,0c-0.3,0.1-0.3,0.2-0.3,0.3c0,0.5,1.4,1.5,2.5,1.8c-0.2-0.6-0.7-1.7-1.4-2
			C356.2,350.3,356,350.3,355.8,350.4z"/>
		<path class="st8" d="M343.8,144.4l-10.4,4.8l-1.2,2.9l3.9,2.6c0,0,7.2-0.8,9.2-5.4L343.8,144.4z"/>
		<path class="st12" d="M344.2,150.6c-0.7-3.9-1.9-5.6-1.9-5.7l1.6-1.2c0.1,0.1,1.6,2.1,2.3,6.6L344.2,150.6z"/>
		
			<ellipse transform="matrix(0.9271 -0.3747 0.3747 0.9271 -29.8482 139.6595)" class="st12" cx="344.2" cy="146.6" rx="2" ry="1.6"/>
		<polygon class="st8" points="326.3,153.1 327.7,154.5 337,150.5 333.4,149.2 		"/>
		<path class="st10" d="M366.5,335.9c0.1,0,1.4,3.8,1.4,3.8l-13.8,5.8l-2.2-4.1L366.5,335.9z"/>
		<path class="st10" d="M394.8,340.7c0.1,0,0.5,3.9,0.5,3.9h-15.2l-1.1-4.4L394.8,340.7z"/>
		<g>
			<path class="st9" d="M392.4,104.5c2.8,8.9-8,21-8,21l-14.8-6.1c0,0,2.1-6.4,6.1-15.1C380.2,94.5,389.7,95.5,392.4,104.5z"/>
			<path class="st10" d="M392.4,104.5c2.8,8.9-8,21-8,21l-14.8-6.1c0,0,2.1-6.4,6.1-15.1C380.2,94.5,389.7,95.5,392.4,104.5z"/>
		</g>
	</g>
</g>
<g id="Screen">
	<g>
		<rect x="238.5" y="15.6" class="st9" width="6.4" height="1"/>
		
			<rect x="319.1" y="64.5" transform="matrix(4.499679e-02 -0.999 0.999 4.499679e-02 248.0619 389.4552)" class="st9" width="17.2" height="1"/>
		<polygon class="st9" points="325.6,20.2 207.6,20.2 196.6,266 314.6,266 		"/>
		<polygon class="st15" points="322.1,23.6 204.1,23.6 193.1,269.3 311.1,269.3 		"/>
		<polygon class="st16" points="318.6,27 200.6,27 189.6,272.7 307.6,272.7 		"/>
		<polygon class="st5" points="305.1,134.2 204.4,134.2 203.6,153 304.3,153 		"/>
		<polygon class="st9" points="259.8,120.4 205,120.4 204.7,128.9 259.4,128.9 		"/>
		<polygon class="st5" points="302.9,184.9 202.2,184.9 201.3,203.7 302,203.7 		"/>
		<polygon class="st17" points="284.4,229.1 216.7,229.1 215.7,251.6 283.4,251.6 		"/>
		<path class="st5" d="M279.9,255.1h-67.7c0,0-0.1,0-0.1,0c0,0,0-0.1,0-0.1l1-22.5c0-0.1,0.1-0.1,0.1-0.1h67.7c0,0,0.1,0,0.1,0
			c0,0,0,0.1,0,0.1l-1,22.5C280,255.1,279.9,255.1,279.9,255.1z M212.3,254.9h67.5l1-22.3h-67.5L212.3,254.9z"/>
		<polygon class="st9" points="248,171.2 202.8,171.2 202.4,179.6 247.6,179.6 		"/>
		<path class="st5" d="M283.1,73.4c-0.3,5.6-2.3,10.8-5.6,15.1c-4.9,6.4-12.7,10.6-21.2,10.6c-8.5,0-15.9-4.2-20.2-10.6
			c-2.9-4.2-4.5-9.4-4.2-15.1c0.6-14.2,12.6-25.6,26.8-25.6C272.8,47.8,283.7,59.3,283.1,73.4z"/>
		<path class="st9" d="M285.5,53.2c-0.1,1.5-0.6,2.9-1.5,4c-1.3,1.7-3.4,2.8-5.6,2.8s-4.2-1.1-5.4-2.8c-0.8-1.1-1.2-2.5-1.1-4
			c0.2-3.8,3.4-6.8,7.1-6.8C282.8,46.4,285.7,49.4,285.5,53.2z"/>
		<path class="st12" d="M215.3,143.6c-0.1,1.7-1.5,3-3.1,3c-1.7,0-3-1.3-2.9-3c0.1-1.7,1.5-3,3.1-3
			C214.1,140.5,215.3,141.9,215.3,143.6z"/>
		<path class="st12" d="M228.8,143.6c-0.1,1.7-1.5,3-3.1,3c-1.7,0-3-1.3-2.9-3c0.1-1.7,1.5-3,3.1-3S228.8,141.9,228.8,143.6z"/>
		<path class="st12" d="M242.2,143.6c-0.1,1.7-1.5,3-3.1,3c-1.7,0-3-1.3-2.9-3c0.1-1.7,1.5-3,3.1-3
			C241,140.5,242.3,141.9,242.2,143.6z"/>
		<path class="st12" d="M213,194.3c-0.1,1.7-1.5,3-3.1,3c-1.7,0-3-1.3-2.9-3c0.1-1.7,1.5-3,3.1-3C211.8,191.3,213.1,192.6,213,194.3
			z"/>
		<path class="st12" d="M226.5,194.3c-0.1,1.7-1.5,3-3.1,3c-1.7,0-3-1.3-2.9-3c0.1-1.7,1.5-3,3.1-3
			C225.3,191.3,226.6,192.6,226.5,194.3z"/>
		<path class="st12" d="M240,194.3c-0.1,1.7-1.5,3-3.1,3c-1.7,0-3-1.3-2.9-3c0.1-1.7,1.5-3,3.1-3S240,192.6,240,194.3z"/>
		<path class="st12" d="M253.5,194.3c-0.1,1.7-1.5,3-3.1,3c-1.7,0-3-1.3-2.9-3c0.1-1.7,1.5-3,3.1-3
			C252.2,191.3,253.5,192.6,253.5,194.3z"/>
		<path class="st12" d="M266.9,194.3c-0.1,1.7-1.5,3-3.1,3c-1.7,0-3-1.3-2.9-3c0.1-1.7,1.5-3,3.1-3
			C265.7,191.3,267,192.6,266.9,194.3z"/>
		<g>
			<path class="st9" d="M268.2,64.9c-0.3,5.7-5.1,10.4-10.8,10.4c-5.7,0-10.2-4.6-9.9-10.4c0.3-5.7,5.1-10.4,10.8-10.4
				C264.1,54.5,268.5,59.1,268.2,64.9z"/>
			<path class="st9" d="M277.5,88.5c-4.9,6.4-12.7,10.6-21.2,10.6c-8.5,0-15.9-4.2-20.2-10.6c4.9-4.8,12.6-8,21.1-8
				C265.7,80.5,273.1,83.6,277.5,88.5z"/>
			<path class="st18" d="M268.2,64.9c-0.3,5.7-5.1,10.4-10.8,10.4c-5.7,0-10.2-4.6-9.9-10.4c0.3-5.7,5.1-10.4,10.8-10.4
				C264.1,54.5,268.5,59.1,268.2,64.9z"/>
			<path class="st18" d="M277.5,88.5c-4.9,6.4-12.7,10.6-21.2,10.6c-8.5,0-15.9-4.2-20.2-10.6c4.9-4.8,12.6-8,21.1-8
				C265.7,80.5,273.1,83.6,277.5,88.5z"/>
		</g>
	</g>
</g>
<g id="Character_1">
	<g>
		<g>
			<path class="st8" d="M130.4,157.5c-0.9,2.1-1.9,4.4-2.8,6.6c-0.9,2.2-1.8,4.5-2.5,6.8c-1.5,4.6-2.9,9.2-3.6,13.8l-0.2,1.5
				c0,0.2,0,0.4,0.1,0.7c0.1,0.6,0.5,1.5,1.1,2.3c1.1,1.7,2.7,3.4,4.4,5c1.7,1.6,3.6,3.2,5.5,4.6c1.9,1.5,3.9,2.9,5.9,4.3l-1.9,3.5
				c-4.8-2.1-9.2-4.6-13.5-7.7c-2.1-1.6-4.2-3.3-6-5.7c-0.9-1.2-1.8-2.5-2.4-4.3c-0.3-0.9-0.5-1.9-0.5-2.9c0-0.2,0-0.6,0-0.8l0-0.5
				l0.1-1c0.5-5.3,1.7-10.4,3.3-15.3c0.8-2.5,1.6-4.9,2.6-7.3c1-2.4,1.9-4.7,3.1-7.2L130.4,157.5z"/>
			<path class="st8" d="M136.9,202.5l7.1-3.6l-1.8,7.8c0,0-4.9,1.4-7.1-1L136.9,202.5z"/>
			<polygon class="st8" points="150.5,200.2 148.6,206.6 142.2,206.7 144,198.9 			"/>
			<path class="st14" d="M160.4,120c0,0,0.6,2.3,1.6,4c-0.8,0.8-1.6,0.5-1.6,0.5V120z"/>
			<ellipse class="st12" cx="160.2" cy="119" rx="0.7" ry="1.1"/>
			<path class="st12" d="M160,117.9l1.5-0.4C161.6,117.4,160.8,118.6,160,117.9z"/>
			<path class="st8" d="M140.9,127.4c0.9,4.7,1.8,13.2-1.4,16.3c0,0,1.3,4.7,9.9,4.7c9.5,0,4.5-4.7,4.5-4.7
				c-5.2-1.2-5.1-5.1-4.2-8.7L140.9,127.4z"/>
			<path class="st8" d="M138.4,116.8c0.5,7.8,0.5,11.1,4.4,15.1c5.9,6,15.3,3.7,17.2-4c1.7-7,0.6-18.5-7-21.6
				C145.5,103.1,137.9,109,138.4,116.8z"/>
			<path class="st12" d="M139.1,108c-3.9,1.4-9.1,0.4-7.1,12.4c2.2,12.7-1.2,16.9-1.2,16.9s14.8,3.2,29.9-0.2c0,0-4.6-8.1-3.3-13.9
				c1.6-7.5,0.3-10.3,0.3-10.3S144.6,106,139.1,108z"/>
			<path class="st8" d="M155.6,120.8c0,1.5,0.5,3.1,1.2,4.2c1.1,1.6,2.3,1,2.6-0.7c0.3-1.5,0.1-4.2-1.3-5.2
				C156.9,118.1,155.7,119.1,155.6,120.8z"/>
			<path class="st12" d="M135.8,109.4c-1.1-3.1,4.2-8,15.5-6c11.3,2,11.8,11.4,11.8,11.4l-2.3-2.7l0.1,2.9l-11.6,2.2L135.8,109.4z"
				/>
			<g>
				<path class="st9" d="M136.7,144.2L136.7,144.2c-0.2-1,0.5-1.9,1.5-2c3.5-0.6,11.5-1.8,15.5-1.2c3,0.4,3.8,2.2,3.9,3.6
					c0.1,1.1-0.8,2-1.8,1.9l-17.4-0.8C137.5,145.6,136.8,145,136.7,144.2z"/>
				<path class="st19" d="M136.7,144.2L136.7,144.2c-0.2-1,0.5-1.9,1.5-2c3.5-0.6,11.5-1.8,15.5-1.2c3,0.4,3.8,2.2,3.9,3.6
					c0.1,1.1-0.8,2-1.8,1.9l-17.4-0.8C137.5,145.6,136.8,145,136.7,144.2z"/>
			</g>
			<polygon class="st8" points="146.8,318.9 153.2,323.4 164,308.8 157.6,304.3 			"/>
			<polygon class="st8" points="131.7,318.6 138.5,322.5 148.1,307 141.3,303.1 			"/>
			<g>
				<polygon class="st13" points="164,308.8 158.4,316.3 152,311.8 157.5,304.3 				"/>
				<polygon class="st13" points="141.3,303.1 148.1,307 143.2,315 136.3,311.1 				"/>
			</g>
			<g>
				<path class="st9" d="M152.2,193c0,0,25.2,31.7,20.5,62.1c-3.8,24.5-25.9,57.7-25.9,57.7l-10.4-5.2c0,0,11.3-22.1,18.7-45.4
					c3.1-9.8,1.8-20.6-4-29.1c-12.8-18.6-33.2-7.5-19.4-40.1H152.2z"/>
				<path class="st19" d="M152.2,193c0,0,25.2,31.7,20.5,62.1c-3.8,24.5-25.9,57.7-25.9,57.7l-10.4-5.2c0,0,11.3-22.1,18.7-45.4
					c3.1-9.8,1.8-20.6-4-29.1c-12.8-18.6-33.2-7.5-19.4-40.1H152.2z"/>
			</g>
			<path class="st20" d="M164.5,213.4l-3.7-3.6c0,0.3,7.1,44.1,9.1,56.4c1.2-3.8,2.1-7.5,2.7-11C175,240.3,170.1,225.1,164.5,213.4z
				"/>
			<g>
				<path class="st9" d="M163.4,193c0,0,30.3,39.9,31.2,63.8c0.7,20-33,58.7-33,58.7l-9.8-6.3c0,0,19.7-27.5,24.7-50
					c-1.9-22.3-42.5-66.2-42.5-66.2H163.4z"/>
				<path class="st19" d="M163.4,193c0,0,30.3,39.9,31.2,63.8c0.7,20-33,58.7-33,58.7l-9.8-6.3c0,0,19.7-27.5,24.7-50
					c-1.9-22.3-42.5-66.2-42.5-66.2H163.4z"/>
			</g>
			<path class="st9" d="M125.9,145.5c-3.2,0.8-6.3,12.6-6.3,12.6l12.7,8.5c0,0,4.2-9.3,2.7-13.4C133.5,148.8,130,144.5,125.9,145.5z
				"/>
			<path class="st10" d="M128.4,153l-0.9,10.3l4.7,3.2c0,0,2.2-4.9,2.9-9.1L128.4,153z"/>
			<path class="st9" d="M167.2,145.7c0,0,3.7,1.3-3.7,47.4c-12.6,0-25.7,0-31.9,0c0.5-13,0.5-21-5.6-47.6c0,0,6.7-1.5,13.5-1.8
				c5.4-0.3,9.8-0.4,14.5,0C160.1,144.2,167.2,145.7,167.2,145.7z"/>
			<path class="st8" d="M170.4,153c0.7,2,1.5,4.2,2.3,6.2c0.8,2.1,1.6,4.2,2.4,6.3l2.5,6.3l0.6,1.6l0.3,0.8l0.2,0.4
				c0,0.1,0,0.1,0,0.1c0,0-0.1-0.2-0.7-0.6c-0.3-0.2-0.8-0.4-1.3-0.4c-0.5,0-0.9,0.1-1.1,0.2c-0.5,0.2-0.5,0.3-0.4,0.3
				c0,0,0.1-0.1,0.2-0.2c0.4-0.5,1-1.4,1.4-2.3c0.5-0.9,0.9-1.9,1.4-2.9c0.9-2,1.7-4.1,2.5-6.2c0.8-2.1,1.6-4.2,2.3-6.3l2.3-6.4
				l3.9,1c-0.8,4.6-1.7,9-2.9,13.5c-0.6,2.2-1.2,4.5-2,6.7c-0.4,1.1-0.8,2.3-1.3,3.4c-0.5,1.2-1,2.3-1.9,3.6
				c-0.2,0.3-0.5,0.7-0.9,1.1c-0.4,0.4-0.8,0.8-1.8,1.3c-0.5,0.2-1.2,0.4-1.9,0.4c-0.8,0-1.6-0.3-2.1-0.6c-1.1-0.7-1.5-1.4-1.8-1.9
				c-0.2-0.3-0.3-0.5-0.4-0.7l-0.2-0.4l-0.4-0.8l-0.8-1.6c-1-2.1-2-4.2-2.9-6.3c-0.9-2.1-1.8-4.3-2.7-6.4c-0.8-2.2-1.6-4.3-2.4-6.6
				L170.4,153z"/>
			<path class="st9" d="M167.2,145.7c3.8,0.9,8.1,12.2,8.1,12.2l-11.4,9.7c0,0-7.4-12.3-5.9-16.4C159.6,147,162.2,144.5,167.2,145.7
				z"/>
			<path class="st8" d="M187,146.2l4-3.3l2.8,4.3l-2,3.6c0,0-3.3,3-6.1,1.5l0,0C184.6,150.2,185.2,147.7,187,146.2z"/>
			<polygon class="st8" points="198.2,142.9 197.9,144 191.6,145.1 191,142.9 			"/>
			<polygon class="st9" points="162.4,316.1 151,308.7 153,305.2 165.9,313 			"/>
			<path class="st12" d="M143,322c-0.9,0-2.1-0.6-2.8-1c-0.1,0-0.1-0.1-0.1-0.2c0-0.1,0.1-0.1,0.1-0.2c0.3-0.1,3-0.9,3.8-0.3
				c0.1,0.1,0.3,0.3,0.2,0.6c-0.1,0.4-0.2,0.7-0.6,0.9C143.4,321.9,143.2,322,143,322z M140.7,320.9c1.2,0.6,2.2,0.9,2.7,0.6
				c0.2-0.1,0.3-0.3,0.4-0.6c0-0.2,0-0.2-0.1-0.3C143.3,320.3,141.8,320.6,140.7,320.9z"/>
			<path class="st12" d="M140.2,321c-0.1,0-0.1,0-0.1-0.1c0,0-0.1-0.1,0-0.2c0-0.1,0.7-2.3,1.7-2.8c0.3-0.1,0.6-0.1,0.8,0
				c0.4,0.2,0.5,0.5,0.5,0.7C143,319.6,141.1,320.8,140.2,321C140.3,321,140.3,321,140.2,321z M142.2,318.3c-0.1,0-0.2,0-0.3,0.1
				c-0.6,0.3-1.1,1.5-1.4,2.2c0.9-0.4,2.1-1.4,2.1-1.9c0-0.1,0-0.2-0.2-0.3C142.3,318.3,142.3,318.3,142.2,318.3z"/>
			<path class="st12" d="M157.3,326.3c-1.1,0-2.7-1.4-3.6-2.3c-0.1-0.1-0.1-0.1,0-0.2c0-0.1,0.1-0.1,0.2-0.1
				c0.4,0.1,3.9,0.5,4.4,1.5c0.1,0.2,0.1,0.4,0,0.6c-0.2,0.3-0.5,0.5-0.8,0.6C157.4,326.3,157.3,326.3,157.3,326.3z M154.4,324.1
				c1.3,1.2,2.4,1.9,3,1.8c0.2,0,0.4-0.1,0.5-0.4c0-0.1,0.1-0.2,0-0.2C157.6,324.8,155.8,324.3,154.4,324.1z"/>
			<path class="st12" d="M154.5,324.1c-0.3,0-0.5,0-0.7-0.1c-0.1,0-0.1-0.1-0.1-0.1c0-0.1,0-0.1,0-0.2c0.1-0.1,1.4-1.7,2.7-1.8
				c0.4,0,0.7,0.1,1,0.3c0.4,0.3,0.4,0.6,0.3,0.8C157.4,323.7,155.6,324.1,154.5,324.1z M154.2,323.7c1.1,0.1,2.9-0.3,3.1-0.8
				c0,0,0.1-0.2-0.2-0.4c-0.2-0.2-0.5-0.3-0.8-0.2C155.6,322.3,154.6,323.2,154.2,323.7z"/>
			<path class="st9" d="M140.5,320l-8.5-2.4c-0.3-0.1-0.6,0.1-0.7,0.3l-2.9,6.4c-0.3,0.7,0.1,1.5,0.8,1.7c3,0.8,4.4,1,8.2,2.1
				c2.3,0.6,5.6,1.8,8.7,2.7c3.1,0.9,4.2-2.2,3-2.8c-5.6-2.9-6-5-7.5-7.2C141.4,320.4,141,320.1,140.5,320z"/>
			<path class="st9" d="M153.9,322.8l-7.2-5c-0.3-0.2-0.6-0.1-0.8,0.1l-4.8,5.2c-0.5,0.5-0.4,1.5,0.2,1.9c2.6,1.7,3.9,2.4,7.1,4.6
				c2,1.4,5.9,4.4,8.6,6.3c2.6,1.8,4.7-0.7,3.7-1.7c-4.3-4.6-5.2-7.5-6-10.1C154.6,323.5,154.3,323.1,153.9,322.8z"/>
			<polygon class="st9" points="148.1,313.5 135,307 136.4,303.5 150.3,310.3 			"/>
			<g>
				<path class="st9" d="M131.1,191.2L130,194c-0.1,0.2,0.2,0.4,0.5,0.4h33.1c0.3,0,0.5-0.1,0.5-0.3l0.3-2.9c0-0.2-0.2-0.4-0.5-0.4
					h-32.3C131.4,190.9,131.2,191,131.1,191.2z"/>
				<path class="st21" d="M131.1,191.2L130,194c-0.1,0.2,0.2,0.4,0.5,0.4h33.1c0.3,0,0.5-0.1,0.5-0.3l0.3-2.9c0-0.2-0.2-0.4-0.5-0.4
					h-32.3C131.4,190.9,131.2,191,131.1,191.2z"/>
			</g>
			<g>
				<path class="st9" d="M136.3,194.8h-0.9c-0.2,0-0.3-0.1-0.3-0.2l0.4-3.7c0-0.1,0.2-0.2,0.3-0.2h0.9c0.2,0,0.3,0.1,0.3,0.2
					l-0.4,3.7C136.6,194.7,136.5,194.8,136.3,194.8z"/>
				<path class="st9" d="M156.7,194.8h-0.9c-0.2,0-0.3-0.1-0.3-0.2l0.4-3.7c0-0.1,0.2-0.2,0.3-0.2h0.9c0.2,0,0.3,0.1,0.3,0.2
					l-0.4,3.7C157,194.7,156.9,194.8,156.7,194.8z"/>
			</g>
		</g>
		<g>
			<g>
				<path class="st3" d="M108.8,362.2c0,1.1,11.9,1.9,26.7,1.9c14.8,0,26.8-0.9,26.9-1.9c0-1.1-11.9-1.9-26.7-1.9
					C120.8,360.2,108.8,361.1,108.8,362.2z"/>
				<path class="st1" d="M151.9,359.4c-4.7-1.4-10-3.1-13.2-5c-0.1-0.1-0.2-0.1-0.3-0.1v-21.4h9.5c1.6,0,2.9-1.3,2.9-2.9
					c0-1.6-1.3-2.9-2.9-2.9h-9.5v-97.8h-5.7v97.8h-9.5c-1.6,0-2.9,1.3-2.9,2.9c0,1.6,1.3,2.9,2.9,2.9h9.5v21.4
					c-0.1,0-0.2,0.1-0.3,0.1c-3.2,1.9-8.4,3.7-13.2,5c-1.6,0.5-1.2,2.7,0.4,2.7h15.9h15.9C153.1,362.2,153.4,359.9,151.9,359.4z"/>
			</g>
			<g>
				<path class="st9" d="M153.3,240.3h-35.6c-2.8,0-5.2-2.3-5.2-5.2v-10.6c0-2.8,2.3-5.2,5.2-5.2h35.6c2.8,0,5.2,2.3,5.2,5.2v10.6
					C158.5,238,156.2,240.3,153.3,240.3z"/>
				<g>
					<path class="st9" d="M117.4,240.3v1.8c0,1.5,1.6,2.7,3.6,2.7h29c2,0,3.6-1.2,3.6-2.7v-1.8H117.4z"/>
					<path class="st22" d="M117.4,240.3v1.8c0,1.5,1.6,2.7,3.6,2.7h29c2,0,3.6-1.2,3.6-2.7v-1.8H117.4z"/>
				</g>
			</g>
		</g>
	</g>
</g>
</svg>
