<?xml version="1.0" encoding="utf-8"?>
<!-- Generator: Adobe Illustrator 21.0.0, SVG Export Plug-In . SVG Version: 6.00 Build 0)  -->
<svg version="1.1" xmlns="http://www.w3.org/2000/svg" xmlns:xlink="http://www.w3.org/1999/xlink" x="0px" y="0px"
	 viewBox="0 0 750 235.9" style="enable-background:new 0 0 750 235.9;" xml:space="preserve">
<style type="text/css">
	.st0{fill:#D1E1E8;}
	.st1{fill:#596E53;}
	.st2{fill:#465741;}
	.st3{fill:#42211D;}
	.st4{fill:#7C9973;}
	.st5{fill:#9BBFA0;}
	.st6{fill:#4E8DA6;}
	.st7{fill:#468096;}
	.st8{fill:#78C7E6;}
	.st9{fill:#63A4BD;}
	.st10{fill:#5795AD;}
	.st11{fill:#553E8F;}
	.st12{fill:#41306E;}
	.st13{fill:#E0E0E0;}
	.st14{fill:#7362A1;}
	.st15{fill:#DE5751;}
	.st16{fill:#BD4A45;}
	.st17{fill:#606894;}
	.st18{fill:#565D85;}
	.st19{fill:#6FB8D4;}
	.st20{fill:#376475;}
	.st21{fill:#2E5361;}
	.st22{fill:#606894;stroke:#606894;stroke-width:2;stroke-linecap:round;stroke-linejoin:round;stroke-miterlimit:10;}
	.st23{fill:#6FB8D4;stroke:#6FB8D4;stroke-width:2;stroke-linecap:round;stroke-linejoin:round;stroke-miterlimit:10;}
	.st24{fill:#63A4BD;stroke:#63A4BD;stroke-width:2;stroke-linecap:round;stroke-linejoin:round;stroke-miterlimit:10;}
	.st25{fill:#FFFFFF;}
	.st26{font-family:'Matiz';}
	.st27{font-size:34.6086px;}
	.st28{letter-spacing:1;}
	.st29{fill:#66855D;}
	.st30{fill:#506066;}
</style>
<g id="BACKGROUND">
</g>
<g id="OBJECTS">
	<g>
		<g>
			<g>
				<g>
					<path class="st0" d="M421.7,22.2c-2.8,1.5-4.9,4.7-8,4.8c-2.3,0.1-4.2-1.6-6.3-2.7c-4.3-2.3-9.9-1.7-13.7,1.4
						c-1.6,1.3-2.9,3-4.7,4.1c-3.7,2.2-8.3,1.1-12.4,0.2c-4.2-0.8-9.1-1-11.9,2.4c-1.4,1.8-2,4.3-3.7,5.7c-2.1,1.8-5.2,1.4-7.9,1.5
						c-2.7,0-6,1-6.7,3.8c-0.8,3.6,3.6,6.1,7.1,5.7c3.5-0.4,6.8-2.4,10.3-2c4.5,0.5,8.1,4.7,12.6,4.7c3.9-0.1,7.1-3.3,10.9-3.9
						c6.4-1,12.4,5.6,18.7,4.1c4.2-1,7.3-5.3,11.6-5.4c4.6-0.2,8.4,4.5,13,4.1c3.2-0.3,5.9-3.1,9.1-2.8c1.2,0.1,2.4,0.8,3.6,0.9
						c3,0.4,5.7-1.9,7.9-4.1c0.8-0.7,1.6-1.6,1.6-2.7c0.1-2.1-2.6-2.9-4.6-2.8c-2,0.1-4.6,0.2-5.5-1.7c-0.4-0.9-0.3-2-0.3-3
						c-0.2-5.5-5.2-5.9-8.7-8.1C429.9,23.8,427,19.4,421.7,22.2z"/>
				</g>
				<g>
					<path class="st0" d="M404.2,53.6c-2.9,0-5.6-1.2-8.2-2.3c-2.9-1.3-5.7-2.5-8.4-2c-1.5,0.2-3,1-4.6,1.8c-2,1-4.1,2.1-6.5,2.1
						c0,0-0.1,0-0.1,0c-2.7,0-5-1.3-7.3-2.5c-1.8-1-3.6-2-5.4-2.2c-1.8-0.2-3.6,0.4-5.6,1c-1.4,0.4-2.8,0.9-4.4,1.1
						c-2.7,0.3-5.8-0.8-7.4-2.8c-1.2-1.4-1.6-3.1-1.2-4.8c0.8-3.6,4.7-4.9,8.1-4.9c0.4,0,0.8,0,1.2,0c2.2,0,4.3,0.1,5.7-1.1
						c0.8-0.7,1.3-1.7,1.9-2.8c0.5-0.9,1-1.9,1.7-2.8c2.6-3.1,7-4.1,13.3-2.9l0.9,0.2c3.7,0.8,7.6,1.5,10.6-0.2
						c0.9-0.6,1.8-1.4,2.6-2.2c0.6-0.6,1.2-1.2,1.9-1.7c4.3-3.5,10.4-4.1,15.3-1.6c0.6,0.3,1.1,0.6,1.6,1c1.3,0.8,2.6,1.6,3.8,1.6
						c0,0,0.1,0,0.1,0c1.5,0,2.8-1.1,4.3-2.4c1-0.8,1.9-1.6,3.1-2.2l0,0c4.9-2.6,8.1,0,11,2.4c0.8,0.6,1.6,1.3,2.4,1.8
						c0.8,0.5,1.7,1,2.7,1.4c2.9,1.3,6.4,3,6.6,7.9c0,0.3,0,0.5,0,0.8c0,0.6,0,1.2,0.2,1.6c0.5,1,2.3,0.9,4.1,0.8
						c1.6-0.1,3.8,0.3,5.1,1.6c0.7,0.7,1.1,1.7,1.1,2.7c0,1.8-1.4,3.1-2.1,3.8c-2.5,2.4-5.4,5-9.1,4.5c-0.7-0.1-1.4-0.3-2-0.5
						c-0.6-0.2-1.1-0.4-1.6-0.4c-1.4-0.2-2.8,0.5-4.3,1.2c-1.4,0.7-2.8,1.4-4.5,1.5c-2.7,0.3-5.1-1-7.4-2.2c-1.9-1-3.8-1.9-5.6-1.9
						c-2,0.1-3.8,1.3-5.7,2.5c-1.8,1.2-3.6,2.4-5.7,2.9C405.7,53.6,404.9,53.6,404.2,53.6z M388.7,46.2c2.9,0,5.7,1.2,8.3,2.4
						c3,1.3,5.9,2.6,8.7,1.9c1.6-0.4,3.2-1.4,4.8-2.5c2.1-1.4,4.4-2.9,7.1-3c2.6-0.1,4.8,1.1,7,2.2c2,1.1,3.9,2,5.9,1.9
						c1.2-0.1,2.3-0.7,3.6-1.3c1.8-0.9,3.6-1.7,5.8-1.5c0.8,0.1,1.4,0.3,2.1,0.5c0.5,0.2,1,0.3,1.5,0.4c2.4,0.3,4.7-1.7,6.7-3.7
						c0.4-0.4,1.1-1.1,1.2-1.6c0-0.2,0-0.3-0.2-0.5c-0.5-0.5-1.8-0.8-2.9-0.8c-2,0.1-5.5,0.4-6.8-2.5c-0.5-1-0.5-2-0.5-2.9
						c0-0.2,0-0.4,0-0.7c-0.1-3-1.9-3.9-4.9-5.3c-1-0.5-2.1-1-3.1-1.6c-1-0.6-1.8-1.3-2.7-2c-3-2.4-4.8-3.7-7.9-2.1l0,0
						c-0.9,0.5-1.7,1.2-2.6,1.9c-1.7,1.4-3.5,3-6,3c-2.1,0.1-3.9-1-5.5-2c-0.5-0.3-1-0.6-1.5-0.9c-3.8-2-8.8-1.5-12.2,1.3
						c-0.6,0.5-1.1,1-1.7,1.5c-1,0.9-2,1.9-3.2,2.6c-3.9,2.3-8.5,1.4-12.6,0.6l-0.8-0.2c-5.1-1-8.7-0.4-10.5,1.9
						c-0.5,0.6-0.9,1.4-1.4,2.2c-0.7,1.3-1.4,2.6-2.6,3.7c-2.2,1.9-5.1,1.8-7.6,1.8c-0.4,0-0.8,0-1.2,0c-2.3,0-4.8,0.8-5.3,2.6
						c-0.2,0.7,0,1.4,0.6,2c1.1,1.2,3.2,2,4.9,1.8c1.3-0.2,2.5-0.5,3.9-1c2.1-0.7,4.3-1.3,6.7-1.1c2.4,0.2,4.5,1.4,6.5,2.5
						c2,1.1,4,2.2,6,2.2c1.8,0,3.5-0.9,5.3-1.8c1.7-0.9,3.4-1.7,5.4-2C387.7,46.2,388.2,46.2,388.7,46.2z"/>
				</g>
			</g>
			<g>
				<g>
					<path class="st0" d="M607.9,71.3c3.2-0.2,5.2-4.6,8.4-4.4c1.8,0.1,3.2,1.6,4.7,2.6c4.4,2.9,10.9,1.3,13.6-3.4
						c3.6,4,9.9,4.9,14.4,2.2c1.5-0.9,3.2-2.3,4.9-1.8c0.9,0.3,1.6,1.1,2.4,1.7c2.8,2.4,6.9,2.7,10.1,0.9c0.8-0.5,1.6-1.1,2.5-1.2
						c1.5-0.2,2.7,1,4.1,1.5c2.9,1,5.9-0.9,8.4-2.8c1-0.8,2.1-1.7,2.3-3c0.3-2.2-2.2-3.6-4.2-3.8c-2.1-0.2-4.4,0.2-6.1-1.1
						c-2.7-2-2.2-6.6-4.4-9.1c-4.1-4.7-12.3,1.8-17.6-1.4c-1.4-0.9-2.4-2.3-3.8-3.1c-5-2.9-10.5,3.5-16.3,4.1
						c-5.8,0.6-12.2-4.7-17.1-1.3c-2.3,1.6-3.4,4.8-5.8,6c-3.4,1.7-8-1-11,1.4c-2.1,1.7-2.5,5.4-5,6.3c-1.8,0.7-3.7-0.6-5.6-0.8
						c-2.4-0.3-5,1.3-5.7,3.7c-0.7,2.4,0.7,5.4,3,6c1.1,0.3,2.4,0.1,3.5-0.1c3.3-0.6,8-2.8,11.2-2.7
						C602.3,67.7,604.3,71.3,607.9,71.3z"/>
				</g>
				<g>
					<path class="st0" d="M607.9,72.8c-2.2,0-3.8-1.1-5.3-2c-1.3-0.8-2.4-1.6-3.7-1.6c0,0-0.1,0-0.1,0c-1.7,0-4,0.7-6.2,1.4
						c-1.7,0.5-3.2,1-4.7,1.3c-1.2,0.2-2.7,0.5-4.1,0c-1.4-0.4-2.7-1.5-3.5-3c-0.8-1.6-1-3.4-0.5-5c0.9-3,4.1-5.1,7.2-4.7
						c0.8,0.1,1.5,0.3,2.2,0.5c1.1,0.3,2,0.6,2.8,0.3c0.9-0.3,1.5-1.4,2.1-2.7c0.6-1.2,1.3-2.5,2.5-3.4c2-1.6,4.6-1.4,6.8-1.2
						c1.7,0.2,3.3,0.3,4.5-0.3c1.1-0.5,1.9-1.6,2.7-2.7c0.8-1.1,1.7-2.3,2.9-3.1c3.4-2.4,7.2-1.3,10.9-0.1c2.3,0.7,4.7,1.4,6.8,1.2
						c2-0.2,4.1-1.3,6.1-2.4c3.6-1.8,7.2-3.7,11-1.6c0.9,0.5,1.6,1.2,2.2,1.8c0.6,0.5,1.1,1,1.6,1.4c2,1.2,4.7,0.7,7.6,0.1
						c3.5-0.7,7.6-1.5,10.3,1.6c1.3,1.4,1.8,3.3,2.2,4.9c0.5,1.7,0.9,3.2,1.9,4c0.9,0.7,2.3,0.7,3.7,0.7c0.6,0,1.1,0,1.7,0.1
						c1.5,0.1,3.5,0.8,4.7,2.4c0.7,0.9,1,2,0.8,3.1c-0.3,2-1.9,3.3-2.9,4c-3,2.3-6.3,4.3-9.7,3c-0.6-0.2-1.1-0.5-1.6-0.8
						c-0.7-0.4-1.4-0.7-1.9-0.7c-0.4,0-0.9,0.3-1.4,0.7c-0.2,0.1-0.4,0.2-0.5,0.3c-3.6,2.1-8.4,1.7-11.7-1.1
						c-0.2-0.2-0.4-0.3-0.5-0.5c-0.5-0.4-0.9-0.8-1.3-1c-0.8-0.3-1.9,0.4-3,1.1c-0.3,0.2-0.5,0.3-0.8,0.5
						c-4.6,2.8-10.8,2.2-14.9-1.3c-1.5,1.8-3.6,3.2-6.1,3.8c-3,0.8-6.1,0.3-8.6-1.3c-0.4-0.3-0.8-0.6-1.2-0.9
						c-1-0.7-1.9-1.4-2.8-1.5c-1.1,0-2.2,0.8-3.4,1.9c-1.3,1.1-2.9,2.4-4.9,2.6C607.9,72.8,607.9,72.8,607.9,72.8z M598.7,66.2
						c0,0,0.1,0,0.1,0c2.1,0,3.8,1.1,5.2,2c1.3,0.8,2.4,1.6,3.8,1.6c1.1-0.1,2.1-1,3.2-1.9c1.5-1.2,3.1-2.6,5.3-2.5
						c1.8,0.1,3.1,1.1,4.3,2c0.4,0.3,0.7,0.5,1.1,0.8c1.8,1.2,4.1,1.5,6.4,1c2.3-0.6,4.2-2,5.3-3.8c0.2-0.4,0.6-0.7,1.1-0.7
						c0.4,0,0.9,0.1,1.2,0.5c3.1,3.5,8.7,4.3,12.7,1.9c0.2-0.1,0.5-0.3,0.7-0.4c1.4-0.9,3.3-2.1,5.3-1.4c1,0.3,1.8,1,2.4,1.6
						c0.2,0.1,0.3,0.3,0.5,0.4c2.3,2,5.9,2.3,8.5,0.8c0.2-0.1,0.3-0.2,0.5-0.3c0.7-0.5,1.5-1,2.6-1.1c1.4-0.2,2.5,0.5,3.5,1
						c0.4,0.2,0.8,0.4,1.2,0.6c2.2,0.8,4.7-0.8,7.1-2.6c0.8-0.6,1.6-1.3,1.7-2c0-0.2,0-0.5-0.3-0.8c-0.5-0.7-1.6-1.2-2.7-1.3
						c-0.5,0-1-0.1-1.5-0.1c-1.7,0-3.6-0.1-5.3-1.3c-1.9-1.4-2.5-3.6-3-5.6c-0.4-1.5-0.8-2.8-1.6-3.7c-1.6-1.8-3.9-1.4-7.7-0.7
						c-3.1,0.6-6.6,1.3-9.6-0.5c-0.8-0.5-1.5-1.1-2.1-1.7c-0.6-0.5-1.1-1.1-1.7-1.4c-2.4-1.4-5.1,0-8.3,1.6
						c-2.3,1.2-4.6,2.4-7.1,2.6c-2.7,0.3-5.3-0.5-7.9-1.3c-3.3-1-6.2-1.9-8.5-0.3c-0.8,0.6-1.5,1.5-2.3,2.5c-1,1.4-2.1,2.8-3.8,3.6
						c-1.9,0.9-4.1,0.7-5.9,0.6c-1.9-0.2-3.6-0.3-4.8,0.6c-0.7,0.5-1.2,1.5-1.7,2.5c-0.8,1.6-1.8,3.3-3.7,4
						c-1.6,0.6-3.2,0.1-4.5-0.3c-0.6-0.2-1.2-0.4-1.8-0.4c-1.8-0.2-3.6,1-4.2,2.7c-0.2,0.8-0.1,1.8,0.3,2.6c0.4,0.8,1,1.3,1.7,1.5
						c0.9,0.2,1.9,0.1,2.9-0.1c1.2-0.2,2.7-0.7,4.3-1.2C594.1,66.9,596.6,66.2,598.7,66.2z"/>
				</g>
			</g>
			<g>
				<g>
					<g>
						<path class="st1" d="M689.8,138.1c-0.6-0.7-1.1-1.3-1.5-2c-0.1-0.1-0.1-0.2-0.1-0.2c0.2-0.1,0.6-0.3,0.8-0.4l0.2-0.1
							c3.8-1.6,6.2-5.9,5.8-10.2c-0.3-3.6-2.7-6.9-5.9-8.2c1.7-4.3,3-9.1,1-13.4c-1.8-3.7-5.9-6-10.1-5.7c0.1-4.4-1.7-8.7-4.9-11
							c-2.1-1.5-4.9-2-7.5-1.4c-1.7,0.4-3.1,1.2-4.3,2.3c-2.5-2.7-6.2-4-9.6-3.2c-3.4,0.8-6.2,3.6-7.1,6.9c-2.8-1.5-6-1.7-8.6-0.5
							c-2.9,1.3-4.9,4.3-5.1,7.4c-2.4-0.4-5.2,0.5-7,2.7c-2,2.4-2.7,6-2,9.6c0.1,0.7,0.8,1.2,1.5,1.2l2.1,40.7c-0.2,0-0.3,0-0.5,0.1
							c-0.7,0.3-1.1,1.2-0.7,2c1,2.2,2.4,5.6,5.3,7.1c2.3,1.2,5.1,1,8.4-0.6c0.2,0.9,0.3,1.9,0.6,2.8c0.1,0.5,0.4,1.6,1.4,2.1
							c0.7,0.4,1.5,0.3,1.9,0.2c1.4-0.2,2.7-0.6,4-1.1c0,0.2,0,0.3,0.1,0.5c0.1,1.1,0.3,2.3,1,3.3c0.8,1.2,2.2,1.8,3.8,1.8
							c0.4,0,0.7,0,1.1-0.1c0.3-0.1,0.6-0.1,0.9-0.2c0.9-0.2,1.9-0.3,2.8-0.7c1,0.6,2.3,0.7,3.6,0.4c1.6-0.5,2.9-1.6,3.4-3.2
							c0.2-0.5,0.2-1,0.3-1.5c0.1-0.5,0.1-1.1,0.3-1.3c0.3-0.4,1.5-0.4,2-0.3l0.3,0c2.3,0.1,4.8,0.2,7.1-0.7c2.6-1,5-3.9,4.5-7.2
							c0-0.3-0.1-0.5-0.2-0.8c-0.1-0.3-0.2-0.7-0.2-1c0.1,0,0.4-0.1,0.4-0.1l0.4-0.1c3.1-0.5,6.3-1,9-2.9c3-2.1,5.3-6.3,3.6-10.2
							C691.4,139.9,690.6,138.9,689.8,138.1z"/>
					</g>
					<g>
						<path class="st2" d="M626.1,154.7c1,2.2,2.4,5.6,5.3,7.1c2.3,1.2,5.1,1,8.4-0.6c0.2,0.9,0.3,1.9,0.6,2.8
							c0.1,0.5,0.4,1.6,1.4,2.1c0.7,0.4,1.5,0.3,1.9,0.2c1.4-0.2,2.7-0.6,4-1.1c0,0.2,0,0.3,0.1,0.5c0.1,1.1,0.3,2.3,1,3.3
							c0.8,1.2,2.2,1.8,3.8,1.8c0.4,0,0.7,0,1.1-0.1c0.3-0.1,0.6-0.1,0.9-0.2c0.9-0.2,1.9-0.3,2.8-0.7c1,0.6,2.3,0.7,3.6,0.4
							c1.6-0.5,2.9-1.6,3.4-3.2c0.2-0.5,0.2-1,0.3-1.5c0.1-0.5,0.1-1.1,0.3-1.3c0.3-0.4,1.5-0.4,2-0.3l0.3,0
							c2.3,0.1,4.8,0.2,7.1-0.7c2.6-1,5-3.9,4.5-7.2c0-0.3-0.1-0.5-0.2-0.8c-0.1-0.2-0.1-0.6-0.1-0.8c-24.6-1.2-41.6-13.7-52.4-25.9
							l1.2,24c-0.2,0-0.3,0-0.5,0.1C626.1,153.1,625.8,154,626.1,154.7z"/>
					</g>
					<g>
						<path class="st3" d="M657.4,217.3c-0.8,0-1.4-0.7-1.4-1.5v-95.3c0-0.8,0.6-1.5,1.4-1.5c0.8,0,1.4,0.7,1.4,1.5v95.3
							C658.8,216.6,658.2,217.3,657.4,217.3z"/>
					</g>
					<g>
						<path class="st3" d="M657.8,144.2c-0.5,0-1-0.3-1.3-0.7c-0.5-0.7-0.4-1.6-0.2-2.1c1.6-4.3,4.9-7.9,9-9.6
							c0.6-0.3,1.2-0.5,1.8-0.7c1.2-0.4,2.4-0.9,3.3-1.6c1.7-1.4,2.7-3.9,3.2-7.9c0.1-0.8,0.8-1.4,1.6-1.3c0.8,0.1,1.4,0.8,1.3,1.7
							c-0.3,3.1-1.1,7.5-4.3,10c-1.3,1-2.7,1.5-4.1,2c-0.5,0.2-1.1,0.4-1.6,0.6c-3.2,1.4-5.9,4.2-7.3,7.5c0.1,0.2,0.1,0.4,0.1,0.6
							c0.1,0.8-0.6,1.5-1.3,1.6C657.8,144.2,657.8,144.2,657.8,144.2z M657.7,141.2C657.7,141.2,657.7,141.2,657.7,141.2
							C657.7,141.2,657.7,141.2,657.7,141.2z"/>
					</g>
					<g>
						<path class="st3" d="M657,156.1c-0.1,0-0.1,0-0.2,0c-0.8-0.1-1.3-0.9-1.2-1.7c0.1-0.8-0.6-1.8-1.2-2.5
							c-2.1-2.3-4.8-3.9-7.8-4.6c-0.6-0.1-1.1-0.2-1.7-0.3c-1.4-0.2-2.9-0.5-4.4-1.2c-2.3-1.1-4.3-3.9-3.5-6.7c0.2-0.8,1-1.3,1.8-1
							c0.8,0.2,1.2,1.1,1,1.9c-0.3,1.2,0.8,2.6,2,3.2c1.1,0.5,2.3,0.7,3.6,0.9c0.6,0.1,1.3,0.2,1.9,0.3c3.5,0.8,6.8,2.7,9.2,5.4
							c1.5,1.7,2.2,3.4,2,5C658.3,155.5,657.7,156.1,657,156.1z"/>
					</g>
					<g>
						<path class="st3" d="M656.9,135.5c-0.7,0-1.3-0.5-1.4-1.3c-0.2-1.8-1.3-3.8-3.1-4.3c-0.5-0.1-1.1-0.2-1.7-0.2l-0.2,0
							c-1.5-0.1-3-0.3-4.5-1c-1.8-1-2.9-2.7-3-4.5c0-0.8,0.6-1.5,1.4-1.6c0.8-0.1,1.5,0.6,1.5,1.4c0,0.7,0.6,1.5,1.5,2
							c1,0.5,2.2,0.6,3.3,0.7l0.2,0c0.7,0,1.5,0.1,2.3,0.3c3,0.9,4.8,4.1,5.2,6.8c0.1,0.8-0.4,1.6-1.2,1.7
							C657.1,135.5,657,135.5,656.9,135.5z"/>
					</g>
				</g>
				<g>
					<g>
						<path class="st4" d="M628.5,190.3c1.6-1.9,4.8-1.5,6.3,0.5c1.5,2,1.4,4.9,0.3,7.2c2.6-0.8,5.7-0.9,7.9,0.9
							c2.1,1.8,2.5,5.8,0.2,7.4c2.8,0.4,6.3-1,8.2,1.2c1.7,2,0.6,5.2-0.6,7.6c2.7-0.7,5.4-0.8,8.1-0.4c0.7,0.1,1.5,0.3,2.1,0.8
							c1,0.9,1.1,2.6,0.7,3.9c-0.4,1.3-1.1,2.6-1.4,4c2.2,0.1,4.4,0.4,6.2,1.7c1.8,1.2,3.2,3.5,2.8,5.7c-0.2,1-0.7,2-1.2,2.9
							l-57.3,0.8L628.5,190.3z"/>
					</g>
					<g>
						<path class="st4" d="M610.8,235.9c-0.5,0-0.9-0.2-1.2-0.7c-0.3-0.4-0.3-1-0.1-1.4l17.6-44.1c0.1-0.1,0.1-0.3,0.2-0.4
							c0.9-1.2,2.4-1.8,4-1.8c1.8,0,3.5,0.9,4.6,2.3c1.2,1.6,1.7,3.9,1.3,6.1c2.6-0.3,4.9,0.3,6.6,1.8c1.5,1.3,2.4,3.4,2.3,5.6
							c0,0.5-0.1,1-0.3,1.5c0,0,0.1,0,0.1,0c2.2-0.1,4.7-0.3,6.4,1.7c1.4,1.6,1.6,3.8,0.7,6.6c2-0.2,4-0.2,5.9,0.1
							c1,0.1,1.9,0.4,2.8,1.1c1.6,1.4,1.7,3.8,1.1,5.5c-0.2,0.7-0.5,1.3-0.7,1.8c0,0.1-0.1,0.2-0.1,0.3c1.6,0.2,3.4,0.7,5,1.7
							c2.5,1.7,3.9,4.6,3.5,7.2c-0.2,1.3-0.8,2.4-1.3,3.4c-0.3,0.5-0.7,0.8-1.2,0.8L610.8,235.9
							C610.8,235.9,610.8,235.9,610.8,235.9z M629.7,191.1L613,232.9l54.2-0.8c0.3-0.6,0.5-1.1,0.6-1.7c0.3-1.7-0.9-3.4-2.2-4.2
							c-1.7-1.1-3.8-1.3-5.5-1.4c-0.4,0-0.8-0.2-1.1-0.6c-0.3-0.4-0.4-0.8-0.3-1.2c0.2-0.9,0.5-1.8,0.9-2.6c0.2-0.5,0.4-1,0.6-1.5
							c0.2-0.8,0.3-1.9-0.2-2.3c-0.3-0.3-0.8-0.4-1.4-0.4c-2.5-0.4-5.1-0.2-7.6,0.4c-0.5,0.1-1.1-0.1-1.5-0.5
							c-0.3-0.5-0.4-1.1-0.1-1.6c1.4-2.9,1.7-4.8,0.8-5.9c-0.8-0.9-2.1-0.9-4.1-0.7c-1.1,0.1-2.2,0.1-3.2,0
							c-0.6-0.1-1.1-0.6-1.2-1.2c-0.1-0.6,0.1-1.3,0.6-1.6c0.7-0.5,0.9-1.4,0.9-1.9c0.1-1.2-0.4-2.4-1.2-3.1
							c-1.5-1.2-3.9-1.5-6.5-0.7c-0.6,0.2-1.2,0-1.5-0.5c-0.4-0.5-0.4-1.1-0.2-1.7c1-1.9,0.9-4.2-0.1-5.6c-0.5-0.7-1.4-1.1-2.4-1.2
							C630.9,190.5,630.2,190.6,629.7,191.1z"/>
					</g>
				</g>
			</g>
			<g>
				<g>
					<path class="st1" d="M410.6,151.8c0.1,2.4-1.1,4.7-3,6c-1.9,1.3-4.4,1.5-6.5,0.5c-1.3,5.1-5.2,9.4-10,11
						c-4.8,1.7-10.3,0.7-14.3-2.6c-4,2.2-8.7,3.4-13.2,2.7c-4.5-0.7-8.8-3.4-10.9-7.7c-2.1-4.2-1.7-9.9,1.5-13.3
						c-3.9-0.1-7.3-2.9-9.1-6.5c-1.8-3.6-2.3-7.7-2.4-11.7c-0.1-3.7,0-7.6,1.4-11c1.4-3.4,4.3-6.4,7.8-6.9c-5.3-9.2-3.4-21.7,3-30.1
						c1.9-2.6,4.4-4.9,7.5-5.6c3.9-0.9,8,1,11,3.8c1.8-4.3,3.7-8.7,7-11.9c3.2-3.2,8.1-5.1,12.3-3.5c2.9,1.1,5.1,3.7,6.4,6.7
						c1.3,2.9,1.7,6.2,1.9,9.5c4.3-1.9,9.6-1.4,13.5,1.4c3.9,2.7,6.4,7.6,6.4,12.5"/>
				</g>
				<g>
					<path class="st1" d="M386.3,171.6c-3.4,0-6.8-1.1-9.7-3.1c-3.3,1.7-8,3.2-13.3,2.4c-5.2-0.8-9.8-4-12-8.5
						c-2.1-4.1-1.9-9.2,0.2-12.9c-3.1-0.9-6-3.4-7.8-6.9c-2.1-4-2.5-8.8-2.6-12.4c-0.1-3.6,0-7.8,1.6-11.6c1.4-3.5,4-6.2,7-7.3
						c-4.3-9.1-2.8-21.2,4-30.1c2.6-3.4,5.3-5.4,8.3-6.1c3.5-0.8,7.3,0.2,10.8,2.9c1.6-3.8,3.6-7.6,6.5-10.6c4-4,9.4-5.5,13.8-3.8
						c3,1.2,5.7,3.9,7.2,7.5c1.2,2.7,1.6,5.5,1.9,8c4.4-1.2,9.2-0.5,13,2.2c4.3,3,7,8.3,7,13.8c0,0.8-0.6,1.5-1.4,1.5c0,0,0,0,0,0
						c-0.8,0-1.4-0.7-1.4-1.5c0-4.4-2.2-8.8-5.7-11.3c-3.5-2.4-8.2-2.9-12.1-1.2c-0.4,0.2-0.9,0.1-1.3-0.1c-0.4-0.3-0.6-0.7-0.7-1.2
						c-0.1-2.6-0.5-5.9-1.8-8.9c-1.2-2.9-3.3-5-5.6-5.9c-3.3-1.3-7.6,0-10.8,3.2c-3,3-5,7.3-6.6,11.4c-0.2,0.4-0.6,0.8-1,0.9
						c-0.5,0.1-0.9,0-1.3-0.3c-3.1-2.9-6.7-4.2-9.8-3.5c-2.3,0.5-4.5,2.2-6.7,5.1c-6.4,8.4-7.6,20.3-2.9,28.4c0.3,0.4,0.3,1,0.1,1.4
						c-0.2,0.5-0.6,0.8-1.1,0.9c-2.7,0.4-5.3,2.8-6.7,6c-1.4,3.3-1.4,7.1-1.3,10.3c0.1,3.5,0.5,7.6,2.3,11.1
						c1.8,3.4,4.8,5.7,7.9,5.7c0.6,0,1.1,0.4,1.3,0.9c0.2,0.6,0.1,1.2-0.3,1.6c-2.6,2.8-3.2,7.8-1.3,11.6c1.8,3.6,5.6,6.2,9.9,6.9
						c4.9,0.8,9.4-1,12.3-2.6c0.5-0.3,1.1-0.2,1.5,0.1c3.6,2.9,8.7,3.8,13,2.3c4.3-1.5,7.9-5.4,9.1-10c0.1-0.4,0.4-0.8,0.8-1
						c0.4-0.2,0.8-0.2,1.2,0c1.6,0.8,3.6,0.7,5.1-0.4c1.5-1,2.4-2.9,2.3-4.7c0-0.8,0.6-1.5,1.4-1.6c0.7,0,1.5,0.6,1.5,1.5
						c0.1,2.9-1.4,5.8-3.7,7.3c-1.8,1.3-4.2,1.6-6.3,1.1c-1.8,4.9-5.7,8.9-10.5,10.6C389.8,171.3,388.1,171.6,386.3,171.6z"/>
				</g>
				<g>
					<path class="st2" d="M351.7,152.9c-0.8,2.9-0.4,6.1,0.9,8.8c2.1,4.2,6.4,7,10.9,7.7c4.5,0.7,9.2-0.5,13.2-2.7
						c4,3.2,9.5,4.3,14.3,2.6c4.8-1.7,8.7-5.9,10-11c2,1,4.6,0.8,6.5-0.5c1.9-1.3,3.1-3.7,3-6l7.3-41.2
						C401.1,144.5,371.6,152.1,351.7,152.9z"/>
				</g>
				<g>
					<path class="st2" d="M386.3,171.6c-3.4,0-6.8-1.1-9.7-3.1c-3.3,1.7-8,3.2-13.3,2.4c-5.2-0.8-9.8-4-12-8.5c-1.5-3-1.9-6.6-1-9.9
						c0.2-0.6,0.7-1.1,1.3-1.1c20.7-0.9,48.8-8.8,65-41.5c0.3-0.7,1.1-1,1.7-0.7c0.7,0.2,1.1,1,0.9,1.7l-7.3,41.1
						c0,2.8-1.4,5.6-3.7,7.2c-1.8,1.3-4.2,1.6-6.3,1.1c-1.8,4.9-5.7,8.9-10.5,10.6C389.8,171.3,388.1,171.6,386.3,171.6z
						 M376.7,165.2c0.3,0,0.6,0.1,0.9,0.3c3.6,2.9,8.7,3.8,13,2.3c4.3-1.5,7.9-5.4,9.1-10c0.1-0.4,0.4-0.8,0.8-1
						c0.4-0.2,0.8-0.2,1.2,0c1.6,0.8,3.6,0.7,5.1-0.4c1.5-1,2.4-2.9,2.3-4.7c0-0.1,0-0.2,0-0.3l5.8-32.6
						c-16.8,27.1-42.4,34.4-62.1,35.5c-0.3,2.3,0,4.7,1,6.7c1.8,3.6,5.6,6.2,9.9,6.9c4.9,0.8,9.4-1,12.3-2.6
						C376.3,165.3,376.5,165.2,376.7,165.2z"/>
				</g>
				<g>
					<g>
						<g>
							<path class="st5" d="M272.5,221.8c8.7-10,18.8-20.3,31.7-22.1c10.9-1.6,22.1,3.3,33,1.3c10.8-1.9,19.4-10.1,29.6-14.2
								c9.7-3.8,20.4-3.7,30.7-2.8c4.5,0.4,12-5.5,13.2-1c1,3.6,9.9,6,9.9,6v44.6h-151L272.5,221.8z"/>
						</g>
						<g>
							<path class="st5" d="M420.7,235.1h-151c-0.4,0-0.9-0.2-1.1-0.6c-0.3-0.4-0.4-0.8-0.3-1.3l2.9-11.8c0.1-0.2,0.2-0.5,0.3-0.6
								c8.7-9.9,19.1-20.7,32.6-22.6c5.5-0.8,11.1,0,16.4,0.7c5.7,0.8,11.1,1.6,16.5,0.6c6.2-1.1,11.6-4.3,17.3-7.8
								c3.8-2.3,7.8-4.7,12-6.3c10.4-4.1,21.7-3.8,31.3-2.9c1.4,0.1,3.5-0.6,5.5-1.3c2.8-1,5.4-1.9,7.3-0.9c0.6,0.3,1.4,1,1.8,2.3
								c0.5,1.9,5.6,4.1,8.9,5c0.6,0.2,1.1,0.8,1.1,1.5v44.6C422.1,234.5,421.5,235.1,420.7,235.1z M271.5,232.1h147.7v-41.9
								c-2.8-0.9-8.8-3.1-9.8-6.7c-0.1-0.4-0.3-0.5-0.3-0.5c-0.8-0.4-3.1,0.4-5,1.1c-2.3,0.8-4.6,1.7-6.7,1.5
								c-9.3-0.9-20.2-1.2-30.1,2.7c-4,1.6-7.9,3.9-11.6,6.1c-5.7,3.4-11.5,6.9-18.2,8.1c-5.8,1-11.7,0.2-17.4-0.6
								c-5.2-0.7-10.5-1.5-15.7-0.7c-12.5,1.8-22.3,11.9-30.6,21.4L271.5,232.1z"/>
						</g>
					</g>
					<g>
						<g>
							<path class="st4" d="M410.8,203.7c-2.7-2.2-6.8-1.6-9.8,0c-3.1,1.6-5.6,4.1-8.6,6c-3,1.8-6.8,2.9-9.9,1.4
								c-2.2-1.1-3.8-3.4-6.1-4.2c-4.1-1.4-8,2.2-11.2,5.1c-3.6,3.2-8.5,6.1-13,4.5c-3.5-1.2-5.9-4.7-9.5-5.6
								c-6.6-1.7-12,6.1-18.7,7.1c-7,1.1-13.1-5.3-20.2-5.5c-5.2-0.2-10,3-13.9,6.6c-2,1.8-4,3.8-6.6,4c-1.2,0.1-2.4-0.2-3.7-0.4
								c-9.1-1.3-17.2,5.3-24.1,11.4l141.1-0.3h37l-21.6-26.1"/>
						</g>
						<g>
							<path class="st4" d="M255.3,235.4c-0.6,0-1.1-0.4-1.3-1c-0.2-0.6,0-1.3,0.4-1.7c7.2-6.4,15.6-13.2,25.2-11.8
								c0.3,0,0.7,0.1,1,0.2c0.8,0.1,1.6,0.3,2.4,0.2c2-0.2,3.8-1.8,5.5-3.4l0.3-0.3c5.3-4.9,10.2-7.2,14.9-7c3.5,0.1,6.7,1.6,9.8,3
								c3.5,1.6,6.8,3.1,10.2,2.6c2.6-0.4,5.1-2,7.5-3.5c3.6-2.3,7.4-4.7,11.8-3.5c2.2,0.6,3.9,1.9,5.5,3.1c1.4,1,2.7,2,4.1,2.5
								c4.2,1.4,8.6-1.5,11.7-4.2l0.2-0.2c3.4-3,7.6-6.8,12.4-5.2c1.6,0.5,2.7,1.5,3.9,2.5c0.8,0.7,1.6,1.4,2.4,1.8
								c3.2,1.6,7-0.4,8.5-1.3c1.2-0.8,2.4-1.6,3.6-2.6c1.6-1.2,3.2-2.5,5.1-3.4c3.2-1.7,7.9-2.5,11.4,0.2c0.6,0.5,0.8,1.4,0.3,2.1
								c-0.5,0.7-1.4,0.8-2,0.3c-2.4-1.9-6-1.1-8.3,0.1c-1.6,0.9-3.1,2-4.7,3.2c-1.2,0.9-2.5,1.9-3.8,2.7c-4,2.5-8.1,3-11.2,1.4
								c-1.2-0.6-2.1-1.4-3-2.2c-1-0.8-1.9-1.6-3-2c-3.2-1.1-6.6,1.9-9.6,4.6L366,213c-3.6,3.2-9,6.6-14.4,4.8
								c-1.9-0.6-3.4-1.8-4.9-3c-1.5-1.1-2.9-2.2-4.5-2.6c-3.2-0.8-6.3,1.1-9.6,3.2c-2.7,1.7-5.5,3.4-8.6,3.9
								c-4.2,0.6-8-1.1-11.7-2.8c-3-1.4-5.8-2.6-8.7-2.7c-4-0.1-8.2,1.9-12.9,6.2l-0.3,0.3c-2,1.8-4.2,3.9-7.2,4.1
								c-1.1,0.1-2.1-0.1-3.1-0.3c-0.3-0.1-0.6-0.1-0.9-0.2c-7.2-1.1-13.9,3.4-19.9,8.4l137.1-0.3h33.8l-19.6-23.6
								c-0.5-0.6-0.5-1.6,0.1-2.1c0.6-0.5,1.5-0.5,2,0.2l21.6,26.1c0.4,0.4,0.5,1.1,0.2,1.6c-0.2,0.5-0.7,0.9-1.3,0.9h-37
								L255.3,235.4C255.3,235.4,255.3,235.4,255.3,235.4z"/>
						</g>
					</g>
				</g>
				<path class="st3" d="M376.7,146.7L376.7,146.7c-0.8,0-1.4-0.7-1.4-1.5c0-1.2-1.2-2.3-2.2-2.8c-1.1-0.5-2.3-0.6-3.5-0.8
					c-0.5-0.1-0.9-0.1-1.4-0.2c-1.7-0.3-4-0.9-5.6-2.8c-1.4-1.7-1.7-3.9-1.9-5.7c-0.1-0.8,0.4-1.6,1.2-1.7c0.8-0.1,1.5,0.4,1.6,1.3
					c0.2,1.8,0.5,3.2,1.3,4.2c0.7,0.9,2,1.5,3.9,1.8c0.4,0.1,0.9,0.1,1.3,0.2c1.4,0.2,2.8,0.4,4.2,1c2.4,1.1,4,3.2,4,5.5
					C378.1,146.1,377.5,146.7,376.7,146.7z"/>
			</g>
			<g>
				<g>
					<g>
						<polyline class="st6" points="626.1,222.1 626.1,111.5 505,107 505,234.4 624.9,234.4 630.8,224 						"/>
					</g>
					<g>
						<path class="st6" d="M624.9,235.9H505c-0.8,0-1.4-0.7-1.4-1.5V107c0-0.4,0.2-0.8,0.4-1.1c0.3-0.3,0.6-0.5,1.1-0.4l121,4.5
							c0.8,0,1.4,0.7,1.4,1.5v110.6c0,0.8-0.6,1.5-1.4,1.5s-1.4-0.7-1.4-1.5V113l-118.2-4.4v124.4h117.6l5.5-9.7
							c0.4-0.7,1.3-1,2-0.5c0.7,0.4,0.9,1.4,0.5,2.1l-5.9,10.5C625.9,235.7,625.4,235.9,624.9,235.9z"/>
					</g>
				</g>
				<g>
					<g>
						<path class="st7" d="M630.8,224l-4.8-1.8v-25.3c-71.6-4.5-106.4-34.6-121-52.6v90.2h119.9L630.8,224z"/>
					</g>
					<g>
						<path class="st7" d="M624.9,235.9H505c-0.8,0-1.4-0.7-1.4-1.5v-90.2c0-0.6,0.4-1.2,0.9-1.4c0.6-0.2,1.2,0,1.6,0.4
							c14.2,17.5,48.7,47.6,120,52.1c0.8,0,1.4,0.7,1.4,1.5v24.2l3.8,1.5c0.4,0.2,0.7,0.5,0.9,0.9c0.1,0.4,0.1,0.9-0.1,1.3
							l-5.9,10.5C625.9,235.7,625.4,235.9,624.9,235.9z M506.5,232.9h117.6l4.6-8.2l-3.2-1.2c-0.6-0.2-0.9-0.8-0.9-1.4v-23.9
							c-67.6-4.5-102.4-32-118.2-50V232.9z"/>
					</g>
				</g>
				<g>
					<g>
						<rect x="529" y="126.5" class="st8" width="67.7" height="68.6"/>
					</g>
					<g>
						<path class="st8" d="M596.7,196.6H529c-0.8,0-1.4-0.7-1.4-1.5v-68.6c0-0.8,0.6-1.5,1.4-1.5h67.7c0.8,0,1.4,0.7,1.4,1.5v68.6
							C598.2,195.9,597.5,196.6,596.7,196.6z M530.5,193.5h64.8V128h-64.8V193.5z"/>
					</g>
				</g>
				<g>
					<g>
						<polyline class="st9" points="411.8,222.8 411.8,113.2 455,24.2 502.7,108.5 502.7,232.1 						"/>
					</g>
					<g>
						<path class="st9" d="M502.7,233.6c-0.8,0-1.4-0.7-1.4-1.5V108.9l-46.2-81.6l-41.9,86.2v109.3c0,0.8-0.6,1.5-1.4,1.5
							c-0.8,0-1.4-0.7-1.4-1.5V113.2c0-0.2,0.1-0.5,0.2-0.7l43.3-89c0.2-0.5,0.7-0.8,1.2-0.8c0.5-0.1,1,0.3,1.3,0.7l47.7,84.3
							c0.1,0.2,0.2,0.5,0.2,0.8v123.6C504.2,232.9,503.5,233.6,502.7,233.6z"/>
					</g>
				</g>
				<g>
					<g>
						<path class="st10" d="M502.7,147.6c-25.4,35.4-69.3,39.7-91,39.5v35.8l91,9.3V147.6z"/>
					</g>
					<g>
						<path class="st10" d="M502.7,233.6c0,0-0.1,0-0.1,0l-91-9.3c-0.7-0.1-1.3-0.7-1.3-1.5V187c0-0.4,0.2-0.8,0.4-1.1
							c0.3-0.3,0.6-0.4,1-0.4c23,0.3,65.2-4.5,89.8-38.9c0.4-0.5,1-0.7,1.6-0.5c0.6,0.2,1,0.8,1,1.4v84.5c0,0.4-0.2,0.8-0.5,1.1
							C503.4,233.5,503.1,233.6,502.7,233.6z M413.2,221.4l88.1,9v-78.5c-25,31.5-64.8,36.6-87.8,36.6c-0.1,0-0.2,0-0.3,0V221.4z"/>
					</g>
				</g>
				<g>
					<g>
						<ellipse class="st11" cx="453" cy="99.3" rx="15.7" ry="16.5"/>
					</g>
					<g>
						<path class="st12" d="M453,115.9c7.2,0,13.3-5.1,15.1-12c-16.6,9.7-25.9-3.7-29.5-11.2c-0.9,2-1.4,4.3-1.4,6.7
							C437.3,108.5,444.4,115.9,453,115.9z"/>
					</g>
					<g>
						<path class="st13" d="M453.7,118.6c-0.5,0-0.9-0.4-0.9-0.8V84.3c0-0.5,0.4-0.8,0.9-0.8c0.5,0,0.9,0.4,0.9,0.8v33.4
							C454.6,118.2,454.2,118.6,453.7,118.6z"/>
					</g>
					<g>
						<path class="st13" d="M453.6,118.9c-10,0-18.1-8.5-18.1-19s8.1-19,18.1-19c10,0,18.1,8.5,18.1,19S463.6,118.9,453.6,118.9z
							 M453.6,84c-8.4,0-15.2,7.2-15.2,16c0,8.8,6.8,16,15.2,16c8.4,0,15.2-7.2,15.2-16C468.9,91.2,462,84,453.6,84z"/>
					</g>
				</g>
				<g>
					<rect x="538.1" y="135.7" class="st11" width="50.1" height="59.3"/>
				</g>
				<g>
					<path class="st12" d="M588.3,181.4c-29.9,1.1-44.5-18.9-50.1-29.5V195h50.1V181.4z"/>
				</g>
				<g>
					<rect x="563" y="135.7" class="st13" width="2.6" height="56.9"/>
					<path class="st13" d="M565.6,194.1H563c-0.8,0-1.4-0.7-1.4-1.5v-56.9c0-0.8,0.6-1.5,1.4-1.5h2.6c0.8,0,1.4,0.7,1.4,1.5v56.9
						C567.1,193.4,566.4,194.1,565.6,194.1z"/>
				</g>
				<g>
					<path class="st13" d="M588.3,196.6h-50.1c-0.8,0-1.4-0.7-1.4-1.5v-59.3c0-0.8,0.6-1.5,1.4-1.5h50.1c0.8,0,1.4,0.7,1.4,1.5v59.3
						C589.7,195.9,589.1,196.6,588.3,196.6z M539.6,193.5h47.3v-56.3h-47.3V193.5z"/>
				</g>
				<g>
					<g>
						<path class="st14" d="M569.8,163.9c-0.2,0-0.3-0.1-0.5-0.2c-0.3-0.3-0.3-0.8-0.1-1.1l11.2-13.5c0.3-0.3,0.7-0.3,1-0.1
							c0.3,0.3,0.3,0.8,0.1,1.1l-11.2,13.5C570.2,163.9,570,163.9,569.8,163.9z"/>
					</g>
					<g>
						<path class="st14" d="M573.5,165.2c-0.2,0-0.4-0.1-0.5-0.2c-0.3-0.3-0.3-0.8,0-1.1l9.3-10.4c0.3-0.3,0.7-0.3,1,0
							c0.3,0.3,0.3,0.8,0,1.1L574,165C573.9,165.2,573.7,165.2,573.5,165.2z"/>
					</g>
					<g>
						<path class="st14" d="M576.6,167.7c-0.2,0-0.4-0.1-0.5-0.2c-0.3-0.3-0.3-0.8,0-1.1l6.7-7.2c0.3-0.3,0.7-0.3,1,0
							c0.3,0.3,0.3,0.8,0,1.1l-6.7,7.2C577,167.6,576.8,167.7,576.6,167.7z"/>
					</g>
				</g>
				<g>
					<g>
						<g>
							<polygon class="st15" points="455,24.2 589.3,25 626.1,111.5 507.9,111.5 							"/>
						</g>
						<g>
							<path class="st15" d="M626.1,113H507.9c-0.5,0-1-0.3-1.2-0.7L453.8,25c-0.3-0.5-0.3-1.1,0-1.5c0.3-0.5,0.7-0.8,1.3-0.8
								c0,0,0,0,0,0l134.2,0.8c0.6,0,1.1,0.4,1.3,0.9l36.8,86.5c0.2,0.5,0.2,1-0.1,1.4C627,112.8,626.5,113,626.1,113z M508.7,110
								h115.1l-35.5-83.5l-130.7-0.8L508.7,110z"/>
						</g>
					</g>
					<g>
						<g>
							<path class="st16" d="M611.1,76.3c-31.2,18.7-87.6,24.2-109,25.6l5.8,9.6h118.2L611.1,76.3z"/>
						</g>
						<g>
							<path class="st16" d="M626.1,113H507.9c-0.5,0-1-0.3-1.2-0.7l-5.8-9.6c-0.3-0.4-0.3-1-0.1-1.5c0.2-0.5,0.7-0.8,1.2-0.8
								c22.4-1.5,77.7-7.1,108.4-25.4c0.4-0.2,0.8-0.3,1.2-0.1c0.4,0.1,0.7,0.4,0.9,0.8l15,35.2c0.2,0.5,0.2,1-0.1,1.4
								C627,112.8,626.5,113,626.1,113z M508.7,110h115.1l-13.4-31.6c-30.4,17.4-82.2,23.1-105.8,24.8L508.7,110z"/>
						</g>
					</g>
				</g>
				<g>
					<g>
						<g>
							<rect x="432.8" y="142.5" class="st17" width="32.3" height="59.8"/>
						</g>
						<g>
							<path class="st17" d="M465.2,203.7h-32.3c-0.8,0-1.4-0.7-1.4-1.5v-59.8c0-0.8,0.6-1.5,1.4-1.5h32.3c0.8,0,1.4,0.7,1.4,1.5
								v59.8C466.6,203.1,466,203.7,465.2,203.7z M434.3,200.7h29.5V144h-29.5V200.7z"/>
						</g>
					</g>
					<g>
						<ellipse class="st3" cx="439.6" cy="175.6" rx="3.2" ry="3.3"/>
						<path class="st3" d="M439.6,180.5c-2.5,0-4.6-2.2-4.6-4.8c0-2.7,2.1-4.8,4.6-4.8c2.5,0,4.6,2.2,4.6,4.8
							C444.2,178.3,442.1,180.5,439.6,180.5z M439.6,173.8c-0.9,0-1.7,0.8-1.7,1.8c0,1,0.8,1.8,1.7,1.8c0.9,0,1.7-0.8,1.7-1.8
							C441.3,174.7,440.5,173.8,439.6,173.8z"/>
					</g>
					<g>
						<g>
							<path class="st18" d="M465.2,174c-8.1,8.4-22.9,11.2-32.3,12.1v16.1h32.3V174z"/>
						</g>
						<g>
							<path class="st18" d="M465.2,203.7h-32.3c-0.8,0-1.4-0.7-1.4-1.5v-16.1c0-0.8,0.6-1.4,1.3-1.5c8.3-0.8,23.5-3.4,31.5-11.7
								c0.4-0.4,1-0.5,1.6-0.3c0.5,0.2,0.9,0.8,0.9,1.4v28.2C466.6,203.1,466,203.7,465.2,203.7z M434.3,200.7h29.5v-23.4
								c-8,6.5-20,9.1-29.5,10.2V200.7z"/>
						</g>
					</g>
					<g>
						<rect x="437" y="149.3" class="st11" width="24" height="8"/>
					</g>
					<g>
						<path class="st13" d="M461,158h-24c-0.4,0-0.7-0.3-0.7-0.8v-8c0-0.4,0.3-0.8,0.7-0.8h24c0.4,0,0.7,0.3,0.7,0.8v8
							C461.7,157.7,461.4,158,461,158z M437.7,156.5h22.6V150h-22.6V156.5z"/>
					</g>
				</g>
				<g>
					<g>
						<path class="st19" d="M630.8,222.5h-9.3v-8.2c0-0.8-0.6-1.5-1.4-1.5h-9.6V205c0-0.8-0.6-1.5-1.4-1.5h-10.9v-8.4
							c0-0.4-0.2-0.8-0.4-1.1c-0.3-0.3-0.7-0.5-1-0.4l-58.8,0.6c-0.8,0-1.4,0.7-1.4,1.5l-1.2,38c0,0.4,0.1,0.8,0.4,1.1
							c0.3,0.3,0.6,0.5,1,0.5l94.1,0.4c0,0,0,0,0,0c0.4,0,0.7-0.2,1-0.4c0.3-0.3,0.4-0.7,0.4-1.1V224
							C632.3,223.1,631.6,222.5,630.8,222.5z"/>
					</g>
					<g>
						<g>
							<path class="st6" d="M566.4,222.1c-0.8,0-1.4,0.7-1.4,1.5v10.8c0,0.3,0.1,0.6,0.3,0.8l65.6,0.3c0,0,0,0,0,0
								c0.4,0,0.7-0.2,1-0.4c0.3-0.3,0.4-0.7,0.4-1.1V224c0-0.8-0.6-1.5-1.4-1.5h-9.3v-0.3H566.4z"/>
						</g>
						<g>
							<path class="st6" d="M547.9,212.6h62.7V205c0-0.8-0.6-1.5-1.4-1.5h-10.9v-0.1h-50.3c-0.8,0-1.4,0.4-1.4,1v7.2
								C546.4,212.1,547.1,212.6,547.9,212.6z"/>
						</g>
					</g>
					<g>
						<path class="st20" d="M572.5,222.5h-9.3v-8.2c0-0.8-0.6-1.5-1.4-1.5h-9.6V205c0-0.8-0.6-1.5-1.4-1.5h-10.4v-8.4
							c0-0.8-0.6-1.5-1.4-1.5H529c-0.8,0-1.4,0.7-1.4,1.5v39c0,0.8,0.6,1.5,1.4,1.5h43.5c0.8,0,1.4-0.7,1.4-1.5V224
							C573.9,223.1,573.3,222.5,572.5,222.5z"/>
					</g>
					<g>
						<path class="st21" d="M529,235.6h43.5c0.8,0,1.4-0.7,1.4-1.5v-2.8c-27.9,1-40.6-11.3-46.3-21.7V234
							C527.6,234.9,528.2,235.6,529,235.6z"/>
					</g>
				</g>
				<g>
					<g>
						<g>
							<polygon class="st19" points="428.3,203.4 428.3,212.6 418.5,212.6 418.5,224 407.4,224 407.4,231.8 445.9,231.8 
								470.3,211.3 473.3,203.4 							"/>
						</g>
						<g>
							<path class="st19" d="M445.9,233.3h-38.5c-0.8,0-1.4-0.7-1.4-1.5V224c0-0.8,0.6-1.5,1.4-1.5h9.6v-9.9c0-0.8,0.6-1.5,1.4-1.5
								h8.4v-7.7c0-0.8,0.6-1.5,1.4-1.5h45c0.5,0,0.9,0.2,1.2,0.7c0.3,0.4,0.3,0.9,0.2,1.4l-2.9,8c-0.1,0.2-0.2,0.5-0.4,0.6
								l-24.4,20.4C446.5,233.2,446.2,233.3,445.9,233.3z M408.9,230.3h36.5l23.7-19.8l2-5.5h-41.4v7.7c0,0.8-0.6,1.5-1.4,1.5h-8.4
								v9.9c0,0.8-0.6,1.5-1.4,1.5h-9.6V230.3z"/>
						</g>
					</g>
					<g>
						<g>
							<polygon class="st6" points="427.6,212.5 417.8,212.5 417.8,221 420.6,221 448.7,221 457.2,221 470.2,212.7 							"/>
						</g>
						<g>
							<path class="st6" d="M457.2,222.6h-39.3c-0.8,0-1.4-0.7-1.4-1.5v-8.6c0-0.8,0.6-1.5,1.4-1.5h9.8c0,0,0,0,0,0l42.6,0.2
								c0.6,0,1.2,0.5,1.4,1.1c0.2,0.7-0.1,1.3-0.6,1.7l-13.1,8.4C457.7,222.5,457.4,222.6,457.2,222.6z M419.3,219.5h37.5l8.4-5.4
								l-45.9-0.2V219.5z"/>
						</g>
					</g>
					<g>
						<path class="st20" d="M494.5,201.3c-0.3-0.4-0.7-0.6-1.1-0.6h-26.6c-0.8,0-1.4,0.7-1.4,1.5v8.8h-8.4c-0.8,0-1.4,0.7-1.4,1.5
							v9.9h-9.6c-0.8,0-1.4,0.7-1.4,1.5v8.1c0,0.8,0.6,1.5,1.4,1.5h39.3c0.6,0,1.2-0.4,1.4-1.1l8.1-29.9
							C494.8,202.2,494.7,201.7,494.5,201.3z"/>
					</g>
					<g>
						<path class="st21" d="M491.4,214.6c-15.8,12.8-38.8,17.9-45.1,19h38.9c0.6,0,1.2-0.4,1.4-1.1L491.4,214.6z"/>
					</g>
				</g>
				<g>
					<g>
						<g>
							<path class="st6" d="M564.6,47.3c0,0-13.6-5.5-19,9.1c-4,10.7-4,23.2-4,23.2l8.1,5.6"/>
						</g>
						<g>
							<path class="st6" d="M549.6,86.7c-0.3,0-0.6-0.1-0.8-0.3l-8.1-5.6c-0.4-0.3-0.6-0.8-0.6-1.3c0-0.5,0.1-12.9,4.1-23.8
								c5.9-15.8,20.7-10,20.9-10c0.7,0.3,1.1,1.2,0.8,2c-0.3,0.8-1.1,1.2-1.9,0.9l0,0c-0.5-0.2-12.3-4.8-17.2,8.2
								c-3.3,8.8-3.8,19-3.9,21.9l7.4,5.2c0.7,0.5,0.8,1.4,0.4,2.1C550.5,86.5,550.1,86.7,549.6,86.7z"/>
						</g>
					</g>
					<g>
						<g>
							<path class="st9" d="M579.1,85.2h-29.4c0,0-2.8-37.9,15-37.9C582.6,47.3,579.1,85.2,579.1,85.2z"/>
						</g>
						<g>
							<path class="st9" d="M579.1,86.7h-29.4c-0.8,0-1.4-0.6-1.4-1.4c-0.1-1-1.8-25.2,7.1-35.2c2.5-2.9,5.7-4.3,9.4-4.3
								c3.7,0,6.9,1.5,9.4,4.4c8.7,10.1,6.5,34.2,6.4,35.2C580.4,86.2,579.8,86.7,579.1,86.7z M551,83.7h26.7
								c0.3-5.2,1-23.7-5.8-31.5c-2-2.3-4.4-3.4-7.3-3.4c-2.9,0-5.3,1.1-7.3,3.4C550.5,60,550.8,78.5,551,83.7z"/>
						</g>
					</g>
					<g>
						<path class="st11" d="M575.3,80.4h-21.9c0,0-2.1-28.2,11.2-28.2C577.9,52.2,575.3,80.4,575.3,80.4z"/>
					</g>
					<g>
						<path class="st12" d="M575.3,80.4c0,0,0.7-7.6-0.5-14.8c-5.9,3.6-13,6.9-21.5,9.8c0,3,0.1,5,0.1,5H575.3z"/>
					</g>
					<path class="st13" d="M564.6,52.1C564.6,52.2,564.6,52.2,564.6,52.1l0,28.2h1.4V52.3C565.5,52.2,565,52.1,564.6,52.1z"/>
				</g>
				<g>
					<g>
						<rect x="500.7" y="1.5" class="st17" width="5.7" height="30.7"/>
					</g>
					<g>
						<path class="st17" d="M506.4,33.8h-5.7c-0.8,0-1.4-0.7-1.4-1.5V1.5c0-0.8,0.6-1.5,1.4-1.5h5.7c0.8,0,1.4,0.7,1.4,1.5v30.7
							C507.8,33.1,507.2,33.8,506.4,33.8z M502.2,30.7h2.8V3h-2.8V30.7z"/>
					</g>
				</g>
			</g>
			<path class="st3" d="M378.2,235.9c-0.8,0-1.4-0.7-1.4-1.5l-1.2-107.7c0-0.8,0.6-1.5,1.4-1.5c0,0,0,0,0,0c0.8,0,1.4,0.7,1.4,1.5
				l1.2,107.7C379.7,235.3,379.1,235.9,378.2,235.9C378.3,235.9,378.2,235.9,378.2,235.9z"/>
			<path class="st3" d="M377.3,162.4c0,0-0.1,0-0.1,0c-0.8-0.1-1.4-0.8-1.3-1.6c0.3-3.9,2.6-7.5,6.9-10.7c0.9-0.7,1.9-1.3,2.8-2
				c2.3-1.5,4.4-3,6.1-5c2.4-2.9,3.6-7,3.1-10.8c-0.1-0.8,0.5-1.6,1.2-1.7c0.8-0.1,1.5,0.5,1.6,1.3c0.6,4.7-0.8,9.6-3.8,13.2
				c-1.9,2.3-4.3,4-6.7,5.5c-0.9,0.6-1.8,1.2-2.7,1.9c-2.5,1.9-5.5,4.8-5.7,8.5C378.7,161.8,378.1,162.4,377.3,162.4z"/>
		</g>
		<g>
			<g>
				<rect x="41.2" y="197.6" class="st22" width="6.9" height="34.6"/>
				<rect x="140.7" y="197.6" class="st22" width="6.9" height="34.6"/>
				<rect x="26.7" y="150" class="st23" width="133.8" height="46.6"/>
				<path class="st24" d="M160.5,176.4c-55.6,8.7-107.2-8.8-133.8-20.5v40.7h133.8V176.4z"/>
			</g>
			<g>
				<text transform="matrix(0.9538 0 0 1 45.5851 184.3574)" class="st25 st26 st27 st28">rent</text>
			</g>
		</g>
		<g>
			<path class="st4" d="M515.8,212.2c0.7-1.1,1.4-2.2,1.8-3.5c0.8-2.4,0.7-4.8-0.4-6.6c-0.9-1.5-2.4-2.4-3.9-2.6
				c0.2-3-1.2-6.1-3.7-7.5c-1.6-0.9-3.7-1-5.6-0.3c-1.3,0.5-2.4,1.4-3.1,2.6c-2.5-0.6-4.6-0.5-6.3,0.5c-1.5,0.8-2.6,2.4-2.9,4.1
				c-0.1,0.3-0.1,0.6-0.1,0.8c-2.6-0.3-5.3,0.8-6.8,3c-1.1,1.6-1.4,3.7-0.9,5.8c0.1,0.6,0.4,1.1,0.6,1.6c-0.5,0.2-1,0.5-1.4,0.9
				c-1.7,1.4-2.6,3.6-2.5,5.7c0.2,2.6,1.7,4.9,4,6.2c-1.6,1.6-2.5,3.9-2.2,6.1c0.3,3.5,3.4,6.5,6.7,6.6c0,0,0,0,0.1,0
				c0.8,0,1.4-0.6,1.4-1.4c0-0.1,0-0.1,0-0.2l10.1-0.8c0,0,0,0,0,0c0.1,0.8,0.7,1.5,1.5,1.4c2.2-0.2,4.4-1,6.2-2.4
				c1.4-1.1,2.2-2.3,2.5-3.6c0.1-0.8,0-1.6-0.3-2.4c1.7-0.8,3.3-2,4.6-3.4c1.8-1.9,2.7-3.8,2.8-5.8
				C517.9,215.1,517.1,213.2,515.8,212.2z"/>
		</g>
		<g>
			<path class="st29" d="M481.8,212.1c-1,1.3-1.5,2.9-1.4,4.5c0.2,2.6,1.7,4.9,4,6.2c-1.6,1.6-2.5,3.9-2.2,6.1
				c0.3,3.5,3.4,6.5,6.7,6.6c0,0,0,0,0.1,0c0.8,0,1.4-0.6,1.4-1.4c0-0.1,0-0.1,0-0.2l10.1-0.8c0,0,0,0,0,0c0.1,0.8,0.7,1.5,1.5,1.4
				c2.2-0.2,4.4-1,6.2-2.4c1.4-1.1,2.2-2.3,2.5-3.6c0.1-0.8,0-1.6-0.3-2.4c1.1-0.5,2.1-1.2,3-1.9
				C497.5,224.9,487.8,218.8,481.8,212.1z"/>
		</g>
		<g>
			<path class="st30" d="M748.6,235.9H1.4c-0.8,0-1.4-0.7-1.4-1.5c0-0.8,0.6-1.5,1.4-1.5h747.1c0.8,0,1.4,0.7,1.4,1.5
				C750,235.3,749.4,235.9,748.6,235.9z"/>
		</g>
	</g>
</g>
</svg>
